<svg width="43" height="38" viewBox="0 0 43 38" fill="none" xmlns="http://www.w3.org/2000/svg">
<path d="M36.6905 16.7725L35.2142 18.0248L34.752 17.4836" stroke="#4998FF" stroke-width="0.5"/>
<rect x="0.25" y="0.960449" width="41.5937" height="3.37706" rx="1.68853" stroke="#4998FF" stroke-width="0.5"/>
<rect x="0.25" y="34.0835" width="41.5937" height="3.37706" rx="1.68853" stroke="#4998FF" stroke-width="0.5"/>
<path d="M35.7433 2.64891C35.7433 2.97083 35.484 3.22971 35.1666 3.22971C34.8492 3.22971 34.5898 2.97083 34.5898 2.64891C34.5898 2.32699 34.8492 2.06812 35.1666 2.06812C35.484 2.06812 35.7433 2.32699 35.7433 2.64891Z" stroke="#4998FF" stroke-width="0.5"/>
<path d="M37.9585 2.65298C37.9585 2.97715 37.6973 3.23785 37.3777 3.23785C37.0581 3.23785 36.7969 2.97715 36.7969 2.65298C36.7969 2.32882 37.0581 2.06812 37.3777 2.06812C37.6973 2.06812 37.9585 2.32882 37.9585 2.65298Z" stroke="#4998FF" stroke-width="0.5"/>
<path d="M40.1662 2.64891C40.1662 2.97083 39.9068 3.22971 39.5894 3.22971C39.2721 3.22971 39.0127 2.97083 39.0127 2.64891C39.0127 2.32699 39.2721 2.06812 39.5894 2.06812C39.9068 2.06812 40.1662 2.32699 40.1662 2.64891Z" stroke="#4998FF" stroke-width="0.5"/>
<path d="M16.6162 12.3416H37.6631" stroke="#4998FF" stroke-width="0.5"/>
<path d="M16.6162 15.6648H37.6631" stroke="#4998FF" stroke-width="0.5"/>
<path d="M16.6162 18.988H37.6631" stroke="#4998FF" stroke-width="0.5"/>
<path d="M16.6162 22.3113H37.6631" stroke="#4998FF" stroke-width="0.5"/>
<path d="M16.6162 25.6343H37.6631" stroke="#4998FF" stroke-width="0.5"/>
<rect x="0.25" y="6.49902" width="10.5773" height="25.5317" rx="1.75" stroke="#4998FF" stroke-width="0.5"/>
<rect x="12.9893" y="6.49902" width="28.8548" height="25.5317" rx="1.75" stroke="#4998FF" stroke-width="0.5"/>
</svg>
