<svg width="28" height="39" viewBox="0 0 28 39" fill="none" xmlns="http://www.w3.org/2000/svg">
<rect x="0.25" y="1.21045" width="27.1081" height="36.6454" rx="1.75" stroke="#4998FF" stroke-width="0.5"/>
<circle cx="4.64313" cy="5.60334" r="2.38532" stroke="#4998FF" stroke-width="0.5"/>
<path d="M6.69899 3.99609C6.14557 4.31233 5.77869 4.60222 4.64344 4.60222C3.50819 4.60222 3.14131 4.31233 2.58789 3.99609" stroke="#4998FF" stroke-width="0.5"/>
<path d="M2.58714 7.21094C3.14056 6.8947 3.50744 6.60481 4.64269 6.60481C5.77794 6.60481 6.14483 6.8947 6.69824 7.21094" stroke="#4998FF" stroke-width="0.5"/>
<path d="M5.44614 5.60334C5.44614 6.3074 5.33154 6.93329 5.15528 7.37394C5.06687 7.59496 4.96785 7.75704 4.87069 7.85978C4.77403 7.96199 4.69667 7.98866 4.64202 7.98866C4.58736 7.98866 4.51001 7.96199 4.41334 7.85978C4.31618 7.75704 4.21716 7.59496 4.12876 7.37394C3.9525 6.93329 3.83789 6.3074 3.83789 5.60334C3.83789 4.89928 3.9525 4.27338 4.12876 3.83273C4.21716 3.61171 4.31618 3.44963 4.41334 3.34689C4.51001 3.24468 4.58736 3.21802 4.64202 3.21802C4.69667 3.21802 4.77403 3.24468 4.87069 3.34689C4.96785 3.44963 5.06687 3.61171 5.15528 3.83273C5.33154 4.27338 5.44614 4.89928 5.44614 5.60334Z" stroke="#4998FF" stroke-width="0.5"/>
<line x1="2.00781" y1="5.35352" x2="7.27845" y2="5.35352" stroke="#4998FF" stroke-width="0.5"/>
<line x1="10.04" y1="4.72607" x2="22.0872" y2="4.72607" stroke="#4998FF" stroke-width="0.5"/>
<line x1="3.76367" y1="15.0164" x2="23.8423" y2="15.0164" stroke="#4998FF" stroke-width="0.5"/>
<line x1="3.76367" y1="20.5381" x2="23.8423" y2="20.5381" stroke="#4998FF" stroke-width="0.5"/>
<line x1="10.04" y1="6.23218" x2="22.0872" y2="6.23218" stroke="#4998FF" stroke-width="0.5"/>
<line x1="3.76367" y1="17.7771" x2="23.8423" y2="17.7771" stroke="#4998FF" stroke-width="0.5"/>
<line x1="3.76367" y1="23.2988" x2="23.8423" y2="23.2988" stroke="#4998FF" stroke-width="0.5"/>
<line x1="3.76367" y1="33.0872" x2="10.0382" y2="33.0872" stroke="#4998FF" stroke-width="0.5"/>
<circle cx="21.5671" cy="31.0605" r="1.99092" stroke="#4998FF" stroke-width="0.5"/>
<path d="M19.8857 32.4229V35.3386C19.8857 35.7526 20.36 35.9872 20.6891 35.7361L21.2793 35.2857C21.4613 35.1468 21.7144 35.1492 21.8937 35.2917L22.4137 35.7048C22.7413 35.9651 23.2247 35.7318 23.2247 35.3133V32.4229" stroke="#4998FF" stroke-width="0.5"/>
</svg>
