<svg width="12" height="12" viewBox="0 0 12 12" fill="none" xmlns="http://www.w3.org/2000/svg">
<path d="M10.7973 2.11906L10.7974 2.11903C11.0502 1.86601 11.0503 1.45597 10.7973 1.20303C10.5444 0.950098 10.1344 0.950098 9.88143 1.20303L1.20376 9.8807C0.950897 10.1336 0.950831 10.5435 1.20356 10.7964C1.32986 10.9236 1.49613 10.9866 1.66147 10.9866C1.82733 10.9866 1.99308 10.9225 2.11947 10.7969L2.1198 10.7966L10.7973 2.11906Z" fill="#4998FF" stroke="#4998FF" stroke-width="0.3"/>
<path d="M1.20376 2.11907L1.20372 2.11903C0.95086 1.86601 0.950812 1.45597 1.20376 1.20303C1.4567 0.95008 1.86674 0.950128 2.11976 1.20299L2.1198 1.20303L10.7973 9.8807C11.0503 10.1336 11.0503 10.5437 10.7973 10.7966L10.797 10.7969C10.6707 10.9225 10.5051 10.9866 10.3398 10.9866C10.1744 10.9866 10.0084 10.9236 9.88204 10.7966L1.20376 2.11907ZM1.20376 2.11907L9.88171 10.7963L1.20376 2.11907Z" fill="#4998FF" stroke="#4998FF" stroke-width="0.3"/>
</svg>
