<svg width="41" height="37" viewBox="0 0 41 37" fill="none" xmlns="http://www.w3.org/2000/svg">
<path d="M37.3496 7.69928V24.3117C37.3496 24.3803 37.3637 24.4482 37.3911 24.5111L38.4504 26.9468C38.6274 27.3539 39.2078 27.3455 39.373 26.9334L40.3461 24.5053C40.3698 24.4461 40.382 24.383 40.382 24.3193V7.69928M37.3496 7.69928V5.12891C37.3496 4.85276 37.5735 4.62891 37.8496 4.62891H39.882C40.1582 4.62891 40.382 4.85276 40.382 5.12891V7.69928M37.3496 7.69928H40.382" stroke="#4998FF" stroke-width="0.5"/>
<rect x="12.6445" y="1.21045" width="23.2642" height="31.5683" rx="1.75" stroke="#4998FF" stroke-width="0.5"/>
<line x1="14.2529" y1="29.4912" x2="22.917" y2="29.4912" stroke="#4998FF" stroke-width="0.5"/>
<line x1="29.1035" y1="3.00513" x2="34.5495" y2="3.00513" stroke="#4998FF" stroke-width="0.5"/>
<line x1="29.1035" y1="4.06006" x2="34.5495" y2="4.06006" stroke="#4998FF" stroke-width="0.5"/>
<line x1="29.1035" y1="5.17627" x2="34.5495" y2="5.17627" stroke="#4998FF" stroke-width="0.5"/>
<line x1="22.2979" y1="9.64233" x2="26.2586" y2="9.64233" stroke="#4998FF" stroke-width="0.5"/>
<line x1="14.2529" y1="12.0615" x2="34.304" y2="12.0615" stroke="#4998FF" stroke-width="0.5"/>
<line x1="14.2529" y1="13.9221" x2="34.304" y2="13.9221" stroke="#4998FF" stroke-width="0.5"/>
<line x1="14.2529" y1="15.783" x2="34.304" y2="15.783" stroke="#4998FF" stroke-width="0.5"/>
<line x1="14.2529" y1="17.6438" x2="34.304" y2="17.6438" stroke="#4998FF" stroke-width="0.5"/>
<line x1="14.2529" y1="19.5046" x2="34.304" y2="19.5046" stroke="#4998FF" stroke-width="0.5"/>
<line x1="14.2529" y1="21.3657" x2="34.304" y2="21.3657" stroke="#4998FF" stroke-width="0.5"/>
<line x1="14.2529" y1="23.2263" x2="34.304" y2="23.2263" stroke="#4998FF" stroke-width="0.5"/>
<line x1="25.6396" y1="29.4912" x2="34.3037" y2="29.4912" stroke="#4998FF" stroke-width="0.5"/>
<path d="M10.8172 3.90845H3C1.89543 3.90845 1 4.80388 1 5.90845V33.9768C1 35.0813 1.89543 35.9768 3 35.9768H23.4288C24.1663 35.9768 24.7642 35.3789 24.7642 34.6414V34.6414" stroke="#4998FF" stroke-width="0.5"/>
<line x1="2.86621" y1="6.47925" x2="10.9114" y2="6.47925" stroke="#4998FF" stroke-width="0.5"/>
<line x1="2.86621" y1="8.3396" x2="10.9114" y2="8.3396" stroke="#4998FF" stroke-width="0.5"/>
<line x1="2.86621" y1="19.5049" x2="10.9114" y2="19.5049" stroke="#4998FF" stroke-width="0.5"/>
<line x1="2.86621" y1="10.2004" x2="10.9114" y2="10.2004" stroke="#4998FF" stroke-width="0.5"/>
<line x1="2.86621" y1="21.3657" x2="10.9114" y2="21.3657" stroke="#4998FF" stroke-width="0.5"/>
<line x1="2.86621" y1="12.0615" x2="10.9114" y2="12.0615" stroke="#4998FF" stroke-width="0.5"/>
<line x1="2.86621" y1="23.2266" x2="10.9114" y2="23.2266" stroke="#4998FF" stroke-width="0.5"/>
<line x1="2.86621" y1="13.9224" x2="10.9114" y2="13.9224" stroke="#4998FF" stroke-width="0.5"/>
<line x1="2.86621" y1="25.0874" x2="10.9114" y2="25.0874" stroke="#4998FF" stroke-width="0.5"/>
<line x1="2.86621" y1="15.7832" x2="10.9114" y2="15.7832" stroke="#4998FF" stroke-width="0.5"/>
<line x1="2.86621" y1="26.948" x2="10.9114" y2="26.948" stroke="#4998FF" stroke-width="0.5"/>
<line x1="2.86621" y1="17.644" x2="10.9114" y2="17.644" stroke="#4998FF" stroke-width="0.5"/>
<line x1="2.86621" y1="28.8091" x2="10.9114" y2="28.8091" stroke="#4998FF" stroke-width="0.5"/>
<line x1="2.86621" y1="30.6697" x2="10.9114" y2="30.6697" stroke="#4998FF" stroke-width="0.5"/>
<line x1="2.86621" y1="32.5308" x2="10.9114" y2="32.5308" stroke="#4998FF" stroke-width="0.5"/>
</svg>
