<svg width="40" height="41" viewBox="0 0 40 41" fill="none" xmlns="http://www.w3.org/2000/svg">
<path d="M17.8463 9.5H21.743C24.6957 9.5034 27.0861 11.889 27.0893 14.8297V24.8397C27.0893 25.1159 26.8655 25.3397 26.5893 25.3397H25.098C24.2695 25.3397 23.598 26.0113 23.598 26.8397V39.4485C23.598 39.7247 23.3741 39.9485 23.098 39.9485H19.957H16.4102C16.134 39.9485 15.9102 39.7247 15.9102 39.4485V26.8397C15.9102 26.0113 15.2386 25.3397 14.4102 25.3397H13C12.7239 25.3397 12.5 25.1159 12.5 24.8397V14.8294C12.5034 11.8889 14.8937 9.5034 17.8463 9.5Z" stroke="#4998FF"/>
<path d="M23.6126 5.00846C23.6126 6.96662 22.0202 8.55648 20.0529 8.55648C18.0855 8.55648 16.4932 6.96662 16.4932 5.00846C16.4932 3.05031 18.0855 1.46045 20.0529 1.46045C22.0202 1.46045 23.6126 3.05031 23.6126 5.00846Z" stroke="#4998FF"/>
<path d="M8.24461 17.6396H5.34676C2.94723 17.6423 1.00266 19.5813 1 21.9739V29.1608C1 29.713 1.44772 30.1608 2 30.1608H3.53561M12.5914 30.1608H9.99539M3.53561 30.1608V27.4218M3.53561 30.1608V37.167C3.53561 37.7193 3.98333 38.167 4.53561 38.167H6.91643M9.99539 27.4218V30.1608M9.99539 30.1608V37.167C9.99539 37.7193 9.54767 38.167 8.99539 38.167H6.91643M6.91643 38.167V30.1608" stroke="#4998FF"/>
<path d="M9.31549 14.2684C9.31549 15.6532 8.18925 16.7783 6.79691 16.7783C5.40457 16.7783 4.27832 15.6532 4.27832 14.2684C4.27832 12.8836 5.40457 11.7585 6.79691 11.7585C8.18925 11.7585 9.31549 12.8836 9.31549 14.2684Z" stroke="#4998FF"/>
<path d="M31.8609 17.6396H34.7587C37.1582 17.6423 39.1028 19.5813 39.1055 21.9739V29.1608C39.1055 29.713 38.6578 30.1608 38.1055 30.1608H36.5699M27.5141 30.1608H30.1101M36.5699 30.1608V27.4218M36.5699 30.1608V37.167C36.5699 37.7193 36.1221 38.167 35.5699 38.167H33.189M30.1101 27.4218V30.1608M30.1101 30.1608V37.167C30.1101 37.7193 30.5578 38.167 31.1101 38.167H33.189M33.189 38.167V30.1608" stroke="#4998FF"/>
<path d="M30.79 14.2684C30.79 15.6532 31.9162 16.7783 33.3086 16.7783C34.7009 16.7783 35.8271 15.6532 35.8271 14.2684C35.8271 12.8836 34.7009 11.7585 33.3086 11.7585C31.9162 11.7585 30.79 12.8836 30.79 14.2684Z" stroke="#4998FF"/>
</svg>
