<svg width="63" height="35" viewBox="0 0 63 35" fill="none" xmlns="http://www.w3.org/2000/svg">
<path d="M0 14H14V0L0 14Z" fill="#D7E8FF"/>
<rect x="33" y="14" width="14" height="14" transform="rotate(-180 33 14)" fill="#2885FF"/>
<path d="M19 0V14L33 0H19Z" fill="#D7E8FF"/>
<rect x="14" y="33" width="14" height="14" transform="rotate(-180 14 33)" fill="#2885FF"/>
<path d="M0 19V33L14 19H0Z" fill="#D7E8FF"/>
<path d="M29.912 26.696C29.784 28.136 29.2827 29.2613 28.408 30.072C27.544 30.872 26.4027 31.272 24.984 31.272C23.3627 31.272 22.0773 30.7387 21.128 29.672C20.1787 28.5947 19.704 27.144 19.704 25.32C19.704 23.6133 20.1787 22.1947 21.128 21.064C22.088 19.9227 23.4107 19.352 25.096 19.352C26.3013 19.352 27.3627 19.6773 28.28 20.328C29.1973 20.9787 29.7093 21.88 29.816 23.032H28.312C28.1413 22.2853 27.768 21.704 27.192 21.288C26.616 20.8613 25.9067 20.648 25.064 20.648C23.7947 20.648 22.8347 21.096 22.184 21.992C21.544 22.888 21.224 23.992 21.224 25.304C21.224 26.7547 21.5653 27.896 22.248 28.728C22.9307 29.56 23.864 29.976 25.048 29.976C26.0187 29.976 26.792 29.6987 27.368 29.144C27.944 28.5787 28.2907 27.7627 28.408 26.696H29.912ZM31.8269 19.608H33.9069L37.5709 29.256L41.1069 19.608H43.2029V31H41.7789V21.496L38.2109 31H36.8989L33.2669 21.496V31H31.8269V19.608ZM52.2764 29.768V31H44.8844C44.9164 30.3707 45.0124 29.8213 45.1724 29.352C45.3324 28.8827 45.5777 28.4613 45.9084 28.088C46.2497 27.704 46.5804 27.3893 46.9004 27.144C47.2204 26.8987 47.6737 26.5947 48.2604 26.232C49.1777 25.656 49.7804 25.224 50.0684 24.936C50.6657 24.3493 50.9644 23.6987 50.9644 22.984C50.9644 22.3547 50.7617 21.8427 50.3564 21.448C49.951 21.0427 49.423 20.84 48.7724 20.84C47.9937 20.84 47.4337 21.112 47.0924 21.656C46.7617 22.1893 46.5857 22.8667 46.5644 23.688H45.1884V23.384C45.1884 22.264 45.519 21.3627 46.1804 20.68C46.8524 19.9973 47.7377 19.656 48.8364 19.656C49.9137 19.656 50.7724 19.9547 51.4124 20.552C52.0524 21.1493 52.3724 21.9493 52.3724 22.952C52.3724 23.3787 52.2977 23.784 52.1484 24.168C52.0097 24.5413 51.8497 24.856 51.6684 25.112C51.4977 25.368 51.231 25.64 50.8684 25.928C50.5164 26.216 50.223 26.44 49.9884 26.6C49.7537 26.7493 49.4177 26.9573 48.9804 27.224C48.1057 27.7467 47.5244 28.152 47.2364 28.44C46.831 28.8347 46.5697 29.2773 46.4524 29.768H52.2764ZM61.615 27.112V28.264H60.079V31H58.799V28.264H53.823V26.984L58.975 19.656H60.079V27.112H61.615ZM58.799 27.112V21.656L55.023 27.112H58.799Z" fill="#4998FF"/>
</svg>
