<svg width="73" height="35" viewBox="0 0 73 35" fill="none" xmlns="http://www.w3.org/2000/svg">
<path d="M0 14H14V0L0 14Z" fill="#D7E8FF"/>
<rect x="33" y="14" width="14" height="14" transform="rotate(-180 33 14)" fill="#2885FF"/>
<path d="M19 0V14L33 0H19Z" fill="#D7E8FF"/>
<rect x="14" y="33" width="14" height="14" transform="rotate(-180 14 33)" fill="#2885FF"/>
<path d="M0 19V33L14 19H0Z" fill="#D7E8FF"/>
<path d="M29.912 26.696C29.784 28.136 29.2827 29.2613 28.408 30.072C27.544 30.872 26.4027 31.272 24.984 31.272C23.3627 31.272 22.0773 30.7387 21.128 29.672C20.1787 28.5947 19.704 27.144 19.704 25.32C19.704 23.6133 20.1787 22.1947 21.128 21.064C22.088 19.9227 23.4107 19.352 25.096 19.352C26.3013 19.352 27.3627 19.6773 28.28 20.328C29.1973 20.9787 29.7093 21.88 29.816 23.032H28.312C28.1413 22.2853 27.768 21.704 27.192 21.288C26.616 20.8613 25.9067 20.648 25.064 20.648C23.7947 20.648 22.8347 21.096 22.184 21.992C21.544 22.888 21.224 23.992 21.224 25.304C21.224 26.7547 21.5653 27.896 22.248 28.728C22.9307 29.56 23.864 29.976 25.048 29.976C26.0187 29.976 26.792 29.6987 27.368 29.144C27.944 28.5787 28.2907 27.7627 28.408 26.696H29.912ZM31.8269 19.608H33.9069L37.5709 29.256L41.1069 19.608H43.2029V31H41.7789V21.496L38.2109 31H36.8989L33.2669 21.496V31H31.8269V19.608ZM54.9964 19.608L50.1964 24.184L55.1884 31H53.2684L49.1404 25.208L47.2524 27V31H45.7484V19.608H47.2524V25.256L53.0284 19.608H54.9964ZM62.9483 29.768V31H55.5563C55.5883 30.3707 55.6843 29.8213 55.8443 29.352C56.0043 28.8827 56.2496 28.4613 56.5803 28.088C56.9216 27.704 57.2523 27.3893 57.5723 27.144C57.8923 26.8987 58.3456 26.5947 58.9323 26.232C59.8496 25.656 60.4523 25.224 60.7403 24.936C61.3376 24.3493 61.6363 23.6987 61.6363 22.984C61.6363 22.3547 61.4336 21.8427 61.0283 21.448C60.6229 21.0427 60.0949 20.84 59.4443 20.84C58.6656 20.84 58.1056 21.112 57.7643 21.656C57.4336 22.1893 57.2576 22.8667 57.2363 23.688H55.8603V23.384C55.8603 22.264 56.1909 21.3627 56.8523 20.68C57.5243 19.9973 58.4096 19.656 59.5083 19.656C60.5856 19.656 61.4443 19.9547 62.0843 20.552C62.7243 21.1493 63.0443 21.9493 63.0443 22.952C63.0443 23.3787 62.9696 23.784 62.8203 24.168C62.6816 24.5413 62.5216 24.856 62.3403 25.112C62.1696 25.368 61.9029 25.64 61.5403 25.928C61.1883 26.216 60.8949 26.44 60.6603 26.6C60.4256 26.7493 60.0896 26.9573 59.6523 27.224C58.7776 27.7467 58.1963 28.152 57.9083 28.44C57.5029 28.8453 57.2416 29.288 57.1243 29.768H62.9483ZM72.2869 27.112V28.264H70.7509V31H69.4709V28.264H64.4949V26.984L69.6469 19.656H70.7509V27.112H72.2869ZM69.4709 27.112V21.656L65.6949 27.112H69.4709Z" fill="#4998FF"/>
</svg>
