<svg width="74" height="36" viewBox="0 0 74 36" fill="none" xmlns="http://www.w3.org/2000/svg">
<path d="M0.171753 14.613H14.1718V0.613037L0.171753 14.613Z" fill="#D7E8FF"/>
<rect x="33.1718" y="14.613" width="14" height="14" transform="rotate(-180 33.1718 14.613)" fill="#2885FF"/>
<path d="M19.1718 0.613037V14.613L33.1718 0.613037H19.1718Z" fill="#D7E8FF"/>
<rect x="14.1718" y="33.613" width="14" height="14" transform="rotate(-180 14.1718 33.613)" fill="#2885FF"/>
<path d="M0.171753 19.613V33.613L14.1718 19.613H0.171753Z" fill="#D7E8FF"/>
<path d="M30.0838 27.309C29.9558 28.749 29.4544 29.8744 28.5798 30.685C27.7158 31.485 26.5744 31.885 25.1558 31.885C23.5344 31.885 22.2491 31.3517 21.2998 30.285C20.3504 29.2077 19.8758 27.757 19.8758 25.933C19.8758 24.2264 20.3504 22.8077 21.2998 21.677C22.2598 20.5357 23.5824 19.965 25.2678 19.965C26.4731 19.965 27.5344 20.2904 28.4518 20.941C29.3691 21.5917 29.8811 22.493 29.9878 23.645H28.4838C28.3131 22.8984 27.9398 22.317 27.3638 21.901C26.7878 21.4744 26.0784 21.261 25.2358 21.261C23.9664 21.261 23.0064 21.709 22.3558 22.605C21.7158 23.501 21.3958 24.605 21.3958 25.917C21.3958 27.3677 21.7371 28.509 22.4198 29.341C23.1024 30.173 24.0358 30.589 25.2198 30.589C26.1904 30.589 26.9638 30.3117 27.5398 29.757C28.1158 29.1917 28.4624 28.3757 28.5798 27.309H30.0838ZM31.9986 20.221H34.0786L37.7426 29.869L41.2786 20.221H43.3746V31.613H41.9506V22.109L38.3826 31.613H37.0706L33.4386 22.109V31.613H31.9986V20.221ZM55.1681 20.221L50.3681 24.797L55.3601 31.613H53.4401L49.3121 25.821L47.4241 27.613V31.613H45.9201V20.221H47.4241V25.869L53.2001 20.221H55.1681ZM63.12 30.381V31.613H55.728C55.76 30.9837 55.856 30.4344 56.016 29.965C56.176 29.4957 56.4213 29.0744 56.752 28.701C57.0933 28.317 57.424 28.0024 57.744 27.757C58.064 27.5117 58.5173 27.2077 59.104 26.845C60.0213 26.269 60.624 25.837 60.912 25.549C61.5093 24.9624 61.808 24.3117 61.808 23.597C61.808 22.9677 61.6053 22.4557 61.2 22.061C60.7947 21.6557 60.2667 21.453 59.616 21.453C58.8373 21.453 58.2773 21.725 57.936 22.269C57.6053 22.8024 57.4293 23.4797 57.408 24.301H56.032V23.997C56.032 22.877 56.3627 21.9757 57.024 21.293C57.696 20.6104 58.5813 20.269 59.68 20.269C60.7573 20.269 61.616 20.5677 62.256 21.165C62.896 21.7624 63.216 22.5624 63.216 23.565C63.216 23.9917 63.1413 24.397 62.992 24.781C62.8533 25.1544 62.6933 25.469 62.512 25.725C62.3413 25.981 62.0747 26.253 61.712 26.541C61.36 26.829 61.0667 27.053 60.832 27.213C60.5973 27.3624 60.2613 27.5704 59.824 27.837C58.9493 28.3597 58.368 28.765 58.08 29.053C57.6747 29.4584 57.4133 29.901 57.296 30.381H63.12ZM72.4586 27.725V28.877H70.9226V31.613H69.6426V28.877H64.6666V27.597L69.8186 20.269H70.9226V27.725H72.4586ZM69.6426 27.725V22.269L65.8666 27.725H69.6426Z" fill="white"/>
</svg>
