<svg width="915" height="916" viewBox="0 0 915 916" fill="none" xmlns="http://www.w3.org/2000/svg">
<path d="M423.541 913.912H424.549L430.194 914.315C425.557 914.114 420.719 913.71 415.679 913.106C415.478 913.106 415.075 913.106 414.873 913.106C417.897 913.307 420.719 913.711 423.541 913.912Z" fill="white"/>
<path d="M359.234 904.236L364.274 905.244C364.073 905.244 363.669 905.042 363.468 905.042C361.855 905.042 360.444 904.639 359.234 904.236Z" fill="white"/>
<path d="M398.141 911.09C397.94 911.09 397.94 911.09 398.141 911.09C403.584 911.896 409.027 912.501 414.672 913.106C414.873 913.106 415.075 913.106 415.478 913.106C409.632 912.501 403.786 911.896 398.141 911.09Z" fill="white"/>
<path d="M363.871 905.244C364.274 905.244 364.476 905.445 364.879 905.445L365.887 905.647C370.725 906.655 375.765 907.663 380.805 908.469C380.603 908.469 380.401 908.469 380.2 908.268C374.555 907.461 369.112 906.453 363.871 905.244Z" fill="white"/>
<path d="M380.603 908.469C380.804 908.469 381.006 908.469 381.006 908.671C386.449 909.678 391.892 910.485 397.536 911.09C397.536 911.09 397.536 911.09 397.738 911.09C391.892 910.283 386.045 909.477 380.603 908.469Z" fill="white"/>
<path d="M491.478 905.848C488.252 905.647 485.228 905.647 482.003 905.445C481.6 905.647 481.197 905.848 480.592 906.05C483.817 906.252 486.841 906.453 490.067 906.453C498.533 906.856 506.597 907.058 513.854 907.058C514.459 906.856 515.064 906.655 515.669 906.453C508.21 906.453 500.146 906.252 491.478 905.848Z" fill="white"/>
<path d="M443.701 902.623C443.499 902.824 443.096 903.026 442.895 903.227C455.393 904.437 467.69 905.445 479.584 906.05C479.987 905.848 480.39 905.646 480.995 905.445C468.9 904.84 456.401 903.832 443.701 902.623Z" fill="white"/>
<path d="M364.072 891.938C351.574 889.721 339.478 887.503 327.786 885.084C327.988 885.286 328.391 885.689 328.593 885.891C340.083 888.31 352.179 890.527 364.274 892.543C364.274 892.543 364.072 892.14 364.072 891.938Z" fill="white"/>
<path d="M442.693 902.421C429.993 901.212 417.091 899.801 404.391 897.986C404.391 898.188 404.189 898.389 404.189 898.591C416.89 900.204 429.59 901.817 442.088 903.026C442.088 902.825 442.29 902.623 442.693 902.421Z" fill="white"/>
<path d="M234.651 856.862L237.474 858.474C239.086 859.281 240.901 860.289 242.917 861.095C242.11 860.692 241.505 860.289 240.699 859.885C238.683 858.877 236.466 857.87 234.651 856.862Z" fill="white"/>
<path d="M247.553 862.708C245.336 861.901 243.32 860.894 241.304 860.087C242.11 860.49 242.715 860.893 243.521 861.297C245.336 862.103 247.351 863.111 249.569 863.917C254.407 865.933 259.648 867.747 265.293 869.562C264.688 869.159 264.083 868.755 263.479 868.554C257.834 866.74 252.391 864.724 247.553 862.708Z" fill="white"/>
<path d="M403.181 897.784C390.279 895.97 377.579 894.155 365.08 891.938C365.282 892.14 365.282 892.341 365.483 892.744C377.78 894.76 390.279 896.776 402.979 898.389C402.979 898.389 402.979 898.187 403.181 897.784Z" fill="white"/>
<path d="M560.019 903.43L563.042 902.825C557.801 904.034 551.552 904.841 543.891 905.445C543.085 905.647 542.48 905.849 541.674 906.05C548.931 905.445 554.979 904.639 560.019 903.43Z" fill="white"/>
<path d="M264.285 868.756C264.89 869.159 265.495 869.562 266.1 869.764C274.566 872.586 284.041 875.207 294.121 877.827C293.717 877.424 293.113 877.223 292.709 876.819C282.428 874.4 272.954 871.578 264.285 868.756Z" fill="white"/>
<path d="M516.474 906.453C515.87 906.655 515.265 906.856 514.66 907.058C524.538 907.058 533.408 906.655 541.068 906.05C541.875 905.848 542.48 905.647 543.286 905.445C535.424 906.05 526.554 906.453 516.474 906.453Z" fill="white"/>
<path d="M293.718 877.223C294.121 877.626 294.726 877.827 295.129 878.231C305.41 880.851 316.296 883.472 327.787 885.689C327.383 885.488 327.182 885.085 326.779 884.883C315.086 882.464 303.999 879.843 293.718 877.223Z" fill="white"/>
<path d="M621.302 873.997C620.697 874.4 619.891 874.803 619.286 875.207C630.575 874.199 640.05 872.989 647.71 871.175C648.517 870.772 649.323 870.368 649.928 869.965C642.267 871.779 632.591 873.191 621.302 873.997Z" fill="white"/>
<path d="M148.976 794.369C149.58 794.974 150.387 795.578 150.991 796.183C155.426 799.812 162.079 803.642 170.949 807.674C170.344 807.069 169.739 806.464 169.135 805.86C160.265 802.029 153.612 798.199 148.976 794.369Z" fill="white"/>
<path d="M352.985 854.04C334.438 850.814 316.295 847.387 298.757 843.759C298.958 844.162 299.16 844.767 299.362 845.17C316.698 848.798 334.64 852.225 352.985 855.249C353.186 854.846 352.985 854.443 352.985 854.04Z" fill="white"/>
<path d="M620.293 874.198C608.803 875.206 595.498 875.61 580.378 875.61C579.774 876.013 579.169 876.416 578.766 876.819C593.683 876.819 606.787 876.416 618.277 875.408C618.882 875.005 619.487 874.602 620.293 874.198Z" fill="white"/>
<path d="M146.959 792.756L149.177 794.772C149.58 795.175 150.184 795.578 150.588 795.981C149.983 795.376 149.176 794.772 148.572 794.167C147.967 793.764 147.564 793.159 146.959 792.756Z" fill="white"/>
<path d="M297.346 843.355C280.009 839.727 263.479 835.897 247.956 831.865C248.359 832.268 248.762 832.873 249.166 833.276C264.486 837.106 280.815 840.936 298.152 844.565C297.749 844.363 297.547 843.96 297.346 843.355Z" fill="white"/>
<path d="M662.023 866.538L664.643 865.127C661.015 866.942 656.378 868.554 650.532 869.764C649.726 870.167 648.919 870.57 648.314 870.973C653.959 869.764 658.596 868.353 662.023 866.538Z" fill="white"/>
<path d="M204.615 820.777C204.01 820.173 203.607 819.769 203.204 819.165C194.535 816.342 186.472 813.318 179.215 810.496C175.989 809.085 172.764 807.875 169.941 806.464C170.546 807.069 171.151 807.674 171.756 808.279C174.578 809.488 177.602 810.899 180.827 812.109C188.084 814.931 195.947 817.955 204.615 820.777Z" fill="white"/>
<path d="M411.244 862.708C392.093 860.087 373.143 857.265 354.396 854.04C354.396 854.443 354.597 854.846 354.597 855.451C373.143 858.474 391.891 861.498 410.841 863.917C411.244 863.716 411.244 863.313 411.244 862.708Z" fill="white"/>
<path d="M246.545 831.663C231.224 827.631 216.911 823.599 204.211 819.366C204.614 819.97 205.219 820.374 205.622 820.978C218.322 825.212 232.434 829.244 247.754 833.074C247.351 832.671 246.948 832.267 246.545 831.663Z" fill="white"/>
<path d="M577.355 876.819C577.96 876.416 578.565 876.013 578.968 875.61C567.881 875.61 555.785 875.408 542.883 874.803C538.247 874.602 533.409 874.4 528.772 874.198C528.369 874.602 527.966 875.005 527.562 875.408C532.199 875.61 537.037 875.811 541.674 876.013C554.576 876.416 566.469 876.618 577.355 876.819Z" fill="white"/>
<path d="M470.109 869.562C451.159 867.748 432.008 865.53 412.857 862.909C412.857 863.313 412.655 863.716 412.655 864.119C431.605 866.74 450.554 868.756 469.504 870.57C469.705 870.368 469.907 869.965 470.109 869.562Z" fill="white"/>
<path d="M527.361 873.996C509.419 872.988 490.672 871.577 471.924 869.763C471.722 870.166 471.319 870.569 471.117 870.972C489.865 872.787 508.412 874.198 526.151 875.206C526.555 874.803 526.958 874.399 527.361 873.996Z" fill="white"/>
<path d="M79.4258 713.732L81.0385 716.152C82.4496 718.167 84.6672 720.385 87.2879 722.804C86.6831 721.998 86.2799 721.393 85.8767 720.587C82.8528 717.966 80.8369 715.748 79.4258 713.732Z" fill="white"/>
<path d="M749.109 809.488L751.327 807.674C750.924 808.077 750.319 808.48 749.714 808.883C749.109 809.488 748.303 810.093 747.698 810.698C748.101 810.093 748.706 809.891 749.109 809.488Z" fill="white"/>
<path d="M112.084 735.706C100.593 730.465 92.1264 725.425 86.2803 720.788C86.6835 721.595 87.2883 722.2 87.6914 723.006C93.5376 727.642 102.004 732.682 113.495 737.924C113.092 737.117 112.487 736.311 112.084 735.706Z" fill="white"/>
<path d="M570.098 822.591C547.117 821.382 523.329 819.568 499.138 817.148C498.937 817.753 498.735 818.358 498.332 818.761C522.321 820.979 546.109 822.995 568.889 824.204C569.292 823.599 569.695 822.995 570.098 822.591Z" fill="white"/>
<path d="M156.636 754.253C156.233 753.648 155.83 752.841 155.427 752.237C144.339 748.608 134.058 744.778 124.785 741.149C120.552 739.536 116.721 737.722 113.093 736.109C113.496 736.916 114.101 737.52 114.504 738.327C118.133 739.94 121.963 741.552 126.196 743.367C135.268 746.995 145.549 750.624 156.636 754.253Z" fill="white"/>
<path d="M727.539 817.148C726.935 817.753 726.128 818.358 725.523 818.761C735.2 816.544 742.457 813.721 747.094 810.697C747.698 810.093 748.505 809.488 749.11 808.883C744.675 812.31 737.216 814.931 727.539 817.148Z" fill="white"/>
<path d="M275.978 783.281C253.803 778.645 232.636 773.807 212.88 768.767C213.081 769.372 213.485 770.178 213.686 770.783C233.241 775.823 254.408 780.661 276.381 785.297C276.179 784.693 275.978 784.088 275.978 783.281Z" fill="white"/>
<path d="M496.92 816.947C472.73 814.528 448.135 811.706 423.743 808.48C423.541 809.085 423.541 809.69 423.34 810.295C447.732 813.52 472.125 816.343 496.114 818.762C496.517 817.955 496.719 817.35 496.92 816.947Z" fill="white"/>
<path d="M634.809 826.22C635.212 825.616 635.817 825.212 636.22 824.608C622.109 824.608 606.586 824.205 590.056 823.6C584.008 823.398 577.96 822.995 571.913 822.793C571.509 823.398 571.106 824.003 570.703 824.406C576.751 824.809 582.799 825.011 588.846 825.212C605.377 825.817 620.698 826.22 634.809 826.22Z" fill="white"/>
<path d="M211.066 768.364C191.31 763.324 173.167 758.083 156.838 752.64C157.241 753.244 157.644 754.051 158.047 754.656C174.376 759.897 192.519 765.138 212.074 770.178C211.67 769.573 211.469 768.969 211.066 768.364Z" fill="white"/>
<path d="M688.835 822.591C674.119 823.801 657.186 824.406 637.833 824.406C637.43 825.01 636.825 825.615 636.422 826.018C655.573 826.018 672.507 825.414 687.021 824.204C687.626 823.801 688.231 823.196 688.835 822.591Z" fill="white"/>
<path d="M421.727 808.076C397.334 804.851 372.942 801.021 349.154 797.19C349.154 797.795 349.154 798.4 349.154 799.005C372.74 803.036 397.133 806.665 421.324 809.891C421.525 809.286 421.525 808.681 421.727 808.076Z" fill="white"/>
<path d="M347.138 796.788C323.35 792.756 300.168 788.321 277.791 783.685C277.993 784.289 278.194 784.894 278.194 785.499C300.369 790.136 323.35 794.369 347.138 798.401C347.138 797.997 347.138 797.393 347.138 796.788Z" fill="white"/>
<path d="M726.733 817.35C716.855 819.568 704.558 821.382 690.044 822.591C689.439 823.196 688.834 823.801 688.229 824.204C702.744 822.995 714.84 821.382 724.717 819.164C725.524 818.56 726.129 817.955 726.733 817.35Z" fill="white"/>
<path d="M263.276 707.281C237.271 701.838 212.475 696.194 189.494 690.146C189.696 690.953 189.897 691.759 189.897 692.565C212.879 698.411 237.674 704.258 263.478 709.499C263.478 708.693 263.276 707.886 263.276 707.281Z" fill="white"/>
<path d="M746.49 753.245C729.355 754.656 709.397 755.261 686.819 755.261C686.416 756.067 686.013 756.672 685.609 757.478C707.986 757.478 727.943 756.672 745.079 755.462C745.482 754.656 745.885 753.849 746.49 753.245Z" fill="white"/>
<path d="M607.392 753.042C580.379 751.631 552.56 749.414 524.337 746.793C524.136 747.599 523.934 748.204 523.732 749.01C551.955 751.631 579.775 753.849 606.586 755.26C606.788 754.453 607.191 753.647 607.392 753.042Z" fill="white"/>
<path d="M683.795 757.477C684.198 756.671 684.602 756.066 685.005 755.26C668.474 755.26 650.331 754.857 630.979 754.05C623.923 753.849 616.867 753.446 609.812 753.042C609.408 753.849 609.207 754.454 608.804 755.26C615.859 755.663 622.915 756.066 629.971 756.268C649.122 757.074 667.063 757.477 683.795 757.477Z" fill="white"/>
<path d="M817.046 737.318C811.603 740.947 802.935 744.172 791.646 746.793C791.041 747.599 790.638 748.204 790.033 749.011C801.322 746.39 809.789 743.164 815.232 739.536C816.038 738.729 816.643 737.923 817.046 737.318Z" fill="white"/>
<path d="M790.839 746.995C779.349 749.615 765.036 751.631 747.9 753.042C747.497 753.849 746.892 754.454 746.489 755.26C763.423 753.849 777.736 751.833 789.226 749.212C789.831 748.406 790.234 747.801 790.839 746.995Z" fill="white"/>
<path d="M122.97 673.213C122.769 672.406 122.567 671.6 122.366 670.794C109.262 666.56 97.3684 662.125 86.4825 657.892C81.6444 655.876 77.0078 653.86 72.7744 652.046C72.976 652.852 73.3792 653.658 73.5808 654.465C77.8142 656.481 82.4508 658.295 87.289 660.311C98.1748 664.544 110.069 668.979 122.97 673.213Z" fill="white"/>
<path d="M71.5647 651.441C58.2598 645.191 48.1802 639.547 41.3262 633.902C41.7294 634.709 41.9309 635.515 42.3341 636.523C49.1882 641.966 59.0661 647.812 72.371 653.86C72.1694 653.053 71.9679 652.247 71.5647 651.441Z" fill="white"/>
<path d="M820.675 734.899L822.489 732.682C821.279 734.295 819.667 735.706 817.651 737.117C817.046 737.923 816.643 738.528 816.038 739.334C817.852 737.722 819.465 736.31 820.675 734.899Z" fill="white"/>
<path d="M187.48 689.541C164.498 683.695 143.13 677.446 123.979 671.197C124.18 672.003 124.382 672.81 124.583 673.616C143.734 679.865 164.901 685.913 187.883 691.961C187.681 691.154 187.681 690.348 187.48 689.541Z" fill="white"/>
<path d="M31.2461 622.009L32.254 624.629C33.6652 628.258 36.8905 632.088 41.7287 636.12C41.3255 635.314 41.1239 634.507 40.7207 633.499C35.8826 629.468 32.6572 625.436 31.2461 622.009Z" fill="white"/>
<path d="M433.823 736.108C405.197 732.278 376.773 728.045 348.953 723.207C348.953 724.013 348.953 724.618 348.953 725.424C376.773 730.061 405.197 734.496 433.621 738.326C433.621 737.721 433.823 736.915 433.823 736.108Z" fill="white"/>
<path d="M346.535 723.006C318.715 718.369 291.5 713.128 265.495 707.685C265.495 708.491 265.697 709.298 265.697 709.902C291.702 715.345 318.715 720.385 346.535 725.022C346.535 724.417 346.535 723.611 346.535 723.006Z" fill="white"/>
<path d="M521.917 746.39C493.694 743.568 464.867 740.342 436.241 736.512C436.04 737.319 436.039 737.923 435.838 738.73C464.262 742.56 492.888 745.785 521.111 748.608C521.514 747.801 521.715 747.197 521.917 746.39Z" fill="white"/>
<path d="M49.7927 556.089C35.0766 549.437 23.9891 542.986 16.5303 536.938C16.7319 537.946 16.7319 538.752 16.9335 539.76C24.3923 545.808 35.4799 552.057 49.9944 558.911C50.196 557.903 49.9943 557.097 49.7927 556.089Z" fill="white"/>
<path d="M351.573 634.709C321.133 629.468 291.298 623.823 262.672 617.977C262.672 618.783 262.672 619.791 262.672 620.598C291.096 626.444 320.932 632.088 351.372 637.33C351.372 636.322 351.372 635.515 351.573 634.709Z" fill="white"/>
<path d="M105.835 580.078C105.835 579.272 105.634 578.264 105.634 577.458C91.3206 572.821 78.2172 567.983 66.3234 563.145C60.8804 560.927 55.8407 558.71 51.2041 556.694C51.4057 557.702 51.4057 558.508 51.6073 559.516C56.2439 561.734 61.2836 563.749 66.7266 565.967C78.4188 570.805 91.5223 575.442 105.835 580.078Z" fill="white"/>
<path d="M839.019 661.118C826.318 663.94 810.594 666.157 792.048 667.77C791.645 668.576 791.443 669.383 791.04 670.391C809.788 668.778 825.512 666.561 838.011 663.738C838.212 662.932 838.615 661.924 839.019 661.118Z" fill="white"/>
<path d="M637.026 670.19C637.227 669.383 637.429 668.577 637.832 667.569C608.198 665.956 577.758 663.537 546.713 660.513C546.512 661.32 546.31 662.126 546.108 663.134C577.153 666.158 607.594 668.577 637.026 670.19Z" fill="white"/>
<path d="M4.83789 520.811L5.2411 523.633C6.04746 528.471 9.67604 533.713 16.5301 539.156C16.3285 538.148 16.3286 537.341 16.127 536.333C9.27295 530.89 5.44266 525.649 4.83789 520.811Z" fill="white"/>
<path d="M867.847 650.434C861.799 654.465 852.526 658.094 840.027 660.916C839.624 661.723 839.221 662.529 839.02 663.537C851.518 660.715 860.791 657.086 866.839 653.054C867.242 652.046 867.444 651.24 867.847 650.434Z" fill="white"/>
<path d="M447.329 649.224C415.88 644.991 384.634 640.354 354.194 635.113C354.194 635.919 353.992 636.927 353.992 637.733C384.432 642.975 415.679 647.611 447.127 651.845C447.127 651.038 447.329 650.03 447.329 649.224Z" fill="white"/>
<path d="M790.436 667.971C771.487 669.383 749.715 670.189 725.121 670.189C724.919 670.995 724.516 671.802 724.314 672.81C748.908 672.81 770.68 672.003 789.63 670.592C789.63 669.584 790.033 668.778 790.436 667.971Z" fill="white"/>
<path d="M874.096 645.191L875.306 642.571C874.096 645.191 871.879 647.812 868.452 650.231C868.049 651.038 867.645 652.046 867.242 652.852C870.669 650.231 872.887 647.812 874.096 645.191Z" fill="white"/>
<path d="M260.253 617.372C231.829 611.324 204.614 605.075 179.214 598.624C179.214 599.431 179.214 600.439 179.214 601.245C204.614 607.696 231.627 613.945 260.052 619.993C260.253 619.186 260.253 618.38 260.253 617.372Z" fill="white"/>
<path d="M176.996 598.221C151.797 591.77 128.413 584.916 107.447 578.062C107.447 579.07 107.649 579.877 107.649 580.885C128.614 587.739 151.999 594.391 177.198 600.842C176.996 599.834 176.996 599.028 176.996 598.221Z" fill="white"/>
<path d="M721.895 672.809C722.097 672.003 722.5 671.197 722.702 670.189C704.559 670.189 684.803 669.785 663.434 668.777C655.774 668.374 647.912 668.173 640.05 667.77C639.848 668.576 639.646 669.382 639.243 670.39C647.105 670.793 654.766 671.197 662.426 671.398C683.996 672.406 703.752 672.809 721.895 672.809Z" fill="white"/>
<path d="M544.092 660.513C513.047 657.489 481.599 653.86 450.151 649.627C449.95 650.433 449.95 651.441 449.748 652.248C480.995 656.481 512.443 660.11 543.488 663.134C543.689 662.126 543.891 661.319 544.092 660.513Z" fill="white"/>
<path d="M747.296 574.232C747.498 573.224 747.699 572.216 747.699 571.41C728.75 571.41 708.188 571.007 686.214 569.999C678.151 569.595 670.087 569.192 662.023 568.789C661.822 569.797 661.62 570.805 661.62 571.611C669.684 572.014 677.747 572.418 685.811 572.821C707.986 573.829 728.347 574.232 747.296 574.232Z" fill="white"/>
<path d="M659.604 568.789C628.962 567.176 597.111 564.555 564.856 561.531C564.655 562.539 564.655 563.547 564.453 564.354C596.708 567.378 628.357 569.998 658.999 571.611C659.201 570.603 659.402 569.595 659.604 568.789Z" fill="white"/>
<path d="M267.31 516.577C237.676 510.328 209.453 503.877 183.045 497.224C182.843 498.232 182.843 499.24 182.642 500.248C209.05 506.901 237.273 513.553 266.705 519.601C267.108 518.593 267.31 517.585 267.31 516.577Z" fill="white"/>
<path d="M818.054 568.991C798.5 570.603 775.72 571.41 750.118 571.41C749.916 572.418 749.715 573.426 749.715 574.232C775.317 574.232 798.097 573.426 817.651 571.813C817.651 570.805 817.852 569.999 818.054 568.991Z" fill="white"/>
<path d="M461.844 549.638C429.187 545.203 396.731 540.365 365.081 534.922C364.879 535.93 364.879 536.938 364.678 537.744C396.327 543.187 428.784 548.025 461.441 552.46C461.441 551.452 461.643 550.646 461.844 549.638Z" fill="white"/>
<path d="M362.258 534.518C330.608 529.076 299.563 523.229 269.93 517.182C269.728 518.19 269.728 519.198 269.526 520.004C299.16 526.253 330.205 531.898 361.855 537.341C362.056 536.333 362.056 535.526 362.258 534.518Z" fill="white"/>
<path d="M898.489 550.848C892.239 555.081 882.563 558.71 869.662 561.734C869.46 562.742 869.258 563.749 869.057 564.556C881.958 561.532 891.635 557.903 897.884 553.67C898.086 552.864 898.287 551.856 898.489 550.848Z" fill="white"/>
<path d="M48.9861 452.874C33.6652 445.819 22.3761 439.166 14.514 432.917C14.514 433.925 14.3125 434.933 14.3125 435.941C21.9729 442.19 33.4635 448.843 48.7844 455.898C48.7844 454.89 48.9861 453.882 48.9861 452.874Z" fill="white"/>
<path d="M562.237 561.129C529.982 557.903 497.325 554.275 464.667 549.84C464.465 550.848 464.465 551.856 464.264 552.662C496.921 557.097 529.579 560.725 561.833 563.951C561.833 563.145 562.035 562.137 562.237 561.129Z" fill="white"/>
<path d="M2.21717 415.781C2.21717 416.789 2.01562 417.797 2.01562 418.805C2.6204 424.046 6.45059 429.489 13.7078 435.537C13.7078 434.529 13.9094 433.521 13.9094 432.513C6.45054 426.466 2.62035 420.821 2.21717 415.781Z" fill="white"/>
<path d="M106.44 478.073C106.44 477.065 106.642 476.057 106.642 475.049C91.7243 470.211 78.2177 465.171 65.9207 460.333C60.2762 458.116 55.0348 455.898 50.1967 453.681C50.1967 454.689 49.9951 455.697 49.9951 456.705C54.8333 458.922 60.0746 461.139 65.7192 463.357C78.0162 468.195 91.7243 473.033 106.44 478.073Z" fill="white"/>
<path d="M181.029 496.619C154.822 489.765 130.429 482.911 108.658 475.654C108.658 476.662 108.456 477.67 108.456 478.678C130.228 485.734 154.62 492.789 180.827 499.643C180.827 498.434 180.827 497.426 181.029 496.619Z" fill="white"/>
<path d="M906.553 542.986L907.157 539.962C906.351 543.792 903.73 547.219 899.295 550.444C899.094 551.452 898.892 552.46 898.69 553.267C903.125 550.243 905.746 546.816 906.553 542.986Z" fill="white"/>
<path d="M868.452 561.935C855.349 564.958 839.02 567.176 819.667 568.789C819.466 569.797 819.264 570.805 819.062 571.611C838.415 569.998 854.744 567.781 867.847 564.757C868.251 563.951 868.25 562.943 868.452 561.935Z" fill="white"/>
<path d="M476.156 443.4C444.103 439.166 412.252 434.328 381.006 429.087C380.804 430.095 380.603 431.103 380.603 431.909C411.849 437.15 443.902 441.989 475.955 446.424C475.955 445.416 476.156 444.408 476.156 443.4Z" fill="white"/>
<path d="M574.935 454.891C543.286 451.867 511.031 448.037 478.978 443.803C478.777 444.811 478.777 445.819 478.575 446.827C510.628 451.06 542.883 454.891 574.734 457.915C574.734 456.705 574.935 455.899 574.935 454.891Z" fill="white"/>
<path d="M876.313 455.495C863.411 458.317 847.284 460.736 828.133 462.349C828.133 463.357 828.133 464.365 828.133 465.373C847.284 463.76 863.411 461.543 876.313 458.519C876.313 457.511 876.313 456.503 876.313 455.495Z" fill="white"/>
<path d="M126.196 372.843C126.397 371.835 126.8 371.029 127.002 370.021C112.487 365.183 98.9808 360.345 86.8854 355.506C81.4425 353.289 76.2011 351.071 71.3629 348.854C71.1613 349.862 70.7582 350.668 70.5566 351.676C75.3948 353.894 80.4345 356.111 86.079 358.329C98.1744 363.167 111.479 368.005 126.196 372.843Z" fill="white"/>
<path d="M70.1535 348.249C55.2358 341.395 43.9467 334.743 36.2863 328.695C35.8831 329.703 35.6815 330.509 35.2783 331.517C42.9388 337.565 54.2278 344.217 69.1455 351.071C69.5487 350.265 69.7503 349.257 70.1535 348.249Z" fill="white"/>
<path d="M670.692 462.147C640.453 460.535 609.207 458.116 577.557 455.092C577.557 456.1 577.355 457.108 577.355 458.116C609.005 461.14 640.453 463.559 670.692 465.171C670.692 464.163 670.692 463.155 670.692 462.147Z" fill="white"/>
<path d="M378.184 428.482C346.938 423.241 316.498 417.395 287.267 411.347C287.065 412.355 286.864 413.363 286.662 414.169C315.893 420.217 346.333 426.063 377.579 431.304C377.983 430.498 378.184 429.49 378.184 428.482Z" fill="white"/>
<path d="M34.6737 330.913C35.0768 329.905 35.2785 329.098 35.4801 328.09C28.2228 322.244 24.3926 316.6 23.9894 311.56C23.5862 312.568 23.3846 313.374 22.9814 314.382C23.5862 319.422 27.4164 325.066 34.6737 330.913Z" fill="white"/>
<path d="M285.049 410.944C256.02 404.896 228.2 398.445 202.195 391.793C201.993 392.801 201.792 393.607 201.389 394.615C227.394 401.268 255.213 407.718 284.242 413.766C284.646 412.758 284.847 411.952 285.049 410.944Z" fill="white"/>
<path d="M757.577 467.792C757.577 466.785 757.577 465.777 757.577 464.769C739.03 464.769 718.871 464.365 697.1 463.357C689.238 462.954 681.376 462.753 673.312 462.148C673.312 463.156 673.312 464.164 673.11 465.172C681.174 465.575 689.036 465.978 696.898 466.381C718.67 467.389 738.829 467.792 757.577 467.792Z" fill="white"/>
<path d="M914.415 434.328L914.213 431.304C914.415 436.142 911.794 440.376 906.149 444.206C906.149 445.214 906.149 446.222 906.351 447.23C911.995 443.4 914.818 438.965 914.415 434.328Z" fill="white"/>
<path d="M826.52 462.349C807.168 463.962 784.993 464.768 759.794 464.768C759.794 465.776 759.794 466.784 759.794 467.792C784.993 467.792 807.369 466.986 826.722 465.373C826.52 464.365 826.52 463.357 826.52 462.349Z" fill="white"/>
<path d="M905.948 444.609C899.699 448.843 890.224 452.27 877.523 455.294C877.523 456.302 877.523 457.31 877.523 458.318C890.224 455.294 899.699 451.665 905.948 447.633C905.948 446.625 905.948 445.617 905.948 444.609Z" fill="white"/>
<path d="M199.977 391.188C174.174 384.536 150.185 377.682 128.816 370.626C128.614 371.634 128.211 372.44 128.01 373.448C149.378 380.504 173.368 387.358 199.171 394.011C199.373 393.204 199.776 392.196 199.977 391.188Z" fill="white"/>
<path d="M110.673 252.695C96.7633 246.244 86.2806 240.197 79.0233 234.552C78.6202 235.359 78.0155 236.165 77.6123 236.971C84.668 242.616 95.3522 248.865 109.262 255.316C109.867 254.308 110.27 253.502 110.673 252.695Z" fill="white"/>
<path d="M670.49 358.934C642.267 357.321 613.238 355.104 583.604 352.281C583.604 353.289 583.604 354.096 583.604 355.104C613.238 357.926 642.469 360.143 670.691 361.756C670.49 360.748 670.49 359.74 670.49 358.934Z" fill="white"/>
<path d="M489.058 341.193C459.223 337.161 429.388 332.726 400.359 327.687C400.157 328.694 399.955 329.501 399.754 330.509C428.985 335.347 458.82 339.984 488.655 344.015C488.857 343.209 489.058 342.201 489.058 341.193Z" fill="white"/>
<path d="M310.853 310.955C283.638 305.31 257.835 299.263 233.644 293.215C233.241 294.021 233.039 295.029 232.636 295.835C256.827 302.085 282.832 307.931 310.047 313.777C310.45 312.769 310.651 311.963 310.853 310.955Z" fill="white"/>
<path d="M77.0075 236.366C77.4107 235.56 78.0155 234.753 78.4187 233.947C71.7662 228.504 68.1376 223.263 67.7344 218.626C67.3312 219.432 66.7264 220.239 66.3232 221.045C66.7264 225.682 70.355 230.923 77.0075 236.366Z" fill="white"/>
<path d="M751.731 364.175C751.529 363.167 751.529 362.36 751.328 361.352C733.991 361.352 715.243 360.949 695.084 360.143C687.827 359.941 680.368 359.538 672.909 359.135C672.909 360.143 673.111 360.949 673.111 361.957C680.57 362.36 688.028 362.764 695.286 362.965C715.646 363.57 734.394 363.973 751.731 364.175Z" fill="white"/>
<path d="M581.185 351.878C551.551 349.055 521.514 345.427 491.679 341.596C491.477 342.604 491.477 343.411 491.275 344.419C521.312 348.45 551.349 351.878 580.983 354.7C581.185 353.893 581.185 352.885 581.185 351.878Z" fill="white"/>
<path d="M890.021 341.999C890.223 343.007 890.626 343.814 890.828 344.822C896.271 340.991 898.891 336.758 898.287 331.92C898.085 330.912 897.682 330.106 897.48 329.098C898.085 333.936 895.464 338.371 890.021 341.999Z" fill="white"/>
<path d="M815.635 359.135C797.694 360.546 776.93 361.352 753.344 361.352C753.545 362.36 753.545 363.167 753.747 364.175C777.333 364.175 798.097 363.368 816.24 361.957C816.038 360.949 815.837 359.941 815.635 359.135Z" fill="white"/>
<path d="M162.482 275.475C162.885 274.668 163.288 273.66 163.691 272.854C149.983 268.419 137.485 263.783 126.196 259.348C120.954 257.332 116.318 255.114 111.883 253.098C111.48 253.905 110.875 254.711 110.472 255.719C114.907 257.735 119.745 259.751 124.986 261.968C136.275 266.403 148.774 271.04 162.482 275.475Z" fill="white"/>
<path d="M397.94 327.486C368.911 322.647 340.487 317.204 313.272 311.56C313.071 312.366 312.667 313.374 312.466 314.18C339.681 319.825 368.105 325.268 397.335 330.106C397.537 329.3 397.739 328.292 397.94 327.486Z" fill="white"/>
<path d="M862 352.684C849.905 355.305 834.987 357.522 817.247 358.933C817.449 359.941 817.65 360.748 817.852 361.756C835.793 360.345 850.711 358.127 862.807 355.506C862.403 354.498 862.202 353.49 862 352.684Z" fill="white"/>
<path d="M889.618 342.403C883.772 346.233 874.902 349.66 863.21 352.281C863.412 353.289 863.613 354.095 863.815 355.103C875.709 352.281 884.579 349.055 890.425 345.024C890.021 344.217 889.82 343.411 889.618 342.403Z" fill="white"/>
<path d="M231.628 292.611C207.638 286.361 185.262 279.91 165.304 273.459C164.901 274.266 164.498 275.274 164.095 276.08C184.052 282.531 206.429 288.982 230.62 295.231C231.023 294.425 231.426 293.619 231.628 292.611Z" fill="white"/>
<path d="M274.163 204.112C252.996 198.669 233.442 193.024 215.904 187.38C215.299 188.186 214.896 188.791 214.291 189.597C231.829 195.443 251.585 201.088 272.752 206.531C273.357 205.523 273.76 204.716 274.163 204.112Z" fill="white"/>
<path d="M827.931 256.727C817.449 259.146 804.144 260.96 788.621 262.17C789.024 262.976 789.226 263.783 789.629 264.791C805.353 263.581 818.658 261.565 829.141 259.146C828.738 258.34 828.334 257.533 827.931 256.727Z" fill="white"/>
<path d="M212.879 188.993C213.484 188.186 213.887 187.581 214.492 186.775C202.598 182.743 191.511 178.913 181.633 174.881C177.198 173.067 172.964 171.253 168.933 169.438C168.328 170.245 167.723 170.849 167.118 171.656C170.948 173.47 175.182 175.284 179.818 177.099C189.696 180.929 200.784 184.961 212.879 188.993Z" fill="white"/>
<path d="M581.185 256.122C555.18 253.502 528.772 250.478 502.565 247.051C502.565 247.857 502.363 248.664 502.363 249.47C528.772 252.897 555.18 256.122 581.387 258.541C581.185 257.735 581.185 256.929 581.185 256.122Z" fill="white"/>
<path d="M659.604 262.17C634.809 260.759 609.408 258.743 583.403 256.324C583.403 257.13 583.403 257.936 583.403 258.944C609.408 261.363 635.212 263.379 660.008 264.79C659.806 263.782 659.806 262.976 659.604 262.17Z" fill="white"/>
<path d="M851.921 247.656C846.881 251.083 839.019 253.905 828.738 256.324C829.141 257.131 829.545 257.937 829.948 258.945C840.43 256.526 848.292 253.502 853.332 250.075C852.929 249.47 852.526 248.664 851.921 247.656Z" fill="white"/>
<path d="M343.712 220.239C319.924 215.199 297.144 209.958 275.977 204.515C275.574 205.321 275.171 206.127 274.768 206.732C296.136 212.175 318.916 217.416 342.905 222.456C343.107 221.65 343.51 220.843 343.712 220.239Z" fill="white"/>
<path d="M500.348 246.647C474.141 243.22 447.934 239.188 422.332 234.753C422.131 235.56 421.929 236.366 421.728 237.172C447.33 241.607 473.738 245.437 499.945 249.066C500.146 248.461 500.146 247.655 500.348 246.647Z" fill="white"/>
<path d="M731.37 266.807C731.169 266 730.766 264.992 730.564 264.186C715.243 264.186 698.713 263.783 681.174 263.178C674.724 262.977 668.273 262.573 661.62 262.17C661.822 262.977 661.822 263.783 662.023 264.791C668.676 265.194 675.127 265.396 681.578 265.799C699.519 266.404 716.05 266.807 731.37 266.807Z" fill="white"/>
<path d="M420.114 234.552C394.512 230.117 369.717 225.481 345.728 220.642C345.324 221.449 345.123 222.255 344.72 223.061C368.709 228.101 393.706 232.738 419.51 237.173C419.711 236.165 419.913 235.358 420.114 234.552Z" fill="white"/>
<path d="M860.186 238.584C859.783 237.778 859.38 236.971 858.775 236.165C859.178 240.398 857.162 244.027 852.324 247.454C852.727 248.26 853.131 249.067 853.534 249.873C858.574 246.648 860.791 242.817 860.186 238.584Z" fill="white"/>
<path d="M167.925 168.834C155.628 163.189 146.355 157.746 140.105 152.908C139.501 153.513 138.896 154.319 138.291 154.924C144.54 159.964 153.813 165.407 166.11 171.051C166.715 170.245 167.32 169.64 167.925 168.834Z" fill="white"/>
<path d="M137.686 154.521C138.291 153.916 138.896 153.109 139.5 152.505C133.654 147.666 130.429 143.03 130.026 138.998C129.421 139.603 128.816 140.409 128.01 141.014C128.615 145.046 131.84 149.682 137.686 154.521Z" fill="white"/>
<path d="M787.21 262.372C771.486 263.582 753.141 264.388 732.579 264.388C732.781 265.194 733.184 266.001 733.386 267.009C754.149 267.009 772.494 266.404 788.42 264.993C787.815 263.985 787.412 263.178 787.21 262.372Z" fill="white"/>
<path d="M742.659 175.688C729.757 176.695 715.041 177.3 698.107 177.3C698.511 178.107 698.914 178.711 699.317 179.518C716.251 179.518 731.168 178.913 744.07 177.905C743.667 177.099 743.264 176.292 742.659 175.688Z" fill="white"/>
<path d="M795.476 163.793C791.444 166.615 784.993 169.035 776.526 170.849C777.131 171.655 777.736 172.26 778.139 173.066C786.606 171.05 793.057 168.631 797.29 165.809C796.686 165.204 796.081 164.398 795.476 163.793Z" fill="white"/>
<path d="M274.768 115.816C275.373 115.211 275.978 114.606 276.583 114.001C266.906 110.776 257.835 107.55 249.771 104.325C246.142 102.914 242.715 101.301 239.49 99.8899C238.684 100.495 238.079 101.099 237.272 101.503C240.498 102.914 243.925 104.526 247.554 105.938C256.02 109.365 265.092 112.59 274.768 115.816Z" fill="white"/>
<path d="M509.217 162.988C487.848 160.165 466.48 156.94 445.716 153.311C445.514 153.916 445.313 154.722 445.111 155.327C466.077 158.956 487.445 162.181 509.016 165.004C509.217 164.399 509.217 163.592 509.217 162.988Z" fill="white"/>
<path d="M238.683 99.4867C228.604 94.8501 221.145 90.6167 216.105 86.3833C215.299 86.9881 214.492 87.3914 213.888 87.9961C218.927 92.0279 226.588 96.4629 236.667 101.1C237.272 100.696 238.079 100.091 238.683 99.4867Z" fill="white"/>
<path d="M638.84 175.486C618.681 174.478 597.917 172.866 576.75 170.648C576.75 171.455 576.952 172.059 576.952 172.866C598.32 174.882 619.084 176.494 639.445 177.704C639.445 176.897 639.243 176.293 638.84 175.486Z" fill="white"/>
<path d="M575.138 170.447C553.971 168.431 532.602 165.81 511.234 162.988C511.234 163.794 511.032 164.399 511.032 165.205C532.602 168.028 554.173 170.648 575.34 172.664C575.138 172.059 575.138 171.253 575.138 170.447Z" fill="white"/>
<path d="M325.367 128.112C308.232 123.677 292.306 119.041 277.993 114.404C277.388 115.009 276.783 115.614 276.179 116.219C290.492 120.855 306.619 125.492 323.956 129.927C324.359 129.524 324.762 128.717 325.367 128.112Z" fill="white"/>
<path d="M697.906 179.518C697.503 178.711 697.1 178.107 696.898 177.3C684.399 177.3 671.094 177.099 656.58 176.494C651.339 176.292 646.097 176.091 640.654 175.688C640.856 176.494 641.057 177.099 641.461 177.905C646.904 178.107 652.145 178.51 657.386 178.711C671.901 179.115 685.407 179.518 697.906 179.518Z" fill="white"/>
<path d="M444.103 153.11C423.339 149.481 402.979 145.852 383.626 141.821C383.223 142.425 382.82 143.232 382.618 143.836C402.172 147.868 422.533 151.699 443.499 155.327C443.7 154.319 443.902 153.714 444.103 153.11Z" fill="white"/>
<path d="M802.935 156.335C802.33 155.73 801.725 154.924 801.12 154.319C801.523 157.746 799.709 160.77 795.879 163.391C796.484 164.197 797.088 164.802 797.693 165.608C801.523 162.988 803.338 159.762 802.935 156.335Z" fill="white"/>
<path d="M381.812 141.215C362.459 137.184 343.913 132.95 326.576 128.515C326.173 129.12 325.568 129.725 325.165 130.33C342.502 134.764 361.25 138.998 380.804 143.231C381.207 142.626 381.61 142.022 381.812 141.215Z" fill="white"/>
<path d="M775.922 171.051C767.254 173.067 756.569 174.478 743.869 175.486C744.272 176.293 744.877 176.897 745.28 177.704C758.182 176.696 768.866 175.083 777.535 173.269C776.93 172.462 776.325 171.858 775.922 171.051Z" fill="white"/>
<path d="M213.484 87.7939C214.29 87.1892 215.097 86.786 215.702 86.1812C210.863 82.1494 208.444 78.5208 208.041 75.0938C207.235 75.6985 206.428 76.1017 205.622 76.7064C206.025 80.1335 208.646 83.7621 213.484 87.7939Z" fill="white"/>
<path d="M301.378 38.8078C302.184 38.4046 303.192 38.0014 303.999 37.7998C300.572 34.9776 298.757 32.3568 298.354 29.9377C297.548 30.3409 296.54 30.5425 295.733 30.9457C295.935 33.1632 297.749 35.7839 301.378 38.8078Z" fill="white"/>
<path d="M383.022 68.0386C370.523 64.8132 359.032 61.5877 348.751 58.1606C348.146 58.5638 347.34 58.967 346.735 59.5718C357.218 62.9988 368.709 66.2243 381.409 69.6513C381.812 68.845 382.417 68.4418 383.022 68.0386Z" fill="white"/>
<path d="M708.188 98.8813C701.938 100.292 694.278 101.301 685.005 102.107C685.61 102.712 686.214 103.316 686.819 103.921C696.092 103.115 703.954 102.107 710.204 100.696C709.599 100.091 708.994 99.4861 708.188 98.8813Z" fill="white"/>
<path d="M320.529 47.2746C313.271 44.0491 307.828 40.8237 304.2 37.7998C303.393 38.203 302.385 38.6062 301.579 38.8078C305.208 41.8316 310.852 45.0571 318.11 48.2825C318.916 48.0809 319.722 47.6778 320.529 47.2746Z" fill="white"/>
<path d="M684.4 102.309C675.126 103.115 664.442 103.518 652.347 103.518C652.75 104.123 653.355 104.728 653.758 105.332C666.055 105.332 676.941 104.929 686.214 104.123C685.609 103.518 685.004 102.913 684.4 102.309Z" fill="white"/>
<path d="M468.698 85.9801C453.78 83.3595 439.064 80.7387 424.953 77.7148C424.55 78.3196 424.146 78.7228 423.743 79.3275C437.854 82.3514 452.772 84.9722 467.892 87.5928C468.295 86.9881 468.496 86.3833 468.698 85.9801Z" fill="white"/>
<path d="M345.727 59.1683C346.332 58.7651 347.139 58.362 347.743 57.7573C340.688 55.5398 334.237 53.1207 328.391 50.7016C325.77 49.6936 323.351 48.484 320.932 47.4761C320.125 47.8793 319.319 48.2825 318.513 48.6857C320.932 49.6936 323.351 50.9031 325.971 51.9111C332.221 54.3302 338.672 56.7492 345.727 59.1683Z" fill="white"/>
<path d="M652.548 105.131C652.145 104.526 651.54 103.921 651.137 103.317C642.267 103.317 632.389 103.115 622.108 102.712C618.278 102.51 614.447 102.309 610.617 102.107C611.02 102.712 611.222 103.317 611.625 103.921C615.455 104.123 619.487 104.325 623.116 104.526C633.599 104.929 643.476 105.131 652.548 105.131Z" fill="white"/>
<path d="M515.87 93.0355C500.549 91.0196 485.026 88.6005 470.109 86.1814C469.907 86.7862 469.705 87.1893 469.504 87.7941C484.623 90.4148 500.146 92.6323 515.87 94.8498C515.668 94.245 515.668 93.6403 515.87 93.0355Z" fill="white"/>
<path d="M724.718 95.2533C723.911 94.6486 723.306 94.0437 722.5 93.439C719.476 95.4549 714.84 97.0677 708.792 98.6804C709.397 99.2852 710.203 99.8899 710.808 100.495C717.057 99.0835 721.694 97.4708 724.718 95.2533Z" fill="white"/>
<path d="M563.244 98.4784C547.923 97.0672 532.602 95.253 517.08 93.2371C517.08 93.8418 517.08 94.4467 516.878 95.0514C532.4 97.0673 548.124 98.8815 563.647 100.494C563.647 99.6879 563.445 99.0831 563.244 98.4784Z" fill="white"/>
<path d="M609.407 102.107C594.893 101.301 579.774 100.091 564.654 98.6799C564.856 99.2847 564.856 99.8894 565.058 100.494C580.58 101.905 595.699 103.115 610.415 103.921C610.012 103.316 609.609 102.712 609.407 102.107Z" fill="white"/>
<path d="M728.75 88.3988C727.944 87.7941 727.137 87.3909 726.532 86.7861C726.734 89.2052 725.524 91.4227 722.702 93.4386C723.509 94.0434 724.113 94.6482 724.92 95.253C727.742 93.2371 729.153 91.0195 728.75 88.3988Z" fill="white"/>
<path d="M423.743 77.5132C409.834 74.4894 396.327 71.4654 383.829 68.24C383.224 68.6432 382.821 69.248 382.216 69.6511C394.916 72.8766 408.423 76.1021 422.534 78.9244C423.139 78.5212 423.542 77.9164 423.743 77.5132Z" fill="white"/>
<path d="M519.499 40.2189C510.83 39.0094 502.364 37.7998 493.897 36.3887C493.695 36.7919 493.494 37.1951 493.292 37.5983C501.96 39.0094 510.629 40.4206 519.499 41.6301C519.499 41.0253 519.499 40.6221 519.499 40.2189Z" fill="white"/>
<path d="M493.09 36.3885C484.623 34.9774 476.56 33.3647 468.698 31.752C468.295 32.1551 467.891 32.3567 467.488 32.7599C475.552 34.3726 483.817 35.9853 492.486 37.3965C492.687 36.9933 492.889 36.5901 493.09 36.3885Z" fill="white"/>
<path d="M468.093 31.5508C460.231 29.938 452.772 28.1236 445.717 26.3093C445.112 26.5109 444.507 26.9141 443.902 27.1157C450.958 28.9301 458.619 30.7443 466.682 32.357C467.287 32.1555 467.69 31.9539 468.093 31.5508Z" fill="white"/>
<path d="M546.108 43.4443C537.641 42.6379 528.973 41.63 520.305 40.4204C520.305 40.8236 520.305 41.2268 520.305 41.63C529.175 42.8396 538.045 43.8475 546.713 44.6539C546.511 44.2507 546.31 43.8474 546.108 43.4443Z" fill="white"/>
<path d="M596.909 47.4757C596.304 47.0726 595.699 46.6694 595.296 46.0646C590.257 46.0646 584.814 45.8631 578.967 45.6615C576.951 45.6615 574.734 45.4599 572.517 45.2583C572.92 45.6615 573.323 46.0647 573.726 46.6695C575.944 46.871 578.161 46.871 580.379 47.0725C586.225 47.2741 591.668 47.4757 596.909 47.4757Z" fill="white"/>
<path d="M445.112 26.3092C438.258 24.4949 431.807 22.6805 425.961 20.8662C425.154 21.0678 424.55 21.2694 423.743 21.6726C429.589 23.6885 436.242 25.5028 443.297 27.3171C443.902 26.914 444.507 26.5108 445.112 26.3092Z" fill="white"/>
<path d="M613.843 45.4602C608.602 45.8634 602.554 46.065 595.901 46.065C596.506 46.4681 597.111 46.8713 597.514 47.4761C604.368 47.4761 610.618 47.2745 615.859 46.8714C615.254 46.2666 614.448 45.8634 613.843 45.4602Z" fill="white"/>
<path d="M627.148 43.6462C623.721 44.4526 619.286 45.0573 614.246 45.4605C615.052 45.8637 615.657 46.2669 616.262 46.8716C621.503 46.4685 625.938 45.8636 629.567 45.0573C628.761 44.4525 627.954 44.0494 627.148 43.6462Z" fill="white"/>
<path d="M635.01 40.6221C633.397 41.8316 630.777 42.6379 627.35 43.4443C628.156 43.8474 628.962 44.2507 629.769 44.6539C633.196 43.8475 635.816 42.8396 637.631 41.63C636.824 41.4284 636.018 41.0253 635.01 40.6221Z" fill="white"/>
<path d="M571.912 45.4602C563.849 45.0571 555.382 44.4523 546.915 43.4443C547.117 43.8475 547.318 44.2508 547.52 44.654C556.188 45.4603 564.857 46.0651 573.122 46.6699C572.517 46.2667 572.315 45.8634 571.912 45.4602Z" fill="white"/>
<path d="M423.34 21.2693C424.146 21.0677 424.751 20.8662 425.557 20.463C421.526 19.2534 418.098 17.8423 414.671 16.6327C413.26 16.028 411.849 15.4231 410.438 14.8184C409.632 15.0199 408.825 15.2216 407.817 15.4232C409.229 16.028 410.64 16.6327 412.051 17.2375C415.679 18.6486 419.308 20.0597 423.34 21.2693Z" fill="white"/>
<path d="M398.141 9.77828C399.149 9.57669 399.955 9.3752 400.963 9.3752C398.947 7.76248 397.939 6.35132 397.939 4.94019C396.931 5.14178 396.125 5.1418 395.117 5.34339C395.117 6.75452 396.125 8.16556 398.141 9.77828Z" fill="white"/>
<path d="M640.05 38.001C639.244 37.5978 638.236 37.1947 637.429 36.7915C637.631 38.2026 636.825 39.4122 635.212 40.4201C636.018 40.8233 637.026 41.2265 637.833 41.6297C639.445 40.6218 640.252 39.4121 640.05 38.001Z" fill="white"/>
<path d="M410.237 14.8185C406.205 13.0041 403.181 11.1899 401.165 9.57715C400.157 9.77874 399.351 9.98035 398.343 9.98035C400.359 11.5931 403.584 13.4074 407.616 15.4233C408.624 15.2217 409.43 15.02 410.237 14.8185Z" fill="white"/>
<path d="M1.20898 483.919C1.61217 489.766 2.01537 495.612 2.62014 501.458L1.20898 483.919Z" fill="white"/>
<path d="M1.20935 483.92C1.20935 483.315 1.2094 482.509 1.00781 481.904V482.509L1.20935 483.92Z" fill="white"/>
<path d="M1.00858 481.903L0.403706 455.092C0.202116 464.163 0.403804 473.033 1.00858 481.903Z" fill="white"/>
<path d="M169.74 812.512C166.716 810.093 163.894 807.674 161.071 805.053C162.886 806.464 164.498 808.077 166.313 809.488L169.74 812.512Z" fill="white"/>
<path d="M160.062 804.247C160.466 804.448 160.667 804.851 161.07 805.053C160.667 804.851 160.264 804.65 160.062 804.247Z" fill="white"/>
<path d="M316.093 892.544C313.876 891.737 311.658 891.133 309.643 890.326C311.457 890.931 313.271 891.536 315.086 892.14L316.093 892.544Z" fill="white"/>
<path d="M574.533 899.801C574.13 900.002 573.726 900.002 573.323 900.204C573.525 900.002 574.13 900.002 574.533 899.801Z" fill="white"/>
<path d="M566.066 902.018C568.486 901.413 570.905 900.808 573.122 900.203C569.897 901.01 566.47 902.018 563.244 902.824L566.066 902.018Z" fill="white"/>
<path d="M890.828 344.822C890.627 343.814 890.425 343.008 890.022 342C881.152 309.947 868.855 279.103 853.736 249.873C853.333 249.067 852.929 248.26 852.526 247.454C837.205 218.425 818.659 191.008 797.693 165.608C797.089 164.802 796.484 164.197 795.879 163.391C774.712 138.192 750.924 115.412 724.919 95.0514C724.113 94.4466 723.508 93.8418 722.702 93.237C696.495 73.078 668.071 55.7413 637.832 41.6299C637.026 41.2267 636.018 40.8235 635.212 40.4203C605.578 26.7122 574.13 16.2295 541.472 8.97224C541.674 8.77065 541.875 8.56908 541.875 8.36749C575.339 14.4152 607.19 24.0915 637.429 36.7917C638.235 37.1949 639.243 37.598 640.05 38.0012C670.893 51.3062 699.922 67.635 726.532 86.7861C727.338 87.3909 728.145 87.794 728.75 88.3988C755.359 107.751 779.55 129.926 801.121 154.319C801.725 154.924 802.33 155.73 802.935 156.335C824.303 180.929 843.051 207.539 858.977 236.165C859.38 236.971 859.783 237.777 860.388 238.584C875.911 267.21 888.409 297.65 897.481 329.299C897.682 330.307 898.086 331.114 898.287 332.122C901.109 342.201 903.528 352.482 905.746 362.965L903.932 354.498C864.823 178.711 721.492 37.1949 533.408 6.95634C533.408 7.7627 531.191 8.16588 526.756 7.96429C520.305 7.7627 511.838 6.1499 508.008 4.73877C506.798 4.13399 506.194 3.73091 505.992 3.32773C504.581 3.12614 503.17 3.12612 501.759 2.92453C258.439 -20.8632 37.899 150.489 4.23335 393.204C1.41108 412.96 0 432.514 0 451.867V455.092C0 442.997 0.604747 430.901 1.6127 418.604C1.6127 417.596 1.81424 416.588 1.81424 415.58C2.41901 408.525 3.2254 401.469 4.23335 394.413C8.06357 366.795 14.3129 339.984 22.7797 314.382C23.1829 313.374 23.3845 312.567 23.7877 311.56C34.6735 279.507 48.7849 249.066 66.1217 220.844C66.5248 220.037 67.1296 219.231 67.5328 218.425C84.8696 190.202 105.23 164.398 128.01 140.812C128.615 140.208 129.219 139.401 130.026 138.796C153.007 115.412 178.206 94.6482 205.622 76.505C206.429 75.9003 207.235 75.4971 208.041 74.8923C235.458 57.1524 264.89 42.033 295.733 30.3408C296.539 29.9376 297.548 29.736 298.354 29.3328C329.197 17.8422 361.653 9.57701 394.916 4.94043C395.924 4.73884 396.73 4.73881 397.738 4.53722C430.194 0.303824 463.658 -0.704079 497.525 2.31978C497.525 2.52137 497.727 2.92448 498.13 3.12607C465.069 1.51334 432.613 3.5293 400.762 8.97224C399.754 9.17383 398.947 9.37545 397.94 9.37545C365.483 15.2216 333.834 24.6963 303.595 37.1949C302.789 37.5981 301.781 38.0013 300.975 38.2029C270.938 50.9031 242.11 66.8287 215.5 85.5766C214.694 86.1814 213.887 86.5845 213.283 87.1893C186.673 106.139 161.877 127.709 139.501 151.9C138.896 152.505 138.291 153.311 137.686 153.916C115.511 178.107 95.5538 204.717 78.4186 233.342C78.0154 234.149 77.4107 234.955 77.0075 235.762C60.0739 264.589 46.1642 295.231 35.4799 327.485C35.0767 328.493 34.8751 329.299 34.6735 330.307C26.4083 356.111 20.159 382.923 16.3288 410.54C15.3208 417.596 14.5144 424.652 13.9097 431.707C13.9097 432.715 13.7081 433.723 13.7081 434.731C10.6843 469.203 11.6922 503.07 16.1272 535.728C16.3288 536.736 16.3287 537.543 16.5303 538.55C21.1669 571.208 29.4322 602.656 40.9228 632.693C41.326 633.5 41.5276 634.306 41.9308 635.314C53.623 665.149 68.3391 693.372 85.8775 719.579C86.2807 720.385 86.8855 720.99 87.2887 721.796C105.029 747.801 125.591 771.992 148.572 793.361C149.177 793.966 149.983 794.57 150.588 795.175C153.612 797.997 156.837 800.82 160.063 803.642C157.039 801.021 154.015 798.401 150.991 795.578C150.386 794.974 149.782 794.369 148.975 793.764C125.994 772.395 105.432 748.406 87.6919 722.199C87.2887 721.393 86.6839 720.788 86.2807 719.982C68.7423 693.775 54.0262 665.552 42.334 635.717C41.9308 634.911 41.7292 634.104 41.326 633.096C29.8354 603.059 21.7718 571.611 17.1352 538.954C16.9336 537.946 16.9336 537.139 16.732 536.131C12.297 503.474 11.289 469.606 14.3129 435.134C14.3129 434.126 14.5144 433.119 14.5144 432.111C15.1192 425.055 15.9256 417.999 16.9335 410.944C20.7637 383.326 27.0131 356.514 35.2783 330.711C35.6815 329.703 35.8831 328.896 36.2863 327.888C46.9706 295.634 60.8803 264.791 77.8139 236.165C78.2171 235.358 78.8219 234.552 79.225 233.746C96.1586 205.12 116.116 178.51 138.291 154.319C138.896 153.714 139.501 152.908 140.105 152.303C162.482 128.112 187.277 106.542 213.887 87.5925C214.694 86.9877 215.5 86.5846 216.105 85.9798C242.916 67.2319 271.542 51.3062 301.579 38.4044C302.386 38.0012 303.192 37.598 304.2 37.3965C334.237 24.6962 365.887 15.4232 398.343 9.37545C399.351 9.17385 400.157 8.97224 401.165 8.97224C432.815 3.5293 465.271 1.3118 498.332 2.92453C498.735 3.32771 499.34 3.5293 499.944 3.93248C469.504 3.73089 439.467 7.35947 410.237 14.2135C409.43 14.4151 408.624 14.6167 407.616 14.8183C377.579 22.0755 348.348 32.9615 320.529 46.8712C319.723 47.2744 318.916 47.6775 318.11 48.0807C290.29 62.1921 263.68 79.3273 238.683 99.0832C237.877 99.688 237.272 100.293 236.466 100.696C211.67 120.653 188.689 143.433 167.723 168.229C167.118 169.035 166.514 169.64 165.909 170.446C145.145 195.443 126.599 222.86 110.472 252.09C110.068 252.897 109.464 253.703 109.06 254.711C93.1348 283.942 80.0314 315.188 69.7503 347.846C69.5487 348.854 69.1454 349.66 68.9438 350.668C61.0818 376.673 55.0341 403.686 51.2039 431.304C50.196 438.36 49.3896 445.416 48.7848 452.471C48.7848 453.479 48.5833 454.487 48.5833 455.495C45.5594 489.967 45.9625 523.431 49.7927 555.686C49.9943 556.694 49.9944 557.5 50.196 558.508C54.2278 590.762 61.4851 621.807 71.5646 651.038C71.7662 651.844 72.1693 652.651 72.3709 653.457C82.652 682.688 95.9571 710.104 111.883 735.303C112.286 736.109 112.891 736.714 113.294 737.52C129.421 762.719 147.967 785.499 169.134 805.859C169.739 806.464 170.344 807.069 170.949 807.674C192.116 827.833 215.5 845.371 240.699 859.684C241.505 860.087 242.11 860.49 242.917 860.894C249.166 864.321 255.415 867.546 261.866 870.772L263.882 871.78C256.826 868.554 250.174 864.925 243.32 861.297C242.513 860.894 241.909 860.491 241.102 860.087C215.903 845.774 192.519 828.236 171.553 808.077C170.949 807.472 170.344 806.867 169.739 806.263C148.774 786.104 130.227 763.122 114.302 738.125C113.899 737.319 113.294 736.714 112.891 735.907C96.965 710.709 83.8616 683.292 73.3789 654.263C73.1773 653.457 72.7742 652.651 72.5726 651.844C62.493 622.614 55.2357 591.77 51.2039 559.516C51.0023 558.508 51.0023 557.702 50.8007 556.694C46.9705 524.439 46.5673 490.773 49.5912 456.503C49.5912 455.495 49.7927 454.487 49.7927 453.479C50.3975 446.424 51.2039 439.368 52.2119 432.312C56.0421 404.694 62.0898 377.681 69.9518 351.676C70.1534 350.668 70.5566 349.862 70.7582 348.854C80.8377 316.196 94.1428 285.151 109.867 255.719C110.27 254.913 110.673 254.106 111.278 253.098C127.203 223.868 145.75 196.451 166.514 171.454C167.118 170.648 167.723 170.043 168.328 169.237C189.092 144.239 212.275 121.46 236.869 101.502C237.675 100.897 238.28 100.293 239.086 99.8895C263.882 79.932 290.492 62.7969 318.311 48.6856C319.118 48.2824 319.924 47.8792 320.73 47.476C348.55 33.5662 377.78 22.6804 407.616 15.4232C408.422 15.2216 409.229 15.0199 410.237 14.8183C439.467 7.96421 469.303 4.33568 499.743 4.33568C499.944 4.53727 500.146 4.53717 500.549 4.73877C501.154 4.94036 501.759 5.142 502.565 5.54518C476.56 7.1579 450.555 12.1977 425.356 20.6645C424.55 20.8661 423.945 21.0677 423.138 21.4709C397.133 30.3409 371.934 42.6378 347.744 57.9587C347.139 58.3619 346.332 58.7651 345.728 59.3699C321.537 74.8923 298.354 93.237 276.582 114.404C275.977 115.009 275.373 115.614 274.768 116.218C252.996 137.385 232.837 161.173 214.492 186.977C213.887 187.783 213.484 188.388 212.88 189.194C194.535 215.199 178.004 243.422 163.691 273.257C163.288 274.064 162.885 275.072 162.482 275.878C148.371 305.915 136.275 337.565 127.002 370.424C126.8 371.432 126.397 372.238 126.196 373.246C118.938 399.453 113.092 426.668 109.464 454.286C108.456 461.341 107.649 468.397 106.843 475.453C106.641 476.461 106.641 477.468 106.641 478.476C103.214 512.747 103.013 546.009 105.633 577.861C105.633 578.869 105.835 579.675 105.835 580.481C108.657 612.333 114.302 642.571 122.365 670.995C122.567 671.802 122.769 672.608 122.97 673.414C131.235 701.839 142.121 728.247 155.426 752.438C155.829 753.043 156.233 753.849 156.636 754.454C169.941 778.443 185.463 800.215 203.203 819.164C203.606 819.769 204.211 820.172 204.614 820.777C222.354 839.525 242.11 855.652 263.479 868.554C264.083 868.957 264.688 869.36 265.293 869.562C279.404 877.827 294.121 884.681 309.441 890.326C294.322 884.883 279.808 878.029 265.898 869.965C265.293 869.562 264.688 869.159 264.084 868.957C242.715 856.055 223.161 839.928 205.421 821.18C205.017 820.575 204.413 820.172 204.009 819.568C186.471 800.618 170.949 778.846 157.845 754.857C157.442 754.252 157.039 753.446 156.636 752.841C143.532 728.65 132.646 702.242 124.381 673.818C124.18 673.011 123.978 672.205 123.776 671.398C115.713 642.974 110.068 612.534 107.448 580.884C107.448 579.877 107.246 579.07 107.246 578.062C104.625 546.211 104.827 512.948 108.254 478.678C108.254 477.67 108.456 476.662 108.456 475.654C109.262 468.599 110.068 461.543 111.076 454.487C114.907 426.869 120.551 399.856 127.808 373.448C128.01 372.44 128.413 371.633 128.615 370.625C137.888 337.766 149.782 306.117 163.893 276.08C164.296 275.273 164.699 274.265 165.103 273.459C179.415 243.624 195.744 215.401 214.089 189.396C214.694 188.589 215.097 187.985 215.702 187.178C234.047 161.173 254.206 137.385 275.776 116.218C276.381 115.614 276.985 115.009 277.59 114.404C299.16 93.237 322.343 74.8923 346.332 59.3699C346.937 58.9667 347.744 58.5635 348.348 57.9587C372.539 42.6378 397.738 30.3409 423.34 21.4709C424.146 21.2693 424.751 20.8661 425.557 20.6645C450.756 12.1977 476.358 6.95636 502.363 5.34364C503.371 5.74682 504.581 5.94841 505.79 6.35159C485.228 9.37545 464.666 16.2295 444.507 26.1074C443.902 26.309 443.297 26.7121 442.693 26.9137C422.13 37.3964 401.77 51.1046 382.216 67.635C381.611 68.0382 381.006 68.643 380.603 69.0462C361.049 85.7782 342.301 105.534 324.561 127.911C323.956 128.515 323.553 129.12 322.948 129.725C305.208 152.101 288.678 176.897 273.357 203.709C272.953 204.515 272.55 205.321 272.147 205.926C257.028 232.939 243.118 261.767 231.023 292.207C230.619 293.013 230.418 294.021 230.015 294.828C217.919 325.469 207.638 357.522 199.373 390.785C199.171 391.792 198.97 392.599 198.567 393.607C192.116 420.015 186.673 447.23 183.044 474.848C182.036 481.903 181.23 488.959 180.423 496.015C180.222 497.023 180.222 498.031 180.02 499.039C176.392 533.309 175.182 566.37 176.392 597.616C176.392 598.423 176.392 599.431 176.392 600.237C177.601 631.484 181.23 661.319 186.673 688.937C186.874 689.743 187.076 690.55 187.076 691.356C192.72 718.974 200.583 744.576 210.259 767.759C210.46 768.364 210.864 769.17 211.065 769.775C220.741 792.756 232.434 813.318 245.739 831.058C246.142 831.663 246.545 832.066 246.948 832.671C260.253 850.209 275.373 864.925 291.903 876.416C292.306 876.819 292.911 877.021 293.314 877.424C308.635 887.705 324.964 895.366 342.502 900.002L343.107 900.204C325.569 895.769 309.24 888.108 294.12 877.626C293.717 877.222 293.112 877.021 292.709 876.618C276.38 865.127 261.463 850.411 248.158 832.873C247.755 832.469 247.352 831.865 246.948 831.461C233.845 813.721 222.354 793.159 212.678 770.178C212.476 769.573 212.073 768.767 211.872 768.162C202.397 744.979 194.535 719.377 188.89 691.961C188.689 691.154 188.487 690.348 188.487 689.542C183.044 661.924 179.415 632.088 178.206 600.842C178.206 600.036 178.206 599.028 178.206 598.221C177.198 566.773 178.408 533.712 182.036 499.643C182.238 498.635 182.238 497.628 182.439 496.62C183.246 489.564 184.052 482.508 185.06 475.453C188.89 447.835 194.132 420.62 200.583 394.212C200.784 393.204 200.986 392.397 201.389 391.389C209.654 358.127 219.935 326.074 232.031 295.432C232.434 294.626 232.635 293.618 233.039 292.812C245.134 262.371 258.842 233.342 273.961 206.329C274.365 205.523 274.768 204.717 275.171 204.112C290.29 177.3 306.821 152.505 324.359 130.128C324.762 129.523 325.367 128.919 325.77 128.314C343.309 106.139 362.056 86.383 381.409 69.4494C382.014 69.0462 382.417 68.4414 383.022 68.0382C402.375 51.3062 422.534 37.5981 443.096 27.1154C443.701 26.9138 444.305 26.5106 444.91 26.309C464.868 16.431 485.228 9.57704 505.589 6.35159C506.798 6.75477 508.21 6.95636 509.621 7.35954C495.509 11.9961 481.196 20.0597 467.085 31.3487C466.682 31.7519 466.279 31.9535 465.876 32.3567C451.361 44.2505 437.048 59.1682 422.937 77.1098C422.534 77.7146 422.13 78.1177 421.727 78.7225C407.616 96.8656 394.109 117.831 381.006 141.014C380.603 141.619 380.2 142.425 379.796 143.03C366.693 166.414 354.396 192.218 342.704 219.836C342.301 220.642 342.099 221.449 341.696 222.255C330.205 250.074 319.521 279.708 309.844 310.753C309.643 311.56 309.24 312.568 309.038 313.374C299.563 344.62 291.097 377.076 283.839 410.54C283.638 411.548 283.436 412.556 283.235 413.363C277.59 439.973 272.752 467.389 268.922 495.007C267.914 502.062 267.107 509.118 266.099 516.174C265.898 517.182 265.898 518.19 265.696 518.996C261.664 553.065 259.447 585.924 258.842 616.969C258.842 617.775 258.842 618.783 258.842 619.59C258.237 650.433 259.447 679.664 262.068 706.677C262.068 707.483 262.269 708.29 262.269 708.894C264.89 735.706 269.123 760.502 274.768 782.677C274.969 783.281 275.171 783.886 275.171 784.491C280.816 806.464 287.871 826.018 296.136 842.75C296.338 843.154 296.54 843.758 296.943 844.162C305.208 860.49 314.884 873.997 325.569 884.278C325.972 884.48 326.173 884.883 326.577 885.084C337.462 894.962 349.356 901.615 362.258 904.639C362.46 904.639 362.863 904.84 363.064 904.84L363.669 905.042C363.266 905.042 363.064 904.84 362.661 904.84C349.961 902.018 338.067 895.366 327.383 885.488C327.181 885.286 326.778 884.883 326.577 884.681C316.094 874.602 306.619 861.095 298.354 844.766C298.152 844.363 297.951 843.758 297.749 843.355C289.685 826.825 282.831 807.271 277.187 785.297C276.985 784.692 276.784 784.088 276.784 783.483C271.341 761.308 267.309 736.512 264.688 709.701C264.688 708.894 264.487 708.088 264.487 707.483C262.068 680.47 261.06 651.24 261.463 620.396C261.463 619.59 261.463 618.582 261.463 617.776C262.068 586.731 264.487 554.073 268.317 519.802C268.518 518.795 268.518 517.787 268.72 516.98C269.526 509.925 270.534 502.869 271.542 495.813C275.372 468.195 280.211 440.779 285.654 414.169C285.855 413.161 286.057 412.153 286.258 411.347C293.314 377.883 301.781 345.225 311.256 314.18C311.457 313.374 311.86 312.366 312.062 311.56C321.537 280.515 332.221 250.881 343.712 223.061C344.115 222.255 344.317 221.449 344.72 220.642C356.21 193.024 368.507 167.221 381.409 143.635C381.812 143.03 382.215 142.224 382.417 141.619C395.319 118.234 408.825 97.2688 422.735 79.1257C423.138 78.5209 423.542 78.1178 423.945 77.513C437.854 59.5714 451.966 44.4522 466.48 32.5584C466.883 32.1552 467.287 31.9536 467.69 31.5504C481.6 20.2613 495.711 11.9961 509.621 7.35954C511.032 7.56113 512.645 7.96424 514.056 8.16583C507 14.012 499.541 23.4868 491.881 36.187C491.679 36.5901 491.477 36.9933 491.276 37.3965C483.414 50.4998 475.552 66.8287 467.488 85.7782C467.287 86.3829 467.085 86.7861 466.884 87.3909C458.82 106.542 450.756 128.515 442.894 152.908C442.693 153.513 442.491 154.319 442.289 154.924C434.427 179.316 426.565 205.926 419.107 234.35C418.905 235.157 418.703 235.963 418.502 236.769C411.043 265.395 403.786 295.634 396.932 327.284C396.73 328.292 396.528 329.098 396.327 330.106C389.473 361.756 383.022 394.615 377.377 428.482C377.176 429.49 376.974 430.498 376.974 431.304C372.338 458.116 368.104 485.532 364.274 513.15C363.266 520.206 362.258 527.261 361.452 534.317C361.25 535.325 361.25 536.333 361.048 537.139C356.613 571.208 353.187 603.664 350.767 634.508C350.767 635.314 350.566 636.322 350.566 637.128C348.147 667.77 346.534 696.396 345.728 722.804C345.728 723.61 345.728 724.215 345.728 725.022C345.123 751.228 345.324 775.218 346.332 796.586C346.332 797.191 346.332 797.796 346.332 798.401C347.34 819.568 349.356 838.114 352.178 853.636C352.178 854.04 352.38 854.443 352.38 855.047C355.202 870.368 358.831 882.867 363.266 891.737C363.468 891.938 363.468 892.342 363.669 892.543C368.104 901.212 373.345 906.655 379.393 908.267C379.595 908.267 379.796 908.267 379.998 908.469C380.2 908.469 380.603 908.671 380.804 908.671H381.208C381.006 908.671 380.804 908.671 380.401 908.469C380.2 908.469 379.998 908.469 379.998 908.267C374.152 906.655 369.112 901.413 364.879 892.745C364.677 892.543 364.677 892.342 364.476 891.939C360.242 883.069 356.815 870.771 354.194 855.451C354.194 855.047 353.993 854.644 353.993 854.04C351.372 838.517 349.558 819.971 348.55 798.804C348.55 798.199 348.55 797.594 348.55 796.989C347.542 775.621 347.542 751.632 348.348 725.425C348.348 724.618 348.348 724.014 348.348 723.207C349.155 696.799 350.767 668.173 353.388 637.531C353.388 636.725 353.59 635.717 353.59 634.911C356.21 604.269 359.637 571.611 364.072 537.543C364.274 536.535 364.274 535.527 364.476 534.72C365.282 527.665 366.29 520.609 367.298 513.553C371.128 485.935 375.361 458.519 379.998 431.707C380.2 430.7 380.401 429.692 380.401 428.885C386.247 395.22 392.497 362.159 399.351 330.509C399.552 329.501 399.754 328.695 399.955 327.687C406.81 296.037 413.865 265.799 421.324 237.173C421.526 236.366 421.727 235.56 421.929 234.754C429.388 206.329 437.048 179.719 444.709 155.125C444.91 154.521 445.112 153.714 445.313 153.109C453.175 128.919 461.037 106.744 468.899 87.5925C469.101 86.9877 469.303 86.5846 469.504 85.9798C477.366 66.8287 485.027 50.4998 492.687 37.3965C492.889 36.9933 493.09 36.5901 493.292 36.187C500.751 23.6883 507.806 14.012 514.862 8.16583C516.475 8.36742 518.087 8.56906 519.499 8.97224C519.902 16.0279 519.499 26.5106 518.894 40.2188C518.894 40.6219 518.894 41.0251 518.894 41.4283C518.087 55.5396 516.878 72.8764 515.265 93.0355C515.265 93.6403 515.265 94.245 515.064 94.8497C513.451 115.009 511.233 137.99 508.613 162.987C508.613 163.794 508.411 164.398 508.411 165.205C505.79 190.404 502.968 217.82 499.541 246.849C499.541 247.655 499.34 248.462 499.34 249.268C496.114 278.499 492.486 309.342 488.454 341.395C488.252 342.403 488.252 343.209 488.051 344.217C484.019 376.27 479.987 409.532 475.35 443.601C475.149 444.609 475.149 445.617 474.947 446.625C471.318 473.638 467.69 501.055 463.86 528.874C462.852 535.93 461.844 542.985 460.836 550.041C460.634 551.049 460.634 552.057 460.433 552.863C455.594 586.932 450.958 619.187 446.321 649.627C446.12 650.433 446.12 651.441 445.918 652.247C441.281 682.486 437.048 710.709 432.815 736.714C432.613 737.52 432.613 738.125 432.412 738.931C428.178 764.735 424.348 788.12 420.518 808.682C420.316 809.286 420.316 809.891 420.114 810.496C416.486 831.058 413.059 848.798 410.035 863.514C410.035 863.917 409.833 864.321 409.833 864.724C406.81 879.238 404.189 890.527 401.971 898.591C401.971 898.793 401.77 898.994 401.77 899.196C399.552 906.856 397.738 911.291 396.327 911.694C396.327 911.694 396.327 911.694 396.125 911.694H395.924H396.327H396.528C396.528 911.694 396.528 911.694 396.73 911.694C398.343 911.291 400.359 907.058 402.778 899.196C402.778 898.994 402.979 898.793 402.979 898.591C405.398 890.729 408.221 879.238 411.446 864.925C411.446 864.522 411.648 864.119 411.648 863.716C414.873 849 418.3 831.26 422.13 810.899C422.332 810.294 422.332 809.69 422.534 809.085C426.364 788.523 430.396 765.138 434.629 739.335C434.831 738.528 434.831 737.924 435.032 737.117C439.266 711.314 443.701 683.091 448.337 652.852C448.539 652.046 448.539 651.038 448.74 650.232C453.377 619.791 458.014 587.537 462.852 553.468C463.053 552.46 463.053 551.452 463.255 550.646C464.263 543.59 465.271 536.736 466.279 529.479C470.109 501.861 473.738 474.445 477.366 447.23C477.568 446.222 477.568 445.214 477.769 444.206C482.204 410.339 486.438 376.875 490.268 344.822C490.47 343.814 490.47 343.008 490.671 342C494.501 309.947 498.13 279.103 501.154 249.873C501.154 249.067 501.355 248.26 501.355 247.454C504.581 218.425 507.403 191.008 509.822 165.81C509.822 165.003 510.024 164.399 510.024 163.592C512.443 138.393 514.459 115.614 515.87 95.4545C515.87 94.8497 515.87 94.245 516.072 93.6402C517.483 73.4812 518.692 56.1443 519.096 42.033C519.096 41.6298 519.096 41.2267 519.096 40.8235C519.499 27.1154 519.499 16.6327 519.096 9.57699C520.708 9.77858 522.321 9.98014 523.934 10.1817C531.796 18.0438 538.65 29.5344 545.101 43.8474C545.302 44.2506 545.504 44.6537 545.705 45.0569C552.156 59.9746 557.599 78.1177 562.437 98.8815C562.639 99.4863 562.639 100.091 562.841 100.696C567.477 121.661 571.307 145.247 574.13 170.849C574.13 171.656 574.331 172.26 574.331 173.067C577.154 198.87 579.169 226.892 580.177 256.525C580.177 257.332 580.177 258.138 580.177 259.146C581.185 288.78 581.185 320.026 580.177 352.482C580.177 353.49 580.177 354.297 580.177 355.305C579.169 387.761 577.153 421.225 573.928 455.293C573.928 456.301 573.726 457.309 573.726 458.317C571.307 485.532 568.082 512.948 564.252 540.768C563.244 547.824 562.236 554.879 561.228 561.935C561.026 562.943 561.026 563.951 560.825 564.757C555.583 598.624 549.737 630.879 543.085 661.117C542.883 661.924 542.682 662.932 542.48 663.738C535.827 693.775 528.57 721.595 520.91 747.197C520.708 748.003 520.507 748.608 520.305 749.414C512.645 774.815 504.379 797.594 495.913 817.753C495.711 818.358 495.509 818.963 495.106 819.366C486.639 839.323 477.971 856.459 469.101 870.368C468.899 870.772 468.496 871.175 468.295 871.578C459.425 885.488 450.353 895.97 441.483 903.228C441.282 903.429 440.878 903.631 440.677 903.832C431.807 910.888 422.735 914.315 414.067 913.912C413.865 913.912 413.664 913.912 413.26 913.912C413.059 913.912 412.656 913.912 412.454 913.912H412.857C413.059 913.912 413.26 913.912 413.664 913.912C413.865 913.912 414.268 913.912 414.47 913.912C423.34 914.315 432.412 910.888 441.685 903.832C441.886 903.631 442.29 903.429 442.491 903.228C451.563 896.172 460.836 885.488 469.907 871.578C470.109 871.175 470.512 870.772 470.714 870.368C479.785 856.459 488.655 839.323 497.324 819.366C497.525 818.761 497.727 818.156 498.13 817.753C506.798 797.594 515.064 774.815 522.724 749.414C522.926 748.608 523.127 748.003 523.329 747.197C531.191 721.796 538.448 693.775 545.101 663.738C545.302 662.932 545.504 662.125 545.705 661.117C552.358 631.081 558.406 598.826 563.445 564.757C563.647 563.749 563.647 562.741 563.849 561.935C564.856 554.879 565.864 548.025 566.872 540.768C570.703 513.15 573.726 485.532 576.347 458.317C576.347 457.309 576.549 456.301 576.549 455.293C579.573 421.225 581.589 387.559 582.596 355.305C582.596 354.297 582.596 353.49 582.596 352.482C583.403 320.026 583.403 288.78 582.395 259.146C582.395 258.34 582.395 257.533 582.395 256.525C581.185 226.892 579.169 198.87 576.146 173.067C576.146 172.26 575.944 171.656 575.944 170.849C572.92 145.046 568.888 121.46 564.05 100.494C563.849 99.8895 563.849 99.2848 563.647 98.68C558.809 77.9162 552.963 59.7731 546.31 44.6538C546.109 44.2506 545.907 43.8473 545.705 43.4442C539.254 28.9296 531.997 17.6406 523.934 9.57699C525.546 9.77858 526.957 9.7786 528.57 9.98019C543.689 18.447 557.599 30.3408 570.703 45.2585C571.106 45.6617 571.509 46.0649 571.912 46.6697C585.217 62.1922 597.313 80.7385 608.4 102.107C608.803 102.712 609.005 103.317 609.408 103.921C620.294 125.29 629.769 149.279 638.034 175.486C638.235 176.292 638.437 176.897 638.639 177.703C646.702 203.91 653.355 232.334 658.596 262.17C658.798 262.976 658.798 263.783 658.999 264.79C664.039 294.827 667.668 326.276 669.482 358.933C669.482 359.941 669.683 360.748 669.683 361.756C671.498 394.413 671.498 428.079 669.885 462.349C669.885 463.357 669.683 464.365 669.683 465.373C668.272 492.588 665.652 520.206 661.822 547.824C660.814 554.879 659.806 561.935 658.596 568.991C658.394 569.999 658.193 571.007 658.193 571.813C652.548 605.68 645.493 637.935 636.824 667.77C636.623 668.576 636.421 669.383 636.018 670.391C627.35 700.226 617.472 727.844 606.384 753.244C605.981 754.051 605.779 754.655 605.376 755.462C594.289 780.459 581.992 803.037 568.888 822.793C568.485 823.398 568.082 824.003 567.679 824.406C554.575 843.96 540.666 860.692 526.151 874.199C525.748 874.602 525.345 875.005 524.942 875.408C510.427 888.713 495.308 898.994 479.785 905.647C479.382 905.848 478.979 906.05 478.374 906.251C463.053 912.702 447.531 915.525 431.807 914.718H432.412C448.337 915.525 464.061 912.702 479.382 906.251C479.785 906.05 480.189 905.848 480.793 905.647C496.517 898.994 511.838 888.915 526.554 875.408C526.957 875.005 527.361 874.602 527.764 874.199C542.48 860.692 556.591 843.96 569.695 824.406C570.098 823.801 570.501 823.196 570.904 822.793C584.008 803.037 596.506 780.459 607.594 755.462C607.997 754.655 608.198 754.051 608.602 753.244C619.689 728.046 629.769 700.428 638.437 670.592C638.639 669.786 638.84 668.979 639.243 667.971C647.912 637.934 654.967 605.882 660.612 572.014C660.813 571.006 661.015 569.998 661.015 569.192C662.225 562.338 663.233 555.282 664.241 548.025C668.071 520.407 670.691 492.789 672.103 465.575C672.103 464.567 672.103 463.559 672.304 462.551C673.917 428.28 673.917 394.615 672.103 361.957C672.103 360.949 671.901 360.143 671.901 359.135C669.885 326.477 666.257 295.029 661.217 264.992C661.015 264.186 661.015 263.379 660.814 262.371C655.572 232.536 648.718 204.112 640.453 177.905C640.251 177.099 640.05 176.494 639.647 175.688C631.381 149.481 621.503 125.492 610.617 104.123C610.214 103.518 610.013 102.913 609.61 102.309C598.522 81.1416 586.225 62.3937 572.719 46.8712C572.315 46.468 571.912 46.0648 571.509 45.4601C558.406 30.5424 544.093 18.6485 528.772 10.1817C529.175 10.1817 529.578 10.1817 529.981 10.1817C530.989 10.1817 531.997 10.1817 533.005 10.1817C554.575 18.8501 575.138 30.9455 594.087 46.0648C594.692 46.468 595.297 46.8712 595.7 47.476C615.254 63.2 633.397 81.948 649.928 103.317C650.331 103.921 650.936 104.526 651.339 105.131C667.869 126.701 682.585 150.892 695.487 177.099C695.89 177.905 696.294 178.51 696.495 179.316C709.397 205.725 720.283 234.149 729.354 264.186C729.556 264.992 729.959 265.798 730.161 266.806C739.031 296.843 745.683 328.493 750.118 361.151C750.32 362.159 750.32 362.965 750.521 363.973C754.755 396.631 756.771 430.498 756.367 464.768C756.367 465.776 756.367 466.784 756.367 467.792C755.763 495.007 753.747 522.625 749.917 550.243C748.909 557.298 747.901 564.354 746.691 571.41C746.49 572.418 746.288 573.426 746.288 574.232C740.442 608.099 732.177 640.152 721.694 670.189C721.492 670.995 721.089 671.802 720.888 672.81C710.405 702.645 697.906 730.263 683.795 755.26C683.392 756.067 682.989 756.671 682.585 757.478C668.272 782.475 652.347 804.851 635.212 824.607C634.808 825.212 634.204 825.817 633.8 826.22C616.464 845.573 597.716 862.305 578.161 875.61C577.557 876.013 576.952 876.416 576.549 876.819C556.793 890.124 536.029 900.002 514.66 906.453C514.056 906.655 513.451 906.856 512.846 907.058C496.719 911.694 480.39 914.517 463.658 915.121H464.666C481.196 914.517 497.727 911.694 513.653 907.058C514.257 906.856 514.862 906.655 515.467 906.453C537.037 900.002 557.801 889.923 577.758 876.819C578.363 876.416 578.968 876.013 579.371 875.61C599.127 862.305 617.875 845.573 635.413 826.22C635.816 825.615 636.421 825.212 636.824 824.607C654.161 805.053 670.288 782.475 684.601 757.478C685.004 756.671 685.408 756.067 685.811 755.26C700.124 730.061 712.622 702.444 723.105 672.81C723.307 672.003 723.71 671.197 723.911 670.189C734.193 640.354 742.659 608.099 748.505 574.232C748.707 573.224 748.909 572.216 748.909 571.41C750.118 564.556 751.126 557.5 752.134 550.243C755.964 522.625 757.98 495.007 758.585 467.792C758.585 466.784 758.585 465.776 758.585 464.768C758.988 430.498 756.972 396.832 752.537 363.973C752.336 362.965 752.336 362.159 752.134 361.151C747.699 328.493 740.845 296.843 731.975 266.806C731.773 266 731.37 264.992 731.169 264.186C722.097 234.149 711.01 205.725 698.108 179.316C697.705 178.51 697.301 177.905 696.898 177.099C683.795 150.892 668.877 126.701 652.347 105.131C651.944 104.526 651.339 103.921 650.936 103.317C634.204 81.948 615.859 62.9984 596.305 47.476C595.7 47.0728 595.095 46.6696 594.692 46.0648C575.339 30.9455 554.777 18.8501 533.005 10.1817C534.215 10.1817 535.424 10.1818 536.231 9.98019C563.042 18.447 588.644 30.5424 612.633 45.4601C613.238 45.8632 614.044 46.2665 614.649 46.8712C639.243 62.3937 662.023 81.1416 683.19 102.309C683.795 102.913 684.4 103.518 685.004 104.123C705.97 125.492 724.919 149.481 741.651 175.688C742.054 176.494 742.659 177.099 743.062 177.905C759.794 204.112 774.107 232.536 786.001 262.371C786.404 263.178 786.606 263.984 787.009 264.992C798.701 295.029 808.176 326.477 814.627 359.135C814.829 360.143 815.03 360.949 815.232 361.957C821.481 394.615 825.11 428.28 825.513 462.551C825.513 463.559 825.513 464.567 825.513 465.575C825.715 492.789 824.102 520.407 820.272 548.025C819.264 555.081 818.256 562.136 817.046 569.192C816.845 570.2 816.643 571.208 816.441 572.014C810.192 605.882 801.121 638.136 789.428 667.971C789.025 668.778 788.823 669.584 788.42 670.592C776.526 700.428 762.012 728.046 745.482 753.244C745.078 754.051 744.474 754.655 744.07 755.462C727.338 780.459 708.59 803.037 687.827 822.793C687.222 823.398 686.617 824.003 686.012 824.406C665.249 843.96 642.872 860.692 619.084 874.199C618.48 874.602 617.673 875.005 617.068 875.408C593.281 888.713 568.082 898.994 542.077 905.647C541.27 905.848 540.666 906.05 539.859 906.251C527.965 909.275 515.87 911.493 503.573 912.904L504.782 912.702C516.878 911.291 528.772 909.074 540.464 906.251C541.27 906.05 541.875 905.848 542.681 905.647C568.888 898.994 594.087 888.713 618.076 875.408C618.681 875.005 619.487 874.602 620.092 874.199C643.88 860.692 666.458 843.96 687.222 824.406C687.827 823.801 688.431 823.196 689.036 822.793C709.8 803.037 728.548 780.459 745.482 755.462C745.885 754.655 746.49 754.051 746.893 753.244C763.625 728.046 777.938 700.428 789.831 670.391C790.235 669.584 790.436 668.778 790.839 667.77C802.532 637.733 811.805 605.68 818.054 571.813C818.256 570.805 818.457 569.797 818.659 568.991C819.868 562.137 821.078 555.081 822.086 547.824C825.916 520.206 827.529 492.588 827.327 465.373C827.327 464.365 827.327 463.357 827.327 462.349C826.924 428.079 823.295 394.413 816.845 361.756C816.643 360.748 816.441 359.941 816.24 358.933C809.789 326.276 800.314 294.827 788.42 264.79C788.017 263.984 787.816 263.178 787.412 262.17C775.317 232.334 761.004 203.91 744.272 177.703C743.869 176.897 743.264 176.292 742.861 175.486C725.927 149.279 706.978 125.29 686.012 103.921C685.408 103.317 684.803 102.712 684.198 102.107C663.031 80.9401 640.05 62.1922 615.456 46.6697C614.851 46.2665 614.045 45.8633 613.44 45.2585C589.249 30.3408 563.647 18.447 536.835 9.98019C537.843 9.98019 538.65 9.77858 539.255 9.57699C569.896 17.6406 598.925 28.9296 626.543 43.4442C627.35 43.8473 628.156 44.2506 628.962 44.6538C657.185 59.7731 683.392 77.9162 707.583 98.68C708.187 99.2848 708.994 99.8895 709.598 100.494C733.789 121.46 755.561 145.046 775.115 170.849C775.72 171.656 776.123 172.26 776.728 173.067C796.081 198.87 813.014 226.892 827.126 256.525C827.529 257.332 827.932 258.138 828.335 259.146C842.245 288.78 853.332 320.228 861.396 352.482C861.598 353.49 861.799 354.297 862.001 355.305C869.863 387.761 874.499 421.225 875.507 455.495C875.507 456.503 875.507 457.511 875.507 458.519C876.314 485.734 874.903 513.15 871.072 540.969C870.064 548.025 869.057 555.081 867.646 562.136C867.444 563.144 867.242 564.152 867.041 564.959C860.59 598.826 850.913 631.08 838.012 661.319C837.608 662.125 837.205 663.133 837.004 663.94C824.102 693.977 808.176 721.796 789.831 747.197C789.227 748.003 788.824 748.608 788.219 749.414C769.672 774.815 748.707 797.594 725.726 817.552C725.121 818.156 724.315 818.761 723.71 819.164C700.527 839.122 675.53 856.257 648.718 870.167C647.912 870.57 647.105 870.973 646.501 871.376C623.116 883.27 598.724 892.947 573.323 900.002C598.925 892.947 623.519 883.472 647.105 871.376C647.912 870.973 648.718 870.57 649.323 870.167C676.134 856.257 701.333 839.122 724.516 819.164C725.121 818.56 725.927 817.955 726.532 817.552C749.513 797.393 770.68 774.613 789.025 749.213C789.63 748.406 790.033 747.801 790.638 746.995C808.983 721.595 824.908 693.573 837.81 663.738C838.213 662.932 838.616 662.125 838.818 661.117C851.518 631.081 861.396 598.826 867.847 564.757C868.049 563.749 868.25 562.741 868.452 561.935C869.661 554.879 870.871 548.025 871.879 540.768C875.709 513.15 877.12 485.532 876.314 458.317C876.314 457.309 876.314 456.301 876.314 455.293C875.104 421.225 870.468 387.559 862.606 355.103C862.404 354.095 862.202 353.289 862.001 352.281C853.937 319.825 842.85 288.578 828.94 258.944C828.537 258.138 828.134 257.332 827.73 256.324C813.619 226.69 796.686 198.669 777.333 172.865C776.728 172.059 776.325 171.454 775.72 170.648C756.166 144.844 734.192 121.258 710.002 100.293C709.397 99.6879 708.59 99.0831 707.986 98.4783C683.795 77.7145 657.386 59.5714 629.164 44.4521C628.357 44.0489 627.551 43.6458 626.745 43.2426C599.127 28.7281 569.896 17.4391 539.255 9.37545C539.859 9.17385 540.262 8.97217 540.666 8.77058C573.525 15.8262 604.771 26.5106 634.405 40.2188C635.212 40.6219 636.22 41.0251 637.026 41.4283C667.265 55.7412 695.689 73.078 721.694 93.237C722.5 93.8418 723.105 94.4466 723.911 95.0514C749.917 115.412 773.704 138.192 794.871 163.391C795.476 164.197 796.081 164.802 796.685 165.608C817.651 190.807 835.996 218.425 851.316 247.454C851.72 248.26 852.123 249.067 852.526 249.873C867.646 279.103 879.943 309.947 888.812 342C889.014 343.008 889.417 343.814 889.619 344.822C898.287 376.875 903.529 410.339 905.141 444.206C905.141 445.214 905.141 446.222 905.343 447.23C906.351 474.243 905.141 501.861 901.311 529.479C900.303 536.535 899.094 543.59 897.884 550.646C897.682 551.654 897.481 552.662 897.279 553.468C890.828 587.537 880.547 619.791 867.242 650.232C866.839 651.038 866.436 652.046 866.033 652.852C852.526 683.091 835.794 711.314 816.441 737.117C815.837 737.924 815.433 738.528 814.829 739.335C795.274 764.937 773.099 788.321 748.707 808.883C748.102 809.488 747.296 810.093 746.691 810.698C741.248 815.133 735.805 819.568 730.161 823.801C735.805 819.568 741.45 815.133 747.094 810.496C747.699 809.891 748.505 809.286 749.11 808.682C773.503 788.12 795.879 764.735 815.434 739.133C816.038 738.327 816.643 737.722 817.046 736.915C836.399 711.112 853.131 682.889 866.638 652.651C867.041 651.844 867.444 650.836 867.847 650.03C881.152 619.59 891.433 587.335 897.884 553.267C898.086 552.259 898.287 551.251 898.489 550.444C899.698 543.389 900.908 536.535 901.916 529.277C905.746 501.659 906.956 474.243 905.948 447.028C905.948 446.02 905.947 445.012 905.746 444.004C904.738 410.339 899.497 377.076 890.828 344.822Z" fill="white"/>
<path d="M730.765 823.801C730.765 824.003 730.564 824.003 730.765 823.801C730.564 824.003 730.765 824.003 730.765 823.801Z" fill="white"/>
<path d="M730.564 824.002C728.145 825.817 725.524 827.833 722.903 829.647C725.524 827.631 728.145 825.817 730.564 824.002Z" fill="white"/>
<path d="M720.082 831.662C720.686 831.259 721.09 830.856 721.694 830.453C719.074 832.267 716.252 834.283 713.631 836.097L720.082 831.662Z" fill="white"/>
<path d="M723.104 829.647C722.701 830.05 722.097 830.252 721.693 830.655C722.097 830.252 722.5 829.849 723.104 829.647Z" fill="white"/>
<path d="M907.157 370.626L911.794 400.461C910.584 390.382 908.972 380.504 907.157 370.626Z" fill="white"/>
<path d="M905.746 362.763L906.553 366.392C906.149 365.182 905.948 363.973 905.746 362.763Z" fill="white"/>
<path d="M906.955 369.214L906.351 366.392C906.552 367.803 906.955 369.214 907.157 370.625L906.955 369.214Z" fill="white"/>
</svg>
