<svg width="43" height="38" fill="none" xmlns="http://www.w3.org/2000/svg"><path d="M36.69 16.773l-1.476 1.252-.462-.541" stroke="#4998FF" stroke-width=".5"/><rect x=".25" y=".96" width="41.594" height="3.377" rx="1.689" stroke="#4998FF" stroke-width=".5"/><rect x=".25" y="34.084" width="41.594" height="3.377" rx="1.689" stroke="#4998FF" stroke-width=".5"/><path d="M35.743 2.649c0 .322-.259.58-.576.58a.579.579 0 01-.577-.58.578.578 0 111.153 0zm2.216.004a.583.583 0 01-.581.585.582.582 0 01-.581-.585c0-.324.261-.585.58-.585.32 0 .581.26.581.585zm2.207-.004c0 .322-.26.58-.577.58a.579.579 0 01-.576-.58c0-.322.26-.58.576-.58.318 0 .577.258.577.58zm-23.55 9.693h21.047m-21.047 3.323h21.047m-21.047 3.323h21.047m-21.047 3.323h21.047m-21.047 3.323h21.047" stroke="#4998FF" stroke-width=".5"/><rect x=".25" y="6.499" width="10.577" height="25.532" rx="1.75" stroke="#4998FF" stroke-width=".5"/><rect x="12.989" y="6.499" width="28.855" height="25.532" rx="1.75" stroke="#4998FF" stroke-width=".5"/></svg>