<svg width="28" height="39" fill="none" xmlns="http://www.w3.org/2000/svg"><rect x=".25" y="1.21" width="27.108" height="36.645" rx="1.75" stroke="#4998FF" stroke-width=".5"/><circle cx="4.643" cy="5.603" r="2.385" stroke="#4998FF" stroke-width=".5"/><path d="M6.699 3.996c-.553.316-.92.606-2.056.606-1.135 0-1.502-.29-2.055-.606M2.587 7.21c.554-.315.92-.605 2.056-.605 1.135 0 1.502.29 2.055.606" stroke="#4998FF" stroke-width=".5"/><path d="M5.446 5.603c0 .704-.114 1.33-.29 1.77a1.556 1.556 0 01-.285.487c-.097.102-.174.129-.229.129-.055 0-.132-.027-.229-.13a1.556 1.556 0 01-.284-.485c-.176-.44-.291-1.067-.291-1.77 0-.705.115-1.33.29-1.771.09-.221.188-.383.285-.486.097-.102.174-.129.229-.129.055 0 .132.027.229.129.097.103.196.265.284.486.177.44.291 1.066.291 1.77zm-3.438-.249h5.27m2.762-.628h12.047M3.764 15.016h20.078M3.764 20.538h20.078M10.04 6.232h12.047M3.764 17.777h20.078M3.764 23.299h20.078M3.764 33.087h6.274" stroke="#4998FF" stroke-width=".5"/><circle cx="21.567" cy="31.061" r="1.991" stroke="#4998FF" stroke-width=".5"/><path d="M19.886 32.423v2.916a.5.5 0 00.803.397l.59-.45a.5.5 0 01.615.006l.52.413a.5.5 0 00.81-.392v-2.89" stroke="#4998FF" stroke-width=".5"/></svg>