<svg width="41" height="37" fill="none" xmlns="http://www.w3.org/2000/svg"><path d="M37.35 7.7v16.612a.5.5 0 00.041.2l1.06 2.435a.5.5 0 00.922-.014l.973-2.428a.5.5 0 00.036-.186V7.7m-3.032 0V5.13a.5.5 0 01.5-.5h2.032a.5.5 0 01.5.5V7.7m-3.032 0h3.032" stroke="#4998FF" stroke-width=".5"/><rect x="12.645" y="1.21" width="23.264" height="31.568" rx="1.75" stroke="#4998FF" stroke-width=".5"/><path stroke="#4998FF" stroke-width=".5" d="M14.253 29.491h8.664m6.187-26.486h5.446M29.104 4.06h5.446m-5.446 1.116h5.446M22.298 9.642h3.961m-12.006 2.42h20.051m-20.051 1.86h20.051m-20.051 1.861h20.051m-20.051 1.861h20.051m-20.051 1.861h20.051m-20.051 1.861h20.051m-20.051 1.86h20.051m-8.664 6.265h8.664M10.817 3.908H3a2 2 0 00-2 2v28.069a2 2 0 002 2h20.429c.737 0 1.335-.598 1.335-1.336v0M2.866 6.479h8.045M2.866 8.34h8.045M2.866 19.505h8.045M2.866 10.2h8.045M2.866 21.366h8.045m-8.045-9.304h8.045M2.866 23.227h8.045m-8.045-9.305h8.045M2.866 25.087h8.045m-8.045-9.304h8.045M2.866 26.948h8.045m-8.045-9.304h8.045M2.866 28.809h8.045M2.866 30.67h8.045m-8.045 1.861h8.045"/></svg>