<svg width="40" height="41" fill="none" xmlns="http://www.w3.org/2000/svg"><path d="M17.846 9.5h3.897c2.953.003 5.343 2.389 5.346 5.33v10.01a.5.5 0 01-.5.5h-1.491a1.5 1.5 0 00-1.5 1.5v12.609a.5.5 0 01-.5.5H16.41a.5.5 0 01-.5-.5v-12.61a1.5 1.5 0 00-1.5-1.5H13a.5.5 0 01-.5-.5V14.83c.003-2.94 2.394-5.326 5.346-5.329zm5.767-4.492a3.554 3.554 0 01-3.56 3.548 3.554 3.554 0 01-3.56-3.548 3.554 3.554 0 013.56-3.548c1.967 0 3.56 1.59 3.56 3.548zM8.245 17.64H5.347A4.345 4.345 0 001 21.974v7.187a1 1 0 001 1h1.536m9.055 0H9.995m-6.46 0v-2.74m0 2.74v7.006a1 1 0 001 1h2.381m3.08-10.745v2.739m0 0v7.006a1 1 0 01-1 1h-2.08m0 0v-8.006m2.399-15.893a2.514 2.514 0 01-2.518 2.51 2.514 2.514 0 01-2.519-2.51 2.514 2.514 0 012.519-2.51 2.514 2.514 0 012.518 2.51zM31.86 17.64h2.899a4.346 4.346 0 014.346 4.334v7.187a1 1 0 01-1 1H36.57m-9.056 0h2.596m6.46 0v-2.74m0 2.74v7.006a1 1 0 01-1 1h-2.381M30.11 27.422v2.739m0 0v7.006a1 1 0 001 1h2.079m0 0v-8.006M30.79 14.268a2.514 2.514 0 002.519 2.51 2.514 2.514 0 002.518-2.51 2.514 2.514 0 00-2.518-2.51 2.514 2.514 0 00-2.519 2.51z" stroke="#4998FF"/></svg>