<svg width="73" height="35" fill="none" xmlns="http://www.w3.org/2000/svg"><path d="M0 14h14V0L0 14z" fill="#D7E8FF"/><path fill="#2885FF" d="M33 14H19V0h14z"/><path d="M19 0v14L33 0H19z" fill="#D7E8FF"/><path fill="#2885FF" d="M14 33H0V19h14z"/><path d="M0 19v14l14-14H0z" fill="#D7E8FF"/><path d="M29.912 26.696c-.128 1.44-.63 2.565-1.504 3.376-.864.8-2.005 1.2-3.424 1.2-1.621 0-2.907-.533-3.856-1.6-.95-1.077-1.424-2.528-1.424-4.352 0-1.707.475-3.125 1.424-4.256.96-1.141 2.283-1.712 3.968-1.712 1.205 0 2.267.325 3.184.976.917.65 1.43 1.552 1.536 2.704h-1.504c-.17-.747-.544-1.328-1.12-1.744-.576-.427-1.285-.64-2.128-.64-1.27 0-2.23.448-2.88 1.344-.64.896-.96 2-.96 3.312 0 1.45.341 2.592 1.024 3.424.683.832 1.616 1.248 2.8 1.248.97 0 1.744-.277 2.32-.832.576-.565.923-1.381 1.04-2.448h1.504zm1.915-7.088h2.08l3.664 9.648 3.536-9.648h2.096V31h-1.424v-9.504L38.21 31h-1.312l-3.632-9.504V31h-1.44V19.608zm23.17 0l-4.8 4.576L55.187 31h-1.92l-4.128-5.792L47.252 27v4h-1.504V19.608h1.504v5.648l5.776-5.648h1.968zm7.951 10.16V31h-7.392c.032-.63.128-1.179.288-1.648.16-.47.406-.89.736-1.264.342-.384.672-.699.992-.944.32-.245.774-.55 1.36-.912.918-.576 1.52-1.008 1.808-1.296.598-.587.896-1.237.896-1.952 0-.63-.202-1.141-.608-1.536-.405-.405-.933-.608-1.584-.608-.778 0-1.338.272-1.68.816-.33.533-.506 1.21-.528 2.032H55.86v-.304c0-1.12.33-2.021.992-2.704.672-.683 1.558-1.024 2.656-1.024 1.078 0 1.936.299 2.576.896.64.597.96 1.397.96 2.4 0 .427-.074.832-.224 1.216a4.104 4.104 0 01-.48.944c-.17.256-.437.528-.8.816a13.13 13.13 0 01-.88.672c-.234.15-.57.357-1.008.624-.874.523-1.456.928-1.744 1.216-.405.405-.666.848-.784 1.328h5.824zm9.339-2.656v1.152H70.75V31h-1.28v-2.736h-4.976v-1.28l5.152-7.328h1.104v7.456h1.536zm-2.816 0v-5.456l-3.776 5.456h3.776z" fill="#4998FF"/></svg>