<svg width="915" height="916" fill="none" xmlns="http://www.w3.org/2000/svg"><path d="M423.541 913.912h1.008l5.645.403a192.052 192.052 0 01-14.515-1.209h-.806c3.024.201 5.846.605 8.668.806zm-64.307-9.676l5.04 1.008c-.201 0-.605-.202-.806-.202-1.613 0-3.024-.403-4.234-.806zm38.907 6.854c-.201 0-.201 0 0 0 5.443.806 10.886 1.411 16.531 2.016h.806c-5.846-.605-11.692-1.21-17.337-2.016zm-34.27-5.846c.403 0 .605.201 1.008.201l1.008.202c4.838 1.008 9.878 2.016 14.918 2.822-.202 0-.404 0-.605-.201a196.117 196.117 0 01-16.329-3.024zm16.732 3.225c.201 0 .403 0 .403.202a218.01 218.01 0 0016.53 2.419h.202c-5.846-.807-11.693-1.613-17.135-2.621zm110.875-2.621c-3.226-.201-6.25-.201-9.475-.403a9.804 9.804 0 01-1.411.605c3.225.202 6.249.403 9.475.403 8.466.403 16.53.605 23.787.605l1.815-.605c-7.459 0-15.523-.201-24.191-.605zm-47.777-3.225c-.202.201-.605.403-.806.604 12.498 1.21 24.795 2.218 36.689 2.823.403-.202.806-.404 1.411-.605-12.095-.605-24.594-1.613-37.294-2.822zm-79.629-10.685c-12.498-2.217-24.594-4.435-36.286-6.854l.807.807c11.49 2.419 23.586 4.636 35.681 6.652 0 0-.202-.403-.202-.605zm78.621 10.483c-12.7-1.209-25.602-2.62-38.302-4.435 0 .202-.202.403-.202.605 12.701 1.613 25.401 3.226 37.899 4.435 0-.201.202-.403.605-.605zm-208.042-45.559l2.823 1.612c1.612.807 3.427 1.815 5.443 2.621-.807-.403-1.412-.806-2.218-1.21-2.016-1.008-4.233-2.015-6.048-3.023zm12.902 5.846c-2.217-.807-4.233-1.814-6.249-2.621.806.403 1.411.806 2.217 1.21 1.815.806 3.83 1.814 6.048 2.62 4.838 2.016 10.079 3.83 15.724 5.645-.605-.403-1.21-.807-1.814-1.008a205.02 205.02 0 01-15.926-5.846zm155.628 35.076c-12.902-1.814-25.602-3.629-38.101-5.846.202.202.202.403.403.806 12.297 2.016 24.796 4.032 37.496 5.645 0 0 0-.202.202-.605zm156.838 5.646l3.023-.605c-5.241 1.209-11.49 2.016-19.151 2.62-.806.202-1.411.404-2.217.605 7.257-.605 13.305-1.411 18.345-2.62zm-295.734-34.674c.605.403 1.21.806 1.815 1.008 8.466 2.822 17.941 5.443 28.021 8.063-.404-.403-1.008-.604-1.412-1.008-10.281-2.419-19.755-5.241-28.424-8.063zm252.189 37.697l-1.814.605c9.878 0 18.748-.403 26.408-1.008.807-.202 1.412-.403 2.218-.605a347.657 347.657 0 01-26.812 1.008zm-222.756-29.23c.403.403 1.008.604 1.411 1.008 10.281 2.62 21.167 5.241 32.658 7.458-.404-.201-.605-.604-1.008-.806-11.693-2.419-22.78-5.04-33.061-7.66zm327.584-3.226c-.605.403-1.411.806-2.016 1.21 11.289-1.008 20.764-2.218 28.424-4.032.807-.403 1.613-.807 2.218-1.21-7.661 1.814-17.337 3.226-28.626 4.032zm-472.326-79.628c.604.605 1.411 1.209 2.015 1.814 4.435 3.629 11.088 7.459 19.958 11.491l-1.814-1.814c-8.87-3.831-15.523-7.661-20.159-11.491zm204.009 59.671c-18.547-3.226-36.69-6.653-54.228-10.281.201.403.403 1.008.605 1.411 17.336 3.628 35.278 7.055 53.623 10.079.201-.403 0-.806 0-1.209zm267.308 20.158c-11.49 1.008-24.795 1.412-39.915 1.412-.604.403-1.209.806-1.612 1.209 14.917 0 28.021-.403 39.511-1.411.605-.403 1.21-.806 2.016-1.21zm-473.334-81.442l2.218 2.016c.403.403 1.007.806 1.411 1.209-.605-.605-1.412-1.209-2.016-1.814-.605-.403-1.008-1.008-1.613-1.411zm150.387 50.599c-17.337-3.628-33.867-7.458-49.39-11.49.403.403.806 1.008 1.21 1.411 15.32 3.83 31.649 7.66 48.986 11.289-.403-.202-.605-.605-.806-1.21zm364.677 23.183l2.62-1.411c-3.628 1.815-8.265 3.427-14.111 4.637-.806.403-1.613.806-2.218 1.209 5.645-1.209 10.282-2.62 13.709-4.435zm-457.408-45.761c-.605-.604-1.008-1.008-1.411-1.612-8.669-2.823-16.732-5.847-23.989-8.669-3.226-1.411-6.451-2.621-9.274-4.032l1.815 1.815c2.822 1.209 5.846 2.62 9.071 3.83 7.257 2.822 15.12 5.846 23.788 8.668zm206.629 41.931c-19.151-2.621-38.101-5.443-56.848-8.668 0 .403.201.806.201 1.411 18.546 3.023 37.294 6.047 56.244 8.466.403-.201.403-.604.403-1.209zm-164.699-31.045c-15.321-4.032-29.634-8.064-42.334-12.297.403.604 1.008 1.008 1.411 1.612 12.7 4.234 26.812 8.266 42.132 12.096-.403-.403-.806-.807-1.209-1.411zm330.81 45.156c.605-.403 1.21-.806 1.613-1.209-11.087 0-23.183-.202-36.085-.807-4.636-.201-9.474-.403-14.111-.605l-1.21 1.21c4.637.202 9.475.403 14.112.605 12.902.403 24.795.605 35.681.806zm-107.246-7.257a1422.716 1422.716 0 01-57.252-6.653c0 .404-.202.807-.202 1.21 18.95 2.621 37.899 4.637 56.849 6.451.201-.202.403-.605.605-1.008zm57.252 4.434a1388.067 1388.067 0 01-55.437-4.233c-.202.403-.605.806-.807 1.209a1396.325 1396.325 0 0055.034 4.234l1.21-1.21zM79.426 713.732l1.612 2.42c1.412 2.015 3.63 4.233 6.25 6.652-.605-.806-1.008-1.411-1.411-2.217-3.024-2.621-5.04-4.839-6.451-6.855zm669.683 95.756l2.218-1.814c-.403.403-1.008.806-1.613 1.209-.605.605-1.411 1.21-2.016 1.815.403-.605 1.008-.807 1.411-1.21zm-637.025-73.782c-11.491-5.241-19.958-10.281-25.804-14.918.403.807 1.008 1.412 1.411 2.218 5.847 4.636 14.313 9.676 25.804 14.918-.403-.807-1.008-1.613-1.411-2.218zm458.014 86.885c-22.981-1.209-46.769-3.023-70.96-5.443-.201.605-.403 1.21-.806 1.613 23.989 2.218 47.777 4.234 70.557 5.443.403-.605.806-1.209 1.209-1.613zm-413.462-68.338c-.403-.605-.806-1.412-1.209-2.016-11.088-3.629-21.369-7.459-30.642-11.088-4.233-1.613-8.064-3.427-11.692-5.04.403.807 1.008 1.411 1.411 2.218 3.629 1.613 7.459 3.225 11.692 5.04 9.072 3.628 19.353 7.257 30.44 10.886zm570.903 62.895c-.604.605-1.411 1.21-2.016 1.613 9.677-2.217 16.934-5.04 21.571-8.064.604-.604 1.411-1.209 2.016-1.814-4.435 3.427-11.894 6.048-21.571 8.265zm-451.561-33.867c-22.175-4.636-43.342-9.474-63.098-14.514.201.605.605 1.411.806 2.016 19.555 5.04 40.722 9.878 62.695 14.514-.202-.604-.403-1.209-.403-2.016zm220.942 33.666c-24.19-2.419-48.785-5.241-73.177-8.467-.202.605-.202 1.21-.403 1.815a2373.007 2373.007 0 0072.774 8.467c.403-.807.605-1.412.806-1.815zm137.889 9.273c.403-.604 1.008-1.008 1.411-1.612-14.111 0-29.634-.403-46.164-1.008-6.048-.202-12.096-.605-18.143-.807-.404.605-.807 1.21-1.21 1.613 6.048.403 12.096.605 18.143.806 16.531.605 31.852 1.008 45.963 1.008zm-423.743-57.856c-19.756-5.04-37.899-10.281-54.228-15.724.403.604.806 1.411 1.209 2.016 16.329 5.241 34.472 10.482 54.027 15.522-.404-.605-.605-1.209-1.008-1.814zm477.769 54.227c-14.716 1.21-31.649 1.815-51.002 1.815-.403.604-1.008 1.209-1.411 1.612 19.151 0 36.085-.604 50.599-1.814.605-.403 1.21-1.008 1.814-1.613zm-267.108-14.515c-24.393-3.225-48.785-7.055-72.573-10.886v1.815c23.586 4.031 47.979 7.66 72.17 10.886.201-.605.201-1.21.403-1.815zm-74.589-11.288c-23.788-4.032-46.97-8.467-69.347-13.103.202.604.403 1.209.403 1.814 22.175 4.637 45.156 8.87 68.944 12.902v-1.613zm379.595 20.562c-9.878 2.218-22.175 4.032-36.689 5.241-.605.605-1.21 1.21-1.815 1.613 14.515-1.209 26.611-2.822 36.488-5.04.807-.604 1.412-1.209 2.016-1.814zM263.276 707.281c-26.005-5.443-50.801-11.087-73.782-17.135.202.807.403 1.613.403 2.419 22.982 5.846 47.777 11.693 73.581 16.934 0-.806-.202-1.613-.202-2.218zm483.214 45.964c-17.135 1.411-37.093 2.016-59.671 2.016-.403.806-.806 1.411-1.21 2.217 22.377 0 42.334-.806 59.47-2.016.403-.806.806-1.613 1.411-2.217zm-139.098-.203c-27.013-1.411-54.832-3.628-83.055-6.249-.201.806-.403 1.411-.605 2.217 28.223 2.621 56.043 4.839 82.854 6.25.202-.807.605-1.613.806-2.218zm76.403 4.435c.403-.806.807-1.411 1.21-2.217-16.531 0-34.674-.403-54.026-1.21-7.056-.201-14.112-.604-21.167-1.008-.404.807-.605 1.412-1.008 2.218 7.055.403 14.111.806 21.167 1.008 19.151.806 37.092 1.209 53.824 1.209zm133.251-20.159c-5.443 3.629-14.111 6.854-25.4 9.475-.605.806-1.008 1.411-1.613 2.218 11.289-2.621 19.756-5.847 25.199-9.475a14.73 14.73 0 001.814-2.218zm-26.207 9.677c-11.49 2.62-25.803 4.636-42.939 6.047-.403.807-1.008 1.412-1.411 2.218 16.934-1.411 31.247-3.427 42.737-6.048.605-.806 1.008-1.411 1.613-2.217zM122.97 673.213l-.604-2.419c-13.104-4.234-24.998-8.669-35.883-12.902-4.839-2.016-9.475-4.032-13.709-5.846.202.806.605 1.612.807 2.419 4.233 2.016 8.87 3.83 13.708 5.846 10.886 4.233 22.78 8.668 35.681 12.902zm-51.405-21.772c-13.305-6.25-23.385-11.894-30.239-17.539.403.807.605 1.613 1.008 2.621 6.854 5.443 16.732 11.289 30.037 17.337-.202-.807-.403-1.613-.806-2.419zm749.11 83.458l1.814-2.217c-1.21 1.613-2.822 3.024-4.838 4.435-.605.806-1.008 1.411-1.613 2.217 1.814-1.612 3.427-3.024 4.637-4.435zM187.48 689.541c-22.982-5.846-44.35-12.095-63.501-18.344l.604 2.419c19.151 6.249 40.318 12.297 63.3 18.345-.202-.807-.202-1.613-.403-2.42zM31.246 622.009l1.008 2.62c1.411 3.629 4.637 7.459 9.475 11.491-.404-.806-.605-1.613-1.008-2.621-4.838-4.031-8.064-8.063-9.475-11.49zm402.577 114.099c-28.626-3.83-57.05-8.063-84.87-12.901v2.217c27.82 4.637 56.244 9.072 84.668 12.902 0-.605.202-1.411.202-2.218zm-87.288-13.102c-27.82-4.637-55.035-9.878-81.04-15.321 0 .806.202 1.613.202 2.217 26.005 5.443 53.018 10.483 80.838 15.12v-2.016zm175.382 23.384c-28.223-2.822-57.05-6.048-85.676-9.878-.201.807-.202 1.411-.403 2.218 28.424 3.83 57.05 7.055 85.273 9.878.403-.807.604-1.411.806-2.218zM49.793 556.089c-14.716-6.652-25.804-13.103-33.263-19.151.202 1.008.202 1.814.403 2.822 7.46 6.048 18.547 12.297 33.061 19.151.202-1.008 0-1.814-.201-2.822zm301.78 78.62a2932.452 2932.452 0 01-88.901-16.732v2.621a2807.398 2807.398 0 0088.7 16.732c0-1.008 0-1.815.201-2.621zm-245.738-54.631c0-.806-.201-1.814-.201-2.62-14.313-4.637-27.417-9.475-39.31-14.313-5.444-2.218-10.483-4.435-15.12-6.451.202 1.008.202 1.814.403 2.822 4.637 2.218 9.677 4.233 15.12 6.451 11.692 4.838 24.795 9.475 39.108 14.111zm733.184 81.04c-12.701 2.822-28.425 5.039-46.971 6.652-.403.806-.605 1.613-1.008 2.621 18.748-1.613 34.472-3.83 46.971-6.653.201-.806.604-1.814 1.008-2.62zm-201.993 9.072c.201-.807.403-1.613.806-2.621-29.634-1.613-60.074-4.032-91.119-7.056-.201.807-.403 1.613-.605 2.621 31.045 3.024 61.486 5.443 90.918 7.056zM4.838 520.811l.403 2.822c.806 4.838 4.435 10.08 11.29 15.523-.203-1.008-.202-1.815-.404-2.823-6.854-5.443-10.684-10.684-11.29-15.522zm863.009 129.623c-6.048 4.031-15.321 7.66-27.82 10.482-.403.807-.806 1.613-1.007 2.621 12.498-2.822 21.771-6.451 27.819-10.483.403-1.008.605-1.814 1.008-2.62zm-420.518-1.21c-31.449-4.233-62.695-8.87-93.135-14.111 0 .806-.202 1.814-.202 2.62 30.44 5.242 61.687 9.878 93.135 14.112 0-.807.202-1.815.202-2.621zm343.107 18.747c-18.949 1.412-40.721 2.218-65.315 2.218-.202.806-.605 1.613-.807 2.621 24.594 0 46.366-.807 65.316-2.218 0-1.008.403-1.814.806-2.621zm83.66-22.78l1.21-2.62c-1.21 2.62-3.427 5.241-6.854 7.66-.403.807-.807 1.815-1.21 2.621 3.427-2.621 5.645-5.04 6.854-7.661zm-613.843-27.819c-28.424-6.048-55.639-12.297-81.039-18.748v2.621c25.4 6.451 52.413 12.7 80.838 18.748.201-.807.201-1.613.201-2.621zm-83.257-19.151c-25.199-6.451-48.583-13.305-69.549-20.159 0 1.008.202 1.815.202 2.823 20.965 6.854 44.35 13.506 69.549 19.957-.202-1.008-.202-1.814-.202-2.621zm544.899 74.588c.202-.806.605-1.612.807-2.62-18.143 0-37.899-.404-59.268-1.412-7.66-.403-15.522-.604-23.384-1.007-.202.806-.404 1.612-.807 2.62 7.862.403 15.523.807 23.183 1.008a1270.954 1270.954 0 0059.469 1.411zm-177.803-12.296a2582.195 2582.195 0 01-93.941-10.886c-.201.806-.201 1.814-.403 2.621 31.247 4.233 62.695 7.862 93.74 10.886.201-1.008.403-1.815.604-2.621zm203.204-86.281c.202-1.008.403-2.016.403-2.822-18.949 0-39.511-.403-61.485-1.411l-24.191-1.21c-.201 1.008-.403 2.016-.403 2.822l24.191 1.21a1348.35 1348.35 0 0061.485 1.411zm-87.692-5.443c-30.642-1.613-62.493-4.234-94.748-7.258-.201 1.008-.201 2.016-.403 2.823 32.255 3.024 63.904 5.644 94.546 7.257.202-1.008.403-2.016.605-2.822zM267.31 516.577c-29.634-6.249-57.857-12.7-84.265-19.353-.202 1.008-.202 2.016-.403 3.024 26.408 6.653 54.631 13.305 84.063 19.353a8.094 8.094 0 00.605-3.024zm550.744 52.414c-19.554 1.612-42.334 2.419-67.936 2.419-.202 1.008-.403 2.016-.403 2.822 25.602 0 48.382-.806 67.936-2.419 0-1.008.201-1.814.403-2.822zm-356.21-19.353c-32.657-4.435-65.113-9.273-96.763-14.716-.202 1.008-.202 2.016-.403 2.822 31.649 5.443 64.106 10.281 96.763 14.716 0-1.008.202-1.814.403-2.822zm-99.586-15.12a3042.1 3042.1 0 01-92.328-17.336c-.202 1.008-.202 2.016-.404 2.822 29.634 6.249 60.679 11.894 92.329 17.337.201-1.008.201-1.815.403-2.823zm536.231 16.33c-6.25 4.233-15.926 7.862-28.827 10.886-.202 1.008-.404 2.015-.605 2.822 12.901-3.024 22.578-6.653 28.827-10.886.202-.806.403-1.814.605-2.822zM48.986 452.874c-15.32-7.055-26.61-13.708-34.472-19.957 0 1.008-.201 2.016-.201 3.024 7.66 6.249 19.15 12.902 34.471 19.957 0-1.008.202-2.016.202-3.024zm513.251 108.255c-32.255-3.226-64.912-6.854-97.57-11.289-.202 1.008-.202 2.016-.403 2.822 32.657 4.435 65.315 8.063 97.569 11.289 0-.806.202-1.814.404-2.822zM2.217 415.781c0 1.008-.201 2.016-.201 3.024.604 5.241 4.435 10.684 11.692 16.732 0-1.008.201-2.016.201-3.024-7.458-6.047-11.289-11.692-11.692-16.732zm104.223 62.292c0-1.008.202-2.016.202-3.024-14.918-4.838-28.424-9.878-40.721-14.716-5.645-2.217-10.886-4.435-15.724-6.652 0 1.008-.202 2.016-.202 3.024 4.838 2.217 10.08 4.434 15.724 6.652 12.297 4.838 26.005 9.676 40.721 14.716zm74.589 18.546c-26.207-6.854-50.6-13.708-72.371-20.965 0 1.008-.202 2.016-.202 3.024 21.772 7.056 46.164 14.111 72.371 20.965 0-1.209 0-2.217.202-3.024zm725.524 46.367l.604-3.024c-.806 3.83-3.427 7.257-7.862 10.482-.201 1.008-.403 2.016-.605 2.823 4.435-3.024 7.056-6.451 7.863-10.281zm-38.101 18.949c-13.103 3.023-29.432 5.241-48.785 6.854-.201 1.008-.403 2.016-.605 2.822 19.353-1.613 35.682-3.83 48.785-6.854.404-.806.403-1.814.605-2.822zM476.156 443.4c-32.053-4.234-63.904-9.072-95.15-14.313-.202 1.008-.403 2.016-.403 2.822 31.246 5.241 63.299 10.08 95.352 14.515 0-1.008.201-2.016.201-3.024zm98.779 11.491c-31.649-3.024-63.904-6.854-95.957-11.088-.201 1.008-.201 2.016-.403 3.024 32.053 4.233 64.308 8.064 96.159 11.088 0-1.21.201-2.016.201-3.024zm301.378.604c-12.902 2.822-29.029 5.241-48.18 6.854v3.024c19.151-1.613 35.278-3.83 48.18-6.854v-3.024zm-750.117-82.652c.201-1.008.604-1.814.806-2.822-14.515-4.838-28.021-9.676-40.117-14.515-5.443-2.217-10.684-4.435-15.522-6.652-.202 1.008-.605 1.814-.806 2.822 4.838 2.218 9.877 4.435 15.522 6.653 12.095 4.838 25.4 9.676 40.117 14.514zm-56.043-24.594c-14.917-6.854-26.206-13.506-33.867-19.554-.403 1.008-.605 1.814-1.008 2.822 7.66 6.048 18.95 12.7 33.867 19.554.404-.806.605-1.814 1.008-2.822zm600.539 113.898c-30.239-1.612-61.485-4.031-93.135-7.055 0 1.008-.202 2.016-.202 3.024 31.65 3.024 63.098 5.443 93.337 7.055v-3.024zm-292.508-33.665c-31.246-5.241-61.686-11.087-90.917-17.135-.202 1.008-.403 2.016-.605 2.822 29.231 6.048 59.671 11.894 90.917 17.135.404-.806.605-1.814.605-2.822zm-343.51-97.569c.403-1.008.605-1.815.806-2.823-7.257-5.846-11.087-11.49-11.49-16.53-.404 1.008-.605 1.814-1.009 2.822.605 5.04 4.435 10.684 11.693 16.531zm250.375 80.031c-29.029-6.048-56.849-12.499-82.854-19.151-.202 1.008-.403 1.814-.806 2.822 26.005 6.653 53.824 13.103 82.853 19.151.404-1.008.605-1.814.807-2.822zm472.528 56.848v-3.023c-18.547 0-38.706-.404-60.477-1.412-7.862-.403-15.724-.604-23.788-1.209 0 1.008 0 2.016-.202 3.024 8.064.403 15.926.806 23.788 1.209a1308.263 1308.263 0 0060.679 1.411zm156.838-33.464l-.202-3.024c.202 4.838-2.419 9.072-8.064 12.902 0 1.008 0 2.016.202 3.024 5.644-3.83 8.467-8.265 8.064-12.902zm-87.895 28.021c-19.352 1.613-41.527 2.419-66.726 2.419v3.024c25.199 0 47.575-.806 66.928-2.419-.202-1.008-.202-2.016-.202-3.024zm79.428-17.74c-6.249 4.234-15.724 7.661-28.425 10.685v3.024c12.701-3.024 22.176-6.653 28.425-10.685v-3.024zm-705.971-53.421c-25.803-6.652-49.792-13.506-71.161-20.562-.202 1.008-.605 1.814-.806 2.822 21.368 7.056 45.358 13.91 71.161 20.563.202-.807.605-1.815.806-2.823zm-89.304-138.493c-13.91-6.451-24.392-12.498-31.65-18.143-.403.807-1.007 1.613-1.41 2.419 7.055 5.645 17.74 11.894 31.649 18.345.605-1.008 1.008-1.814 1.411-2.621zM670.49 358.934c-28.223-1.613-57.252-3.83-86.886-6.653v2.823a2315.776 2315.776 0 0087.087 6.652c-.201-1.008-.201-2.016-.201-2.822zm-181.432-17.741c-29.835-4.032-59.67-8.467-88.699-13.506-.202 1.007-.404 1.814-.605 2.822 29.231 4.838 59.066 9.475 88.901 13.506.202-.806.403-1.814.403-2.822zm-178.205-30.238c-27.215-5.645-53.018-11.692-77.209-17.74-.403.806-.605 1.814-1.008 2.62 24.191 6.25 50.196 12.096 77.411 17.942.403-1.008.604-1.814.806-2.822zM77.007 236.366c.404-.806 1.008-1.613 1.412-2.419-6.653-5.443-10.281-10.684-10.685-15.321-.403.806-1.008 1.613-1.41 2.419.402 4.637 4.031 9.878 10.683 15.321zm674.724 127.809c-.202-1.008-.202-1.815-.403-2.823-17.337 0-36.085-.403-56.244-1.209-7.257-.202-14.716-.605-22.175-1.008 0 1.008.202 1.814.202 2.822 7.459.403 14.917.807 22.175 1.008 20.36.605 39.108 1.008 56.445 1.21zm-170.546-12.297c-29.634-2.823-59.671-6.451-89.506-10.282-.202 1.008-.202 1.815-.404 2.823a2352.679 2352.679 0 0089.708 10.281c.202-.807.202-1.815.202-2.822zm308.836-9.879c.202 1.008.605 1.815.807 2.823 5.443-3.831 8.063-8.064 7.459-12.902-.202-1.008-.605-1.814-.807-2.822.605 4.838-2.016 9.273-7.459 12.901zm-74.386 17.136c-17.941 1.411-38.705 2.217-62.291 2.217.201 1.008.201 1.815.403 2.823 23.586 0 44.35-.807 62.493-2.218-.202-1.008-.403-2.016-.605-2.822zm-653.153-83.66c.403-.807.806-1.815 1.209-2.621-13.708-4.435-26.206-9.071-37.495-13.506-5.242-2.016-9.878-4.234-14.313-6.25-.403.807-1.008 1.613-1.411 2.621 4.435 2.016 9.273 4.032 14.514 6.249 11.289 4.435 23.788 9.072 37.496 13.507zm235.458 52.011c-29.029-4.839-57.453-10.282-84.668-15.926-.201.806-.605 1.814-.806 2.62 27.215 5.645 55.639 11.088 84.869 15.926.202-.806.404-1.814.605-2.62zM862 352.684c-12.095 2.621-27.013 4.838-44.753 6.249.202 1.008.403 1.815.605 2.823 17.941-1.411 32.859-3.629 44.955-6.25-.404-1.008-.605-2.016-.807-2.822zm27.618-10.281c-5.846 3.83-14.716 7.257-26.408 9.878.202 1.008.403 1.814.605 2.822 11.894-2.822 20.764-6.048 26.61-10.079-.404-.807-.605-1.613-.807-2.621zm-657.99-49.792c-23.99-6.25-46.366-12.701-66.324-19.152-.403.807-.806 1.815-1.209 2.621 19.957 6.451 42.334 12.902 66.525 19.151.403-.806.806-1.612 1.008-2.62zm42.535-88.499c-21.167-5.443-40.721-11.088-58.259-16.732-.605.806-1.008 1.411-1.613 2.217 17.538 5.846 37.294 11.491 58.461 16.934.605-1.008 1.008-1.815 1.411-2.419zm553.768 52.615c-10.482 2.419-23.787 4.233-39.31 5.443.403.806.605 1.613 1.008 2.621 15.724-1.21 29.029-3.226 39.512-5.645l-1.21-2.419zm-615.052-67.734c.605-.807 1.008-1.412 1.613-2.218-11.894-4.032-22.981-7.862-32.859-11.894a397.447 397.447 0 01-12.7-5.443c-.605.807-1.21 1.411-1.815 2.218 3.83 1.814 8.064 3.628 12.7 5.443a732.818 732.818 0 0033.061 11.894zm368.306 67.129c-26.005-2.62-52.413-5.644-78.62-9.071 0 .806-.202 1.613-.202 2.419 26.409 3.427 52.817 6.652 79.024 9.071-.202-.806-.202-1.612-.202-2.419zm78.419 6.048c-24.795-1.411-50.196-3.427-76.201-5.846v2.62c26.005 2.419 51.809 4.435 76.605 5.846-.202-1.008-.202-1.814-.404-2.62zm192.317-14.514c-5.04 3.427-12.902 6.249-23.183 8.668.403.807.807 1.613 1.21 2.621 10.482-2.419 18.344-5.443 23.384-8.87-.403-.605-.806-1.411-1.411-2.419zm-508.209-27.417c-23.788-5.04-46.568-10.281-67.735-15.724-.403.806-.806 1.612-1.209 2.217 21.368 5.443 44.148 10.684 68.137 15.724.202-.806.605-1.613.807-2.217zm156.636 26.408c-26.207-3.427-52.414-7.459-78.016-11.894l-.604 2.419c25.602 4.435 52.01 8.265 78.217 11.894.201-.605.201-1.411.403-2.419zm231.022 20.16c-.201-.807-.604-1.815-.806-2.621-15.321 0-31.851-.403-49.39-1.008-6.45-.201-12.901-.605-19.554-1.008.202.807.202 1.613.403 2.621 6.653.403 13.104.605 19.555 1.008 17.941.605 34.472 1.008 49.792 1.008zm-311.256-32.255c-25.602-4.435-50.397-9.071-74.386-13.91-.404.807-.605 1.613-1.008 2.419 23.989 5.04 48.986 9.677 74.79 14.112.201-1.008.403-1.815.604-2.621zm440.072 4.032c-.403-.806-.806-1.613-1.411-2.419.403 4.233-1.613 7.862-6.451 11.289l1.21 2.419c5.04-3.225 7.257-7.056 6.652-11.289zm-692.261-69.75c-12.297-5.645-21.57-11.088-27.82-15.926-.604.605-1.209 1.411-1.814 2.016 6.249 5.04 15.522 10.483 27.819 16.127.605-.806 1.21-1.411 1.815-2.217zm-30.239-14.313c.605-.605 1.21-1.412 1.814-2.016-5.846-4.839-9.071-9.475-9.474-13.507-.605.605-1.21 1.411-2.016 2.016.605 4.032 3.83 8.668 9.676 13.507zM787.21 262.372c-15.724 1.21-34.069 2.016-54.631 2.016.202.806.605 1.613.807 2.621 20.763 0 39.108-.605 55.034-2.016-.605-1.008-1.008-1.815-1.21-2.621zm-44.551-86.684c-12.902 1.007-27.618 1.612-44.552 1.612.404.807.807 1.411 1.21 2.218 16.934 0 31.851-.605 44.753-1.613-.403-.806-.806-1.613-1.411-2.217zm52.817-11.895c-4.032 2.822-10.483 5.242-18.95 7.056.605.806 1.21 1.411 1.613 2.217 8.467-2.016 14.918-4.435 19.151-7.257-.604-.605-1.209-1.411-1.814-2.016zm-520.708-47.977l1.815-1.815c-9.677-3.225-18.748-6.451-26.812-9.676-3.629-1.411-7.056-3.024-10.281-4.435-.806.605-1.411 1.209-2.218 1.613 3.226 1.411 6.653 3.023 10.282 4.435 8.466 3.427 17.538 6.652 27.214 9.878zm234.449 47.172c-21.369-2.823-42.737-6.048-63.501-9.677-.202.605-.403 1.411-.605 2.016 20.966 3.629 42.334 6.854 63.905 9.677.201-.605.201-1.412.201-2.016zM238.683 99.487c-10.079-4.637-17.538-8.87-22.578-13.104-.806.605-1.613 1.008-2.217 1.613 5.039 4.032 12.7 8.467 22.779 13.104.605-.404 1.412-1.009 2.016-1.613zm400.157 75.999c-20.159-1.008-40.923-2.62-62.09-4.838 0 .807.202 1.411.202 2.218 21.368 2.016 42.132 3.628 62.493 4.838 0-.807-.202-1.411-.605-2.218zm-63.702-5.039c-21.167-2.016-42.536-4.637-63.904-7.459 0 .806-.202 1.411-.202 2.217 21.57 2.823 43.141 5.443 64.308 7.459-.202-.605-.202-1.411-.202-2.217zm-249.771-42.335c-17.135-4.435-33.061-9.071-47.374-13.708l-1.814 1.815c14.313 4.636 30.44 9.273 47.777 13.708.403-.403.806-1.21 1.411-1.815zm372.539 51.406c-.403-.807-.806-1.411-1.008-2.218-12.499 0-25.804-.201-40.318-.806-5.241-.202-10.483-.403-15.926-.806.202.806.403 1.411.807 2.217 5.443.202 10.684.605 15.925.806 14.515.404 28.021.807 40.52.807zM444.103 153.11c-20.764-3.629-41.124-7.258-60.477-11.289-.403.604-.806 1.411-1.008 2.015 19.554 4.032 39.915 7.863 60.881 11.491.201-1.008.403-1.613.604-2.217zm358.832 3.225c-.605-.605-1.21-1.411-1.815-2.016.403 3.427-1.411 6.451-5.241 9.072.605.806 1.209 1.411 1.814 2.217 3.83-2.62 5.645-5.846 5.242-9.273zm-421.123-15.12c-19.353-4.031-37.899-8.265-55.236-12.7-.403.605-1.008 1.21-1.411 1.815 17.337 4.434 36.085 8.668 55.639 12.901.403-.605.806-1.209 1.008-2.016zm394.11 29.836c-8.668 2.016-19.353 3.427-32.053 4.435.403.807 1.008 1.411 1.411 2.218 12.902-1.008 23.586-2.621 32.255-4.435-.605-.807-1.21-1.411-1.613-2.218zM213.484 87.794c.806-.605 1.613-1.008 2.218-1.613-4.839-4.032-7.258-7.66-7.661-11.087-.806.605-1.613 1.008-2.419 1.612.403 3.427 3.024 7.056 7.862 11.088zm87.894-48.986c.806-.403 1.814-.807 2.621-1.008-3.427-2.822-5.242-5.443-5.645-7.862-.806.403-1.814.605-2.621 1.008.202 2.217 2.016 4.838 5.645 7.862zm81.644 29.231c-12.499-3.226-23.99-6.451-34.271-9.878-.605.403-1.411.806-2.016 1.41 10.483 3.428 21.974 6.653 34.674 10.08.403-.806 1.008-1.21 1.613-1.612zm325.166 30.842c-6.25 1.411-13.91 2.42-23.183 3.226l1.814 1.814c9.273-.806 17.135-1.814 23.385-3.225-.605-.605-1.21-1.21-2.016-1.815zM320.529 47.275c-7.258-3.226-12.701-6.451-16.329-9.475-.807.403-1.815.806-2.621 1.008 3.629 3.024 9.273 6.25 16.531 9.474.806-.201 1.612-.604 2.419-1.007zM684.4 102.309c-9.274.806-19.958 1.209-32.053 1.209.403.605 1.008 1.21 1.411 1.814 12.297 0 23.183-.403 32.456-1.209l-1.814-1.814zM468.698 85.98c-14.918-2.62-29.634-5.241-43.745-8.265-.403.605-.807 1.008-1.21 1.612 14.111 3.024 29.029 5.645 44.149 8.266.403-.605.604-1.21.806-1.613zM345.727 59.168c.605-.403 1.412-.806 2.016-1.41a234.092 234.092 0 01-19.352-7.056c-2.621-1.008-5.04-2.218-7.459-3.226l-2.419 1.21c2.419 1.008 4.838 2.217 7.458 3.225 6.25 2.42 12.701 4.838 19.756 7.257zm306.821 45.963c-.403-.605-1.008-1.21-1.411-1.814-8.87 0-18.748-.202-29.029-.605l-11.491-.605c.403.605.605 1.21 1.008 1.814 3.83.202 7.862.404 11.491.605 10.483.403 20.36.605 29.432.605zM515.87 93.035c-15.321-2.015-30.844-4.434-45.761-6.854-.202.605-.404 1.008-.605 1.613 15.119 2.62 30.642 4.838 46.366 7.056a2.792 2.792 0 010-1.814zm208.848 2.218c-.807-.604-1.412-1.21-2.218-1.814-3.024 2.016-7.66 3.629-13.708 5.241.605.605 1.411 1.21 2.016 1.815 6.249-1.412 10.886-3.024 13.91-5.242zm-161.474 3.225c-15.321-1.41-30.642-3.225-46.164-5.24 0 .604 0 1.209-.202 1.813a1843.801 1843.801 0 0046.769 5.443c0-.806-.202-1.41-.403-2.016zm46.163 3.629c-14.514-.806-29.633-2.016-44.753-3.427.202.605.202 1.21.404 1.814 15.522 1.411 30.641 2.621 45.357 3.427-.403-.605-.806-1.209-1.008-1.814zM728.75 88.399c-.806-.605-1.613-1.008-2.218-1.613.202 2.42-1.008 4.637-3.83 6.653.807.604 1.411 1.21 2.218 1.814 2.822-2.016 4.233-4.234 3.83-6.854zM423.743 77.513c-13.909-3.024-27.416-6.048-39.914-9.273-.605.403-1.008 1.008-1.613 1.411 12.7 3.226 26.207 6.451 40.318 9.273.605-.403 1.008-1.008 1.209-1.41zm95.756-37.294c-8.669-1.21-17.135-2.42-25.602-3.83l-.605 1.21c8.668 1.41 17.337 2.822 26.207 4.031v-1.41zm-26.409-3.83c-8.467-1.412-16.53-3.024-24.392-4.637-.403.403-.807.605-1.21 1.008 8.064 1.613 16.329 3.225 24.998 4.637.201-.404.403-.807.604-1.008zm-24.997-4.839c-7.862-1.612-15.321-3.426-22.376-5.24-.605.2-1.21.604-1.815.806 7.056 1.814 14.717 3.628 22.78 5.241.605-.201 1.008-.403 1.411-.806zm78.015 11.894a596.702 596.702 0 01-25.803-3.024v1.21c8.87 1.21 17.74 2.217 26.408 3.024l-.605-1.21zm50.801 4.032c-.605-.403-1.21-.807-1.613-1.411-5.039 0-10.482-.202-16.329-.404-2.016 0-4.233-.201-6.45-.403.403.403.806.807 1.209 1.411 2.218.202 4.435.202 6.653.404 5.846.201 11.289.403 16.53.403zM445.112 26.31c-6.854-1.815-13.305-3.63-19.151-5.444-.807.202-1.411.403-2.218.807 5.846 2.016 12.499 3.83 19.554 5.644.605-.403 1.21-.806 1.815-1.008zm168.731 19.15c-5.241.403-11.289.605-17.942.605.605.403 1.21.806 1.613 1.411 6.854 0 13.104-.201 18.345-.605-.605-.604-1.411-1.008-2.016-1.41zm13.305-1.814c-3.427.807-7.862 1.411-12.902 1.815.806.403 1.411.806 2.016 1.41 5.241-.403 9.676-1.007 13.305-1.814-.806-.605-1.613-1.008-2.419-1.41zm7.862-3.024c-1.613 1.21-4.233 2.016-7.66 2.822l2.419 1.21c3.427-.807 6.047-1.814 7.862-3.024-.807-.202-1.613-.605-2.621-1.008zm-63.098 4.838c-8.063-.403-16.53-1.008-24.997-2.016l.605 1.21c8.668.806 17.337 1.411 25.602 2.016-.605-.403-.807-.807-1.21-1.21zM423.34 21.27c.806-.202 1.411-.404 2.217-.807-4.031-1.21-7.459-2.62-10.886-3.83l-4.233-1.815c-.806.202-1.613.404-2.621.605l4.234 1.815c3.628 1.41 7.257 2.822 11.289 4.031zM398.141 9.778c1.008-.201 1.814-.403 2.822-.403-2.016-1.613-3.024-3.024-3.024-4.435-1.008.202-1.814.202-2.822.403 0 1.412 1.008 2.823 3.024 4.435zM640.05 38.001c-.806-.403-1.814-.806-2.621-1.21.202 1.412-.604 2.621-2.217 3.63.806.402 1.814.806 2.621 1.209 1.612-1.008 2.419-2.218 2.217-3.629zM410.237 14.819c-4.032-1.815-7.056-3.63-9.072-5.242-1.008.202-1.814.403-2.822.403 2.016 1.613 5.241 3.427 9.273 5.443 1.008-.201 1.814-.403 2.621-.604zM1.209 483.919c.403 5.847.806 11.693 1.411 17.539l-1.41-17.539z" fill="#fff"/><path d="M1.21 483.92c0-.605 0-1.411-.202-2.016v.605l.201 1.411zm-.201-2.017l-.605-26.811c-.202 9.071 0 17.941.605 26.811zM169.74 812.512a153.442 153.442 0 01-8.669-7.459c1.815 1.411 3.427 3.024 5.242 4.435l3.427 3.024zm-9.678-8.265c.404.201.605.604 1.008.806-.403-.202-.806-.403-1.008-.806zm156.031 88.297c-2.217-.807-4.435-1.411-6.45-2.218l5.443 1.814 1.007.404zm258.44 7.257c-.403.201-.807.201-1.21.403.202-.202.807-.202 1.21-.403zm-8.467 2.217c2.42-.605 4.839-1.21 7.056-1.815-3.225.807-6.652 1.815-9.878 2.621l2.822-.806z" fill="#fff"/><path d="M890.828 344.822c-.201-1.008-.403-1.814-.806-2.822-8.87-32.053-21.167-62.897-36.286-92.127l-1.21-2.419c-15.321-29.029-33.867-56.446-54.833-81.846-.604-.806-1.209-1.411-1.814-2.217-21.167-25.199-44.955-47.979-70.96-68.34-.806-.604-1.411-1.21-2.217-1.814a454.22 454.22 0 00-84.87-51.607c-.806-.403-1.814-.806-2.62-1.21-29.634-13.708-61.082-24.19-93.74-31.448.202-.201.403-.403.403-.605 33.464 6.048 65.315 15.724 95.554 28.425.806.403 1.814.806 2.621 1.21 30.843 13.304 59.872 29.633 86.482 48.784.806.605 1.613 1.008 2.218 1.613 26.609 19.352 50.8 41.527 72.371 65.92.604.605 1.209 1.411 1.814 2.016 21.368 24.594 40.116 51.204 56.042 79.83.403.806.806 1.612 1.411 2.419a451.308 451.308 0 0137.093 90.715c.201 1.008.605 1.815.806 2.823 2.822 10.079 5.241 20.36 7.459 30.843l-1.814-8.467C864.823 178.711 721.492 37.195 533.408 6.956c0 .807-2.217 1.21-6.652 1.008-6.451-.201-14.918-1.814-18.748-3.225-1.21-.605-1.814-1.008-2.016-1.411-1.411-.202-2.822-.202-4.233-.403C258.439-20.863 37.899 150.489 4.233 393.204 1.411 412.96 0 432.514 0 451.867v3.225c0-12.095.605-24.191 1.613-36.488 0-1.008.201-2.016.201-3.024a377.886 377.886 0 012.42-21.167c3.83-27.618 10.079-54.429 18.546-80.031.403-1.008.604-1.815 1.008-2.822 10.885-32.053 24.997-62.494 42.334-90.716.403-.807 1.008-1.613 1.41-2.419 17.338-28.223 37.698-54.027 60.478-77.613.605-.604 1.209-1.411 2.016-2.016 22.981-23.384 48.18-44.148 75.596-62.291.807-.605 1.613-1.008 2.419-1.613 27.417-17.74 56.849-32.859 87.692-44.551.806-.403 1.815-.605 2.621-1.008A458.159 458.159 0 01394.916 4.94c1.008-.201 1.814-.201 2.822-.403 32.456-4.233 65.92-5.241 99.787-2.217 0 .201.202.604.605.806-33.061-1.613-65.517.403-97.368 5.846-1.008.202-1.815.403-2.822.403-32.457 5.847-64.106 15.321-94.345 27.82-.806.403-1.814.806-2.62 1.008-30.037 12.7-58.865 28.626-85.475 47.374-.806.604-1.613 1.008-2.217 1.612-26.61 18.95-51.406 40.52-73.782 64.711-.605.605-1.21 1.411-1.815 2.016-22.175 24.191-42.132 50.801-59.267 79.426-.404.807-1.008 1.613-1.412 2.42-16.933 28.827-30.843 59.469-41.527 91.723-.403 1.008-.605 1.814-.806 2.822-8.266 25.804-14.515 52.616-18.345 80.233a377.773 377.773 0 00-2.42 21.167c0 1.008-.2 2.016-.2 3.024a454.945 454.945 0 002.418 100.997c.202 1.008.202 1.815.403 2.822 4.637 32.658 12.902 64.106 24.393 94.143.403.807.605 1.613 1.008 2.621 11.692 29.835 26.408 58.058 43.947 84.265.403.806 1.007 1.411 1.41 2.217 17.741 26.005 38.303 50.196 61.284 71.565.605.605 1.411 1.209 2.016 1.814 3.024 2.822 6.249 5.645 9.475 8.467-3.024-2.621-6.048-5.241-9.072-8.064-.605-.604-1.209-1.209-2.016-1.814a416.49 416.49 0 01-61.283-71.565c-.403-.806-1.008-1.411-1.411-2.217-17.539-26.207-32.255-54.43-43.947-84.265-.403-.806-.605-1.613-1.008-2.621-11.49-30.037-19.554-61.485-24.19-94.142-.202-1.008-.202-1.815-.404-2.823a454.937 454.937 0 01-2.42-100.997c0-1.008.202-2.015.202-3.023a377.746 377.746 0 012.42-21.167c3.83-27.618 10.08-54.43 18.344-80.233.404-1.008.605-1.815 1.008-2.823 10.685-32.254 24.594-63.097 41.528-91.723.403-.807 1.008-1.613 1.411-2.419 16.934-28.626 36.891-55.236 59.066-79.427.605-.605 1.21-1.411 1.814-2.016 22.377-24.191 47.172-45.761 73.782-64.71.807-.605 1.613-1.008 2.218-1.613a478.967 478.967 0 0185.474-47.576c.807-.403 1.613-.806 2.621-1.008 30.037-12.7 61.687-21.973 94.143-28.02 1.008-.202 1.814-.404 2.822-.404 31.65-5.443 64.106-7.66 97.167-6.047.403.403 1.008.604 1.612 1.007-30.44-.201-60.477 3.427-89.707 10.281-.807.202-1.613.404-2.621.605-30.037 7.258-59.268 18.144-87.087 32.053l-2.419 1.21c-27.82 14.111-54.43 31.246-79.427 51.002-.806.605-1.411 1.21-2.217 1.613-24.796 19.957-47.777 42.737-68.743 67.533-.605.806-1.209 1.411-1.814 2.217-20.764 24.997-39.31 52.414-55.437 81.644-.404.807-1.008 1.613-1.412 2.621-15.925 29.231-29.029 60.477-39.31 93.135-.201 1.008-.605 1.814-.806 2.822-7.862 26.005-13.91 53.018-17.74 80.636a377.96 377.96 0 00-2.42 21.167c0 1.008-.2 2.016-.2 3.024-3.025 34.472-2.622 67.936 1.209 100.191.201 1.008.201 1.814.403 2.822 4.032 32.254 11.29 63.299 21.369 92.53.201.806.604 1.613.806 2.419 10.281 29.231 23.586 56.647 39.512 81.846.403.806 1.008 1.411 1.411 2.217 16.127 25.199 34.673 47.979 55.84 68.339l1.815 1.815c21.167 20.159 44.551 37.697 69.75 52.01.806.403 1.411.806 2.218 1.21 6.249 3.427 12.498 6.652 18.949 9.878l2.016 1.008c-7.056-3.226-13.708-6.855-20.562-10.483-.807-.403-1.411-.806-2.218-1.21-25.199-14.313-48.583-31.851-69.549-52.01l-1.814-1.814c-20.965-20.159-39.512-43.141-55.437-68.138-.403-.806-1.008-1.411-1.411-2.218-15.926-25.198-29.03-52.615-39.512-81.644-.202-.806-.605-1.612-.806-2.419-10.08-29.23-17.337-60.074-21.37-92.328-.2-1.008-.2-1.814-.402-2.822-3.83-32.255-4.234-65.921-1.21-100.191 0-1.008.202-2.016.202-3.024a377.867 377.867 0 012.419-21.167c3.83-27.618 9.878-54.631 17.74-80.636.201-1.008.605-1.814.806-2.822 10.08-32.658 23.385-63.703 39.109-93.135.403-.806.806-1.613 1.411-2.621 15.925-29.23 34.472-56.647 55.236-81.644.604-.806 1.209-1.411 1.814-2.217 20.764-24.998 43.947-47.777 68.541-67.735.806-.605 1.411-1.209 2.217-1.612a454.003 454.003 0 0179.225-51.204l2.419-1.21c27.82-13.91 57.05-24.796 86.886-32.053a52.943 52.943 0 012.621-.605c29.23-6.854 59.066-10.482 89.506-10.482.201.201.403.201.806.403.605.201 1.21.403 2.016.806-26.005 1.613-52.01 6.653-77.209 15.12-.806.201-1.411.403-2.218.806-26.005 8.87-51.204 21.167-75.394 36.488-.605.403-1.412.806-2.016 1.41-24.191 15.523-47.374 33.868-69.146 55.035l-1.814 1.814c-21.772 21.167-41.931 44.955-60.276 70.759-.605.806-1.008 1.411-1.612 2.217-18.345 26.005-34.876 54.228-49.189 84.063-.403.807-.806 1.815-1.209 2.621-14.111 30.037-26.207 61.687-35.48 94.546-.202 1.008-.605 1.814-.806 2.822-7.258 26.207-13.104 53.422-16.732 81.04-1.008 7.055-1.815 14.111-2.621 21.167-.202 1.008-.202 2.015-.202 3.023-3.427 34.271-3.628 67.533-1.008 99.385 0 1.008.202 1.814.202 2.62 2.822 31.852 8.467 62.09 16.53 90.514l.605 2.419c8.265 28.425 19.151 54.833 32.456 79.024.403.605.807 1.411 1.21 2.016 13.305 23.989 28.827 45.761 46.567 64.71.403.605 1.008 1.008 1.411 1.613 17.74 18.748 37.496 34.875 58.865 47.777.604.403 1.209.806 1.814 1.008 14.111 8.265 28.828 15.119 44.148 20.764-15.119-5.443-29.633-12.297-43.543-20.361-.605-.403-1.21-.806-1.814-1.008-21.369-12.902-40.923-29.029-58.663-47.777-.404-.605-1.008-1.008-1.412-1.612-17.538-18.95-33.06-40.722-46.164-64.711-.403-.605-.806-1.411-1.209-2.016-13.104-24.191-23.99-50.599-32.255-79.023l-.605-2.42c-8.063-28.424-13.708-58.864-16.328-90.514 0-1.007-.202-1.814-.202-2.822-2.621-31.851-2.419-65.114 1.008-99.384 0-1.008.202-2.016.202-3.024.806-7.055 1.612-14.111 2.62-21.167 3.831-27.618 9.475-54.631 16.732-81.039.202-1.008.605-1.815.807-2.823a616.018 616.018 0 0135.278-94.545c.403-.807.806-1.815 1.21-2.621 14.312-29.835 30.641-58.058 48.986-84.063.605-.807 1.008-1.411 1.613-2.218 18.345-26.005 38.504-49.793 60.074-70.96l1.814-1.814a437.766 437.766 0 0168.742-55.034c.605-.403 1.412-.806 2.016-1.411 24.191-15.321 49.39-27.618 74.992-36.488.806-.202 1.411-.605 2.217-.806 25.199-8.467 50.801-13.709 76.806-15.321 1.008.403 2.218.604 3.427 1.008-20.562 3.023-41.124 9.878-61.283 19.755-.605.202-1.21.605-1.814.807-20.563 10.482-40.923 24.19-60.477 40.721-.605.403-1.21 1.008-1.613 1.411-19.554 16.732-38.302 36.488-56.042 58.865-.605.604-1.008 1.209-1.613 1.814-17.74 22.376-34.27 47.172-49.591 73.984-.404.806-.807 1.612-1.21 2.217-15.119 27.013-29.029 55.841-41.124 86.281-.404.806-.605 1.814-1.008 2.621-12.096 30.641-22.377 62.694-30.642 95.957-.202 1.007-.403 1.814-.806 2.822-6.451 26.408-11.894 53.623-15.523 81.241-1.008 7.055-1.814 14.111-2.621 21.167-.201 1.008-.201 2.016-.403 3.024-3.628 34.27-4.838 67.331-3.628 98.577v2.621c1.209 31.247 4.838 61.082 10.281 88.7.201.806.403 1.613.403 2.419 5.644 27.618 13.507 53.22 23.183 76.403.201.605.605 1.411.806 2.016 9.676 22.981 21.369 43.543 34.674 61.283.403.605.806 1.008 1.209 1.613 13.305 17.538 28.425 32.254 44.955 43.745.403.403 1.008.605 1.411 1.008 15.321 10.281 31.65 17.942 49.188 22.578l.605.202c-17.538-4.435-33.867-12.096-48.987-22.578-.403-.404-1.008-.605-1.411-1.008-16.329-11.491-31.246-26.207-44.551-43.745-.403-.404-.806-1.008-1.21-1.412-13.103-17.74-24.594-38.302-34.27-61.283-.202-.605-.605-1.411-.806-2.016-9.475-23.183-17.337-48.785-22.982-76.201-.201-.807-.403-1.613-.403-2.419-5.443-27.618-9.072-57.454-10.281-88.7v-2.621c-1.008-31.448.202-64.509 3.83-98.578.202-1.008.202-2.015.403-3.023.807-7.056 1.613-14.112 2.621-21.167a814.464 814.464 0 0115.523-81.241c.201-1.008.403-1.815.806-2.823 8.265-33.262 18.546-65.315 30.642-95.957.403-.806.604-1.814 1.008-2.62 12.095-30.441 25.803-59.47 40.922-86.483.404-.806.807-1.612 1.21-2.217 15.119-26.812 31.65-51.607 49.188-73.984.403-.605 1.008-1.209 1.411-1.814 17.539-22.175 36.286-41.931 55.639-58.865.605-.403 1.008-1.008 1.613-1.41 19.353-16.733 39.512-30.44 60.074-40.924.605-.201 1.209-.604 1.814-.806 19.958-9.878 40.318-16.732 60.679-19.957 1.209.403 2.621.604 4.032 1.008-14.112 4.636-28.425 12.7-42.536 23.989-.403.403-.806.604-1.209 1.008-14.515 11.894-28.828 26.811-42.939 44.753-.403.605-.807 1.008-1.21 1.612-14.111 18.144-27.618 39.109-40.721 62.292-.403.605-.806 1.411-1.21 2.016-13.103 23.384-25.4 49.188-37.092 76.806-.403.806-.605 1.613-1.008 2.419-11.491 27.819-22.175 57.453-31.852 88.498-.201.807-.604 1.815-.806 2.621-9.475 31.246-17.941 63.702-25.199 97.166-.201 1.008-.403 2.016-.604 2.823a1167.725 1167.725 0 00-14.313 81.644c-1.008 7.055-1.815 14.111-2.823 21.167-.201 1.008-.201 2.016-.403 2.822-4.032 34.069-6.249 66.928-6.854 97.973v2.621c-.605 30.843.605 60.074 3.226 87.087 0 .806.201 1.613.201 2.217 2.621 26.812 6.854 51.608 12.499 73.783.201.604.403 1.209.403 1.814 5.645 21.973 12.7 41.527 20.965 58.259.202.404.404 1.008.807 1.412 8.265 16.328 17.941 29.835 28.626 40.116.403.202.604.605 1.008.806 10.885 9.878 22.779 16.531 35.681 19.555.202 0 .605.201.806.201l.605.202c-.403 0-.605-.202-1.008-.202-12.7-2.822-24.594-9.474-35.278-19.352l-.806-.807c-10.483-10.079-19.958-23.586-28.223-39.915-.202-.403-.403-1.008-.605-1.411-8.064-16.53-14.918-36.084-20.562-58.058-.202-.605-.403-1.209-.403-1.814-5.443-22.175-9.475-46.971-12.096-73.782 0-.807-.201-1.613-.201-2.218-2.419-27.013-3.427-56.243-3.024-87.087v-2.62c.605-31.045 3.024-63.703 6.854-97.974.201-1.007.201-2.015.403-2.822.806-7.055 1.814-14.111 2.822-21.167 3.83-27.618 8.669-55.034 14.112-81.644.201-1.008.403-2.016.604-2.822 7.056-33.464 15.523-66.122 24.998-97.167.201-.806.604-1.814.806-2.62 9.475-31.045 20.159-60.679 31.65-88.499.403-.806.605-1.612 1.008-2.419 11.49-27.618 23.787-53.421 36.689-77.007.403-.605.806-1.411 1.008-2.016 12.902-23.385 26.408-44.35 40.318-62.493.403-.605.807-1.008 1.21-1.613 13.909-17.942 28.021-33.06 42.535-44.955.403-.403.807-.604 1.21-1.008 13.91-11.289 28.021-19.554 41.931-24.19 1.411.201 3.024.604 4.435.806-7.056 5.846-14.515 15.32-22.175 28.021l-.605 1.21c-7.862 13.103-15.724 29.432-23.788 48.381-.201.605-.403 1.008-.604 1.613-8.064 19.151-16.128 41.124-23.99 65.517-.201.605-.403 1.411-.605 2.016a1502.306 1502.306 0 00-23.182 79.426l-.605 2.419a2237.204 2237.204 0 00-21.57 90.515c-.202 1.008-.404 1.814-.605 2.822-6.854 31.65-13.305 64.509-18.95 98.376-.201 1.008-.403 2.016-.403 2.822-4.636 26.812-8.87 54.228-12.7 81.846-1.008 7.056-2.016 14.111-2.822 21.167-.202 1.008-.202 2.016-.404 2.822-4.435 34.069-7.861 66.525-10.281 97.369 0 .806-.201 1.814-.201 2.62-2.419 30.642-4.032 59.268-4.838 85.676v2.218c-.605 26.206-.404 50.196.604 71.564v1.815c1.008 21.167 3.024 39.713 5.846 55.235 0 .404.202.807.202 1.411 2.822 15.321 6.451 27.82 10.886 36.69.202.201.202.605.403.806 4.435 8.669 9.676 14.112 15.724 15.724.202 0 .403 0 .605.202.202 0 .605.202.806.202h.404c-.202 0-.404 0-.807-.202-.201 0-.403 0-.403-.202-5.846-1.612-10.886-6.854-15.119-15.522-.202-.202-.202-.403-.403-.806-4.234-8.87-7.661-21.168-10.282-36.488 0-.404-.201-.807-.201-1.411-2.621-15.523-4.435-34.069-5.443-55.236v-1.815c-1.008-21.368-1.008-45.357-.202-71.564v-2.218c.807-26.408 2.419-55.034 5.04-85.676 0-.806.202-1.814.202-2.62 2.62-30.642 6.047-63.3 10.482-97.368.202-1.008.202-2.016.404-2.823.806-7.055 1.814-14.111 2.822-21.167 3.83-27.618 8.063-55.034 12.7-81.846.202-1.007.403-2.015.403-2.822 5.846-33.665 12.096-66.726 18.95-98.376.201-1.008.403-1.814.604-2.822 6.855-31.65 13.91-61.888 21.369-90.514l.605-2.419c7.459-28.425 15.119-55.035 22.78-79.629.201-.604.403-1.411.604-2.016 7.862-24.19 15.724-46.365 23.586-65.517.202-.604.404-1.007.605-1.612 7.862-19.151 15.523-35.48 23.183-48.584l.605-1.209c7.459-12.499 14.514-22.175 21.57-28.021 1.613.201 3.225.403 4.637.806.403 7.056 0 17.539-.605 31.247v1.21c-.807 14.11-2.016 31.447-3.629 51.606 0 .605 0 1.21-.201 1.815-1.613 20.159-3.831 43.14-6.451 68.137 0 .807-.202 1.411-.202 2.218-2.621 25.199-5.443 52.615-8.87 81.644 0 .806-.201 1.613-.201 2.419a6109.576 6109.576 0 01-10.886 92.127c-.202 1.008-.202 1.814-.403 2.822-4.032 32.053-8.064 65.315-12.701 99.384-.201 1.008-.201 2.016-.403 3.024-3.629 27.013-7.257 54.43-11.087 82.249l-3.024 21.167c-.202 1.008-.202 2.016-.403 2.822-4.839 34.069-9.475 66.324-14.112 96.764-.201.806-.201 1.814-.403 2.62-4.637 30.239-8.87 58.462-13.103 84.467-.202.806-.202 1.411-.403 2.217-4.234 25.804-8.064 49.189-11.894 69.751-.202.604-.202 1.209-.404 1.814-3.628 20.562-7.055 38.302-10.079 53.018 0 .403-.202.807-.202 1.21-3.023 14.514-5.644 25.803-7.862 33.867 0 .202-.201.403-.201.605-2.218 7.66-4.032 12.095-5.443 12.498h-.403.806c1.613-.403 3.629-4.636 6.048-12.498 0-.202.201-.403.201-.605 2.419-7.862 5.242-19.353 8.467-33.666 0-.403.202-.806.202-1.209 3.225-14.716 6.652-32.456 10.482-52.817.202-.605.202-1.209.404-1.814 3.83-20.562 7.862-43.947 12.095-69.75.202-.807.202-1.411.403-2.218 4.234-25.803 8.669-54.026 13.305-84.265.202-.806.202-1.814.403-2.62 4.637-30.441 9.274-62.695 14.112-96.764.201-1.008.201-2.016.403-2.822 1.008-7.056 2.016-13.91 3.024-21.167 3.83-27.618 7.459-55.034 11.087-82.249.202-1.008.202-2.016.403-3.024 4.435-33.867 8.669-67.331 12.499-99.384.202-1.008.202-1.814.403-2.822 3.83-32.053 7.459-62.897 10.483-92.127 0-.806.201-1.613.201-2.419a5504.084 5504.084 0 008.467-81.644c0-.807.202-1.411.202-2.218 2.419-25.199 4.435-47.978 5.846-68.138 0-.604 0-1.209.202-1.814 1.411-20.159 2.62-37.496 3.024-51.607v-1.21c.403-13.708.403-24.19 0-31.246l4.838.605c7.862 7.862 14.716 19.352 21.167 33.665l.604 1.21c6.451 14.918 11.894 33.06 16.732 53.825.202.604.202 1.209.404 1.814 4.636 20.965 8.466 44.551 11.289 70.153 0 .807.201 1.411.201 2.218 2.823 25.803 4.838 53.825 5.846 83.458v2.621c1.008 29.634 1.008 60.88 0 93.336v2.823c-1.008 32.456-3.024 65.92-6.249 99.988 0 1.008-.202 2.016-.202 3.024-2.419 27.215-5.644 54.631-9.474 82.451l-3.024 21.167c-.202 1.008-.202 2.016-.403 2.822-5.242 33.867-11.088 66.122-17.74 96.36-.202.807-.403 1.815-.605 2.621-6.653 30.037-13.91 57.857-21.57 83.459-.202.806-.403 1.411-.605 2.217-7.66 25.401-15.926 48.18-24.392 68.339-.202.605-.404 1.21-.807 1.613-8.467 19.957-17.135 37.093-26.005 51.002-.202.404-.605.807-.806 1.21-8.87 13.91-17.942 24.392-26.812 31.65-.201.201-.605.403-.806.604-8.87 7.056-17.942 10.483-26.61 10.08h-1.613 2.016c8.87.403 17.942-3.024 27.215-10.08.201-.201.605-.403.806-.604 9.072-7.056 18.345-17.74 27.416-31.65.202-.403.605-.806.807-1.21 9.071-13.909 17.941-31.045 26.61-51.002.201-.605.403-1.21.806-1.613 8.668-20.159 16.934-42.938 24.594-68.339.202-.806.403-1.411.605-2.217 7.862-25.401 15.119-53.422 21.772-83.459.201-.806.403-1.613.604-2.621 6.653-30.036 12.701-62.291 17.74-96.36.202-1.008.202-2.016.404-2.822 1.007-7.056 2.015-13.91 3.023-21.167 3.831-27.618 6.854-55.236 9.475-82.451 0-1.008.202-2.016.202-3.024 3.024-34.068 5.04-67.734 6.047-99.988v-2.823c.807-32.456.807-63.702-.201-93.336v-2.621c-1.21-29.633-3.226-57.655-6.249-83.458 0-.807-.202-1.411-.202-2.218-3.024-25.803-7.056-49.389-11.894-70.355-.201-.605-.201-1.21-.403-1.814-4.838-20.764-10.684-38.907-17.337-54.026l-.605-1.21c-6.451-14.514-13.708-25.803-21.771-33.867 1.612.202 3.023.202 4.636.403 15.119 8.467 29.029 20.36 42.133 35.278.403.404.806.807 1.209 1.412 13.305 15.522 25.401 34.069 36.488 55.437.403.605.605 1.21 1.008 1.814 10.886 21.369 20.361 45.358 28.626 71.565.201.806.403 1.411.605 2.217 8.063 26.207 14.716 54.631 19.957 84.467.202.806.202 1.613.403 2.62a855.882 855.882 0 0110.483 94.143c0 1.008.201 1.815.201 2.823 1.815 32.657 1.815 66.323.202 100.593 0 1.008-.202 2.016-.202 3.024a965.315 965.315 0 01-7.861 82.451c-1.008 7.055-2.016 14.111-3.226 21.167-.202 1.008-.403 2.016-.403 2.822-5.645 33.867-12.7 66.122-21.369 95.957-.201.806-.403 1.613-.806 2.621-8.668 29.835-18.546 57.453-29.634 82.853-.403.807-.605 1.411-1.008 2.218-11.087 24.997-23.384 47.575-36.488 67.331-.403.605-.806 1.21-1.209 1.613-13.104 19.554-27.013 36.286-41.528 49.793l-1.209 1.209c-14.515 13.305-29.634 23.586-45.157 30.239-.403.201-.806.403-1.411.604-15.321 6.451-30.843 9.274-46.567 8.467h.605c15.925.807 31.649-2.016 46.97-8.467.403-.201.807-.403 1.411-.604 15.724-6.653 31.045-16.732 45.761-30.239l1.21-1.209c14.716-13.507 28.827-30.239 41.931-49.793.403-.605.806-1.21 1.209-1.613 13.104-19.756 25.602-42.334 36.69-67.331.403-.807.604-1.411 1.008-2.218 11.087-25.198 21.167-52.816 29.835-82.652.202-.806.403-1.613.806-2.621 8.669-30.037 15.724-62.089 21.369-95.957.201-1.008.403-2.016.403-2.822 1.21-6.854 2.218-13.91 3.226-21.167a965.741 965.741 0 007.862-82.45c0-1.008 0-2.016.201-3.024 1.613-34.271 1.613-67.936-.201-100.594 0-1.008-.202-1.814-.202-2.822-2.016-32.658-5.644-64.106-10.684-94.143-.202-.806-.202-1.613-.403-2.621-5.242-29.835-12.096-58.259-20.361-84.466-.202-.806-.403-1.411-.806-2.217-8.266-26.207-18.144-50.196-29.03-71.565-.403-.605-.604-1.21-1.007-1.814-11.088-21.167-23.385-39.915-36.891-55.438-.404-.403-.807-.806-1.21-1.41-13.103-14.919-27.416-26.813-42.737-35.28h4.233c21.57 8.67 42.133 20.764 61.082 35.884.605.403 1.21.806 1.613 1.411 19.554 15.724 37.697 34.472 54.228 55.841.403.604 1.008 1.209 1.411 1.814 16.53 21.57 31.246 45.761 44.148 71.968.403.806.807 1.411 1.008 2.217 12.902 26.409 23.788 54.833 32.859 84.87.202.806.605 1.612.807 2.62 8.87 30.037 15.522 61.687 19.957 94.345.202 1.008.202 1.814.403 2.822 4.234 32.658 6.25 66.525 5.846 100.795v3.024c-.604 27.215-2.62 54.833-6.45 82.451-1.008 7.055-2.016 14.111-3.226 21.167-.201 1.008-.403 2.016-.403 2.822-5.846 33.867-14.111 65.92-24.594 95.957-.202.806-.605 1.613-.806 2.621-10.483 29.835-22.982 57.453-37.093 82.45-.403.807-.806 1.411-1.21 2.218-14.313 24.997-30.238 47.373-47.373 67.129-.404.605-1.008 1.21-1.412 1.613-17.336 19.353-36.084 36.085-55.639 49.39-.604.403-1.209.806-1.612 1.209-19.756 13.305-40.52 23.183-61.889 29.634l-1.814.605c-16.127 4.636-32.456 7.459-49.188 8.063h1.008c16.53-.604 33.061-3.427 48.987-8.063l1.814-.605c21.57-6.451 42.334-16.53 62.291-29.634.605-.403 1.21-.806 1.613-1.209 19.756-13.305 38.504-30.037 56.042-49.39.403-.605 1.008-1.008 1.411-1.613 17.337-19.554 33.464-42.132 47.777-67.129.403-.807.807-1.411 1.21-2.218 14.313-25.199 26.811-52.816 37.294-82.45.202-.807.605-1.613.806-2.621 10.282-29.835 18.748-62.09 24.594-95.957.202-1.008.404-2.016.404-2.822 1.209-6.854 2.217-13.91 3.225-21.167 3.83-27.618 5.846-55.236 6.451-82.451v-3.024c.403-34.27-1.613-67.936-6.048-100.795-.201-1.008-.201-1.814-.403-2.822-4.435-32.658-11.289-64.308-20.159-94.345-.202-.806-.605-1.814-.806-2.62-9.072-30.037-20.159-58.461-33.061-84.87-.403-.806-.807-1.411-1.21-2.217-13.103-26.207-28.021-50.398-44.551-71.968-.403-.605-1.008-1.21-1.411-1.814-16.732-21.369-35.077-40.319-54.631-55.841-.605-.403-1.21-.806-1.613-1.411-19.353-15.12-39.915-27.215-61.687-35.883 1.21 0 2.419 0 3.226-.202 26.811 8.467 52.413 20.562 76.402 35.48.605.403 1.411.806 2.016 1.411 24.594 15.523 47.374 34.27 68.541 55.438l1.814 1.814c20.966 21.369 39.915 45.358 56.647 71.565.403.806 1.008 1.411 1.411 2.217 16.732 26.207 31.045 54.631 42.939 84.466.403.807.605 1.613 1.008 2.621 11.692 30.037 21.167 61.485 27.618 94.143.202 1.008.403 1.814.605 2.822 6.249 32.658 9.878 66.323 10.281 100.594v3.024c.202 27.214-1.411 54.832-5.241 82.45-1.008 7.056-2.016 14.111-3.226 21.167-.201 1.008-.403 2.016-.605 2.822-6.249 33.868-15.32 66.122-27.013 95.957-.403.807-.605 1.613-1.008 2.621-11.894 29.836-26.408 57.454-42.938 82.652-.404.807-1.008 1.411-1.412 2.218-16.732 24.997-35.48 47.575-56.243 67.331-.605.605-1.21 1.21-1.815 1.613-20.763 19.554-43.14 36.286-66.928 49.793-.604.403-1.411.806-2.016 1.209-23.787 13.305-48.986 23.586-74.991 30.239-.807.201-1.411.403-2.218.604a273.717 273.717 0 01-36.286 6.653l1.209-.202c12.096-1.411 23.99-3.628 35.682-6.451.806-.201 1.411-.403 2.217-.604 26.207-6.653 51.406-16.934 75.395-30.239.605-.403 1.411-.806 2.016-1.209 23.788-13.507 46.366-30.239 67.13-49.793.605-.605 1.209-1.21 1.814-1.613 20.764-19.756 39.512-42.334 56.446-67.331.403-.807 1.008-1.411 1.411-2.218 16.732-25.198 31.045-52.816 42.938-82.853.404-.807.605-1.613 1.008-2.621 11.693-30.037 20.966-62.09 27.215-95.957.202-1.008.403-2.016.605-2.822 1.209-6.854 2.419-13.91 3.427-21.167 3.83-27.618 5.443-55.236 5.241-82.451v-3.024c-.403-34.27-4.032-67.936-10.482-100.593-.202-1.008-.404-1.815-.605-2.823-6.451-32.657-15.926-64.106-27.82-94.143-.403-.806-.604-1.612-1.008-2.62-12.095-29.836-26.408-58.26-43.14-84.467-.403-.806-1.008-1.411-1.411-2.217-16.934-26.207-35.883-50.196-56.849-71.565l-1.814-1.814C663.031 80.94 640.05 62.192 615.456 46.67c-.605-.404-1.411-.807-2.016-1.412-24.191-14.917-49.793-26.811-76.605-35.278a7.526 7.526 0 002.42-.403c30.641 8.064 59.67 19.353 87.288 33.867l2.419 1.21c28.223 15.12 54.43 33.262 78.621 54.026.604.605 1.411 1.21 2.015 1.814 24.191 20.966 45.963 44.552 65.517 70.355.605.807 1.008 1.411 1.613 2.218 19.353 25.803 36.286 53.825 50.398 83.458.403.807.806 1.613 1.209 2.621 13.91 29.634 24.997 61.082 33.061 93.336.202 1.008.403 1.815.605 2.823 7.862 32.456 12.498 65.92 13.506 100.19v3.024a494.99 494.99 0 01-4.435 82.45c-1.008 7.056-2.015 14.112-3.426 21.167-.202 1.008-.404 2.016-.605 2.823-6.451 33.867-16.128 66.121-29.029 96.36-.404.806-.807 1.814-1.008 2.621a436.008 436.008 0 01-47.173 83.257c-.604.806-1.007 1.411-1.612 2.217-18.547 25.401-39.512 48.18-62.493 68.138-.605.604-1.411 1.209-2.016 1.612-23.183 19.958-48.18 37.093-74.992 51.003-.806.403-1.613.806-2.217 1.209-23.385 11.894-47.777 21.571-73.178 28.626 25.602-7.055 50.196-16.53 73.782-28.626.807-.403 1.613-.806 2.218-1.209 26.811-13.91 52.01-31.045 75.193-51.003.605-.604 1.411-1.209 2.016-1.612 22.981-20.159 44.148-42.939 62.493-68.339.605-.807 1.008-1.412 1.613-2.218 18.345-25.4 34.27-53.422 47.172-83.257.403-.806.806-1.613 1.008-2.621 12.7-30.036 22.578-62.291 29.029-96.36.202-1.008.403-2.016.605-2.822 1.209-7.056 2.419-13.91 3.427-21.167 3.83-27.618 5.241-55.236 4.435-82.451v-3.024c-1.21-34.068-5.846-67.734-13.708-100.19-.202-1.008-.404-1.814-.605-2.822-8.064-32.456-19.151-63.703-33.061-93.337-.403-.806-.806-1.612-1.21-2.62-14.111-29.634-31.044-57.655-50.397-83.459-.605-.806-1.008-1.411-1.613-2.217-19.554-25.804-41.528-49.39-65.718-70.355-.605-.605-1.412-1.21-2.016-1.815-24.191-20.763-50.6-38.907-78.822-54.026l-2.419-1.21c-27.618-14.514-56.849-25.803-87.49-33.867.604-.201 1.007-.403 1.411-.604 32.859 7.055 64.105 17.74 93.739 31.448.807.403 1.815.806 2.621 1.21 30.239 14.312 58.663 31.649 84.668 51.808.806.605 1.411 1.21 2.217 1.814 26.006 20.361 49.793 43.141 70.96 68.34.605.806 1.21 1.411 1.814 2.217 20.966 25.199 39.311 52.817 54.631 81.846l1.21 2.419c15.12 29.23 27.417 60.074 36.286 92.127.202 1.008.605 1.814.807 2.822 8.668 32.053 13.91 65.517 15.522 99.384 0 1.008 0 2.016.202 3.024 1.008 27.013-.202 54.631-4.032 82.249-1.008 7.056-2.217 14.111-3.427 21.167-.202 1.008-.403 2.016-.605 2.822-6.451 34.069-16.732 66.323-30.037 96.764-.403.806-.806 1.814-1.209 2.62a438.583 438.583 0 01-49.592 84.265c-.604.807-1.008 1.411-1.612 2.218-19.555 25.602-41.73 48.986-66.122 69.548-.605.605-1.411 1.21-2.016 1.815-5.443 4.435-10.886 8.87-16.53 13.103a486.641 486.641 0 0016.933-13.305c.605-.605 1.411-1.21 2.016-1.814 24.393-20.562 46.769-43.947 66.324-69.549.604-.806 1.209-1.411 1.612-2.218a438.605 438.605 0 0049.592-84.264c.403-.807.806-1.815 1.209-2.621 13.305-30.44 23.586-62.695 30.037-96.763.202-1.008.403-2.016.605-2.823 1.209-7.055 2.419-13.909 3.427-21.167 3.83-27.618 5.04-55.034 4.032-82.249 0-1.008-.001-2.016-.202-3.024-1.008-33.665-6.249-66.928-14.918-99.182zM730.765 823.801c0 .202-.201.202 0 0-.201.202 0 .202 0 0zm-.201.201c-2.419 1.815-5.04 3.831-7.661 5.645 2.621-2.016 5.242-3.83 7.661-5.645zm-10.482 7.66c.604-.403 1.008-.806 1.612-1.209-2.62 1.814-5.442 3.83-8.063 5.644l6.451-4.435zm3.022-2.015c-.403.403-1.007.605-1.411 1.008.404-.403.807-.806 1.411-1.008zm184.053-459.021l4.637 29.835c-1.21-10.079-2.822-19.957-4.637-29.835zm-1.411-7.863l.807 3.629c-.404-1.21-.605-2.419-.807-3.629zm1.209 6.451l-.604-2.822c.201 1.411.604 2.822.806 4.233l-.202-1.411z" fill="#fff"/></svg>